<?xml version="1.0" encoding="UTF-8" standalone="no"?>
<!-- Created with Inkscape (http://www.inkscape.org/) -->
<svg id="svg2985" xmlns:rdf="http://www.w3.org/1999/02/22-rdf-syntax-ns#" xmlns="http://www.w3.org/2000/svg" height="768px" width="1024px" version="1.1" xmlns:cc="http://creativecommons.org/ns#" xmlns:dc="http://purl.org/dc/elements/1.1/">
 <metadata id="metadata2990">
  <rdf:RDF>
   <cc:Work rdf:about="">
    <dc:format>image/svg+xml</dc:format>
    <dc:type rdf:resource="http://purl.org/dc/dcmitype/StillImage"/>
    <dc:title/>
   </cc:Work>
  </rdf:RDF>
 </metadata>
 <g id="layer1" fill="#000">
  <path id="path3209" d="m26.117,612.92c18.14-38.232,29.255-77.665,10.349-117.77-13.488-26.95-10.781-62.26-0.91848-79.234,15.48-11.573,65.68-5.2558,61.801,28.703,25.209,37.948,11.992,83.346-5.8256,119.43-12.677,30.851,3.3238,57.583-38.89,50.381-8.846-0.17-17.784,0.24-26.516-1.51zm28.939-190.33zm172.73,185.21c-1.2902-25.939-32.025-46.146-32.929-65.721,20.079-5.9446,17.404-25.472,40.948-29.269,21.173,13.905-1.4874,31.173,8.5944,37.034,12.886,8.8695,10.542,23.64,10.74,38.056-0.11169,8.2979,1.9154,40.479-1.1056,16.289,5.9506-28.246-17.691-51.286-37.005-53.306,2.0282,21.083,21.792,47.202,22.225,63.546-4.6646,0.0475-11.451,0.39-11.469-6.629zm-22.63-53.5zm32.763-32.027zm46.99,75.548c1.4498-13.824-10.37-44.7-0.84477-27.177-3.4938-47.707,13.379,46.785,1.4853,39.983l-0.43924-5.145-0.20127-7.6604zm56.973,12.632c-7.8528-19.044,3.8155-38.928,18.771-24.399,0.81422,26.819,4.1458-17.597,11.427-10.438,10.353-27.501,24.422-50.301,42.365-74.661,25.521-36.671,34.739-82.474,56.804-120.27,8.2627-27.602,59.488-25.149,20.253-5.5848-16.091-10.534-28.533,28.757-20.826,25.418,15.237-10.269,37.815-31.954,31.464-6.1698-7.4994-7.3776-5.5844,42.674-8.4358,6.5435-1.1624-2.6535,0.11388,23.947-5.0862,15.731,4.2144,28.956-8.9804-21.069-8.4953,12.743,0.30435,20.098-4.968-30.28-7.3414,4.2651,3.6307,12.293,11.328,39.16,3.6412,28.965-13.005,11.546-8.3976,36.014-11.339,48.399,1.562,24.953,10.863,22.649,0.1052,41.572-6.7511,24.155,13.257-26.08,11.484-7.0258,1.6652-31.277,2.4854-32.815,0.2062-59.267,4.3317-14.649,4.752-38.351,15.385-27.822-3.5436-35.183,4.9821,21.259,9.998,2.8102-1.7618-21.639,8.9752,9.9886,17.992,5.7921,7.7113-1.3022-10.978-83.525,2.3104-27.449,2.5062,33.841,18.429,34.488,9.9326-1.0639-0.0389-15.994,7.0608,57.445,13.582,19.536,0.61867-25.936,3.6008,30.591,6.325,7.8636,6.3454,19.732,3.1401-33.608,5.7715-5.0851,6.2854,19.714,10.53,3.8883,6.5321,8.1983,12.119,20.8,9.0826-15.16,15.728,15.591-8.9057,8.7208,5.0169,60.034,5.1724,85.46,15.205,36.49,1.0686-5.6532,4.2794-25.554,1.4422-46.749,3.4863,61.85,10.638,40.713,14.194,12.217,12.574,39.466-21.478,29.064-25.777,0.18519-51.556,0.0726-77.334,0.10379-7.3613-14.727-3.1965,7.6439-25.817-0.16154-18.951-2.5925-54.169,6.5192-60.944-6.2725-21.718,16.781,14.911-33.648,10.486-46.953,3.9776-15.108,20.024-40.605,6.7113-8.4036,7.8136-3.418,17.979-42.504,4.7891-21.43-10.556,17.849-37.02,70.118-13.615,36.229-11.695,15.555-9.8361,53.248-36.528,46.599-11.046-2.8829-32.202,7.6221-35.04-6.1315-5.1892-22.31,3.38,21.166-9.8752,2.5473zm150.91,0.44194zm12.594-4.0069zm-110.38-3.3955zm11.11-4.7463zm-14.427,2.3794zm9.8648-5.0922zm20.474-5.4675zm-63.585,0.88388zm53.005-5.8495c-6.6792-5.2141,6.1646-30.912-4.4583-3.6246-1.0774,4.0314,2.0856,13.851,4.4583,3.6246zm169.73-3.9774zm-9.7527-26.854c-1.5258-35.244-6.6912,51.082-0.53158,4.7781l0.53158-4.7781zm2.1325,14.142zm8.6857,3.5355c-1.2812-20.941-6.2133-92.897-11.017-83.19,1.4147,30.71,1.1033,9.1661-4.7888-2.3294,5.793,23.347,1.856,77.536,15.805,85.519zm-6.1699-20.771c-2.884-20.329-0.94537-49.644,0.2724-13.305,2.3527,14.195,3.8288,47.988-0.2724,13.305zm-131.07,14.142zm146.26-4.8613zm-147.85-6.2928c-6.142-17.471-7.7262,31.509,0.0631,2.6631l-0.0631-2.6631zm119.52,4.6355zm3.0005-48.266c-0.80157-15.06-6.1254-40.861-3.1192-9.676,3.0579,22.534,1.2903,32.577-1.9085,5.1724-5.0652-47.896,1.5939,70.432,6.283,44.262,1.2591-13.245-0.006-26.567-1.2553-39.758zm-0.19107,25.616zm-128.64,22.981zm8.3319-14.142zm20.836-2.9895zm86.059-2.6452zm-1.7677-8.8387zm6.9666-16.14c-2.4981-23.135-6.4546-32.055-2.7444-3.9229,1.6471,14.885,8.7648,39.642,2.7444,3.9229zm-103.75,7.6326zm100.34,4.0111zm-88.405-0.80703zm-15.501-9.3912zm101.85-3.714c-1.4709-25.946-6.0685-22.96-2.2829-0.41636,0.32019,9.7446,4.8209,13.645,2.2829,0.41636zm-57.506-2.4731zm3.5084-5.7452zm-14.456-7.5597zm52.814,0.5992zm8.8787-7.1815zm-51.785,1.3198c-0.20485-36.718-23.17-7.1524-6.8591,0.88986,4.1467,1.0878,3.1357,10.907,6.8591-0.88986zm-6.5743-7.659zm12.918,10.317zm4.4616-24.882zm-29.21-57.423zm145.09,199.71zm5.4428-0.73656zm5.9903,1.3258zm4.8186-4.8613zm6.8686,3.5355zm5.3688-0.88388zm5.4401-2.6516zm47.488-0.44194c5.8367,8.0053,3.3262-24.216,7.9757-32.353,7.2019-18.453-16.88-49.77-18.619-59.522-1.3667-18.053-28.851-60.181-27.78-51.572,1.0038,19.803-8.5941-25.967-7.678-1.0663-7.1812-31.635-5.1372-10.587-6.1308-1.2482-7.6134-29.008-13.412-6.9756-22.493-26.076-14.833-14.207,28.098-0.98518-2.4131-14.91-19.758-5.2418-18.165-10.214-24.44-11.682-0.60852,9.3848-12.584-2.2358-4.9106,14.584,7.8659-5.7183,3.6133,42.212,1.0348,7.9811-17.246-5.3892,1.2823-19.83-9.2186-23.814,1.2332,11.22-17.298-8.0826-7.8185,19.492-13.762-28.399,5.4206-67.493,1.3749-40.805,4.6752-14.589,15.342-64.974,3.7374-24.02-5.29,7.2144,7.0619-40.631-6.7371-2.9143-5.37-36.055,47.572-22.442,60.685-49.92,24.954-35.701,38.443-80.419,8.0726-117.53-0.21143-38.316,16.786-74.363,32.597-108.32,11.564-25.915,70.492-49.369,82.896-27.7,1.0999,26.861-13.083,69.787-3.3441,88.76,30.652-0.52974,58.984,2.395,81.161,22.846,8.8849,20.801,21.33-1.9826,19.636,14.695,4.6951,6.4836,13.128,26.86-8.1582,8.4872-9.1846,20.241-11.759,23.427-9.4164-0.14034-13.297,14.92-37.236,39.155-51.231,12.59-6.8108,23.973-12.62,53.753-21.905,64.629,12.448,3.6134-25.923,13.151,1.823,20.891-16.374,7.7549-25.087,31.568-4.3664,33.628,10.47,15.501-26.641,17.865-9.4552,37.751,14.974,30.948-17.874,7.3746-28.023,28.11,12.383,0.30217,34.256,16.355,46.893-4.5965,13.46-9.3199-9.5149-22.332,14.141-39.145,13.14-12.384,23.007-71.424,25.701-25.548-2.4192,18.855,7.564,36.778,0.43452,33.551,19.951,23.017,8.6376,40.636-5.2629,8.1799-14.016-2.6739-35.427,37.434-46.559,52.694-10.29,19.074-23.582,89.42-35.962,35.357,0.43778-11.751-21.185-15.811-12.088-23.233-4.3286-6.9559,24.914-1.5822,3.752-13.618,0.53001,13.946-9.2301-24.042-17.494,0.098,2.3174,14.724-38.397-49.567-42.046-34.659-10.365-15.973-15.929-67.547-27.755-22.142,4.7023,18.162,30.789,31.529,24.538,57.849,21.269,27.471,65.593,32.326,80.669,65.953-14.192,12.066-14.34,70.544-3.1725,27.318,3.0494-20.314,33.482-50.865,13.076-11.759-3.6304,34.743-36.513,64.905-22.836,94.521-2.1747,16.789,4.1069,31.18-20.643,25.84-5.0149,1.9656-1.2766-5.4502-2.2419-7.5131zm15.669-5.6408zm-3.2384-77.063c-6.6005-27.893,22.777-20.498,6.7739-46.208,39.74,14.007-62.697-61.708-18.472-15.602,26.493,21.202,12.651,12.881-3.8117,11.442-13.519-12.087-22.943-16.4-8.7454,9.344,4.9326,4.4124,24.487,61.741,24.255,41.023zm3.5175-28.223zm-30.424-50.555zm-29.028-2.1359zm13.427-5.0701zm-17.295-3.7825c-12.487-13.032-20.194-3.6578-1.1964,2.4302l1.6169,1.9879-0.42049-4.4181zm73.596,1.5093zm-7.0198-6.2562zm10.274-2.1894zm2.1004-49.959c10.551-10.014-27.224-27.734-11.385-8.3808,0.0439,4.3381,7.5888,14.466,11.385,8.3808zm83.303-18.149zm-222.05-6.5996zm13.238-15.91zm10.128-6.3712zm143.67-36.055zm181.1,313.33c0.92677-16.321-0.18661-62.558,7.5404-62.241-2.9853,20.133-1.4572,35.691,5.7585,5.2307-1.311,1.4438,10.176,49.146,15.186,63.11-4.5332-3.5852-35.459,8.1404-28.485-6.0999zm-283.47,0.3zm-41.441-8.9325zm364.8,6.4282zm-359.81-5.42zm-8.6678-26.497c-2.8971-35.634-3.0445,4.6584,1.1325,9.8956l-0.57953-4.3856-0.55299-5.5101zm-10.411,2.0089c-3.2931-28.133-3.12,6.9576,1.0642,7.3202l-1.0642-7.3202zm6.0328,7.6647zm-10.401-6.9237zm8.8387-8.8387zm99.778-5.3032zm-106.51-25.63c-0.18602-31.386-1.7188,15.618,0.18436,12.36l-0.13484-4.6524-0.0495-7.708zm-348.04,15.91zm43.001-7.5196c-15.355-30.746,40.409-32.063,9.538-61.273-4.6767-13.341,38.455,48.878,10.26,28.135-6.0844,3.8088-13.565,56.811-19.798,33.139zm299.54-8.3902zm-436.49-2.733c-17.501-18.522,3.8555-31.601,6.8315-3.6655,4.1308,4.9966-0.75324,18.184-6.8315,3.6655zm128.01-0.72963zm-22.573-17.855c-14.918-18.8,39.688-72.442-13.7-62.576-2.1606,12.191-11.073,5.3118-21.655-9.9937-10.975-19.17-22.992-34.981-37.332-10.808,2.0332,40.401-54.422-60.074-35.251-6.6729,0.99601,41.846-26.679-43.953-30.929,4.2186,0.45855,15.55-26.576-13.361-18.709-11.263,22.777-6.5993,21.255-19.013,1.2461-26.03-6.6163-27.735-25.98-52.824-14.71-80.87,19.975-31.287,21.391-67.207,32.122-102.34-6.8036-41.893,39.271-63.838,74.738-65.486,23.435-2.8018,47.092-2.3576,70.644-3.2813,12.701,22.013,23.253,45.672,35.814,68.181,14.397,12.345,48.473,9.9673,65.234,13.422,3.8799,17.406,59.839,18.582,56.1,45.598-33.033-5.9337-53.407-4.4256-58.306,29.71-9.0928,13.074-12.202,37.063-16.077,8.2932,9.228-8.7494,16.635-37.567,1.2955-39.693,6.8464,18.186-31.273-18.344-21.754,11.266,4.3871,15.731,10.54,60.328-5.0628,27.501-16.413-6.7762-75.42-25.163-58.945-0.59414,5.5754,20.829,0.10966,41.872-5.9887,62.26,3.1865,25.288,5.1948,44.027,15.418,30.071,5.3951,24.026,59.826,50.586,17.174,62.744-3.2899,17.46-24.476-24.265-15.52,2.6973,1.9468,0.043,14.628,20.247,3.6507,38.622-23.138-15.733-7.7606,17.711-19.497,15.023zm60.423-225.52c-11.315-20.927-49.521,10.265-9.6997,3.7524,1.6327-0.82819,10.605,1.3866,9.6997-3.7524zm-29.105-24.958zm24.488,6.4314zm-11-4.16zm-131.84-24.27zm405.5,269.04zm5.3032-5.3032zm-287.29-4.4194zm-152.06-1.8098c-11.339-10.294-33.734-68.15-24.688-52.801,6.6228,14.966,29.493,47.332,24.688,52.801zm430.51-2.6095zm2.9452-15.91c-6.3916-18.112-8.2727-70.424-2.3848-25.291-0.27072,5.0797,11.131,54.593,2.3848,25.291zm7.5217,7.8075zm-21.76-25.05c0.99081-17.344,4.5545,3.8511,1.4846,8.0469l-1.4846-8.0469zm22.737-1.3258c-5.5144-14.643-6.2055-51.766-1.1998-15.448,2.0042,3.0232,5.081,35.848,1.1998,15.448zm-50.467-1.915zm33.858-4.2721zm-12.784-2.0624zm-54.527-0.58924zm3.2895-4.8613zm7.323,5.7452zm33.448,0.73657zm33.587,0zm-44.054-4.2721zm52.893,0.73656zm5.1637-0.73656zm-117.37-2.8035zm82.885-7.9114zm6.6455,2.7601zm45.795,2.6516zm-122.11-1.0312zm5.1908-1.1785zm48.804,1.2575zm5.4746,0.36569c-3.8078-11.536-10.663-52.187-5.1904-54.133-4.7658,17.696,9.7247,45.444,5.1904,54.133zm56.473,1.1758zm-18.226-5.1665zm-49.829-2.791c-4.829-25.864,3.9825,1.9476,0.19408,4.2349l-0.10309-2.2496-0.091-1.9853zm17.862-1.4704zm21.213,0zm37.514-3.0936c-4.8133-8.2404-7.5831,0.57109-11.827-1.9026-4.0283-13.671-5.6823,13.961-4.1114-11.951,3.5005,1.4281,21.67-1.6983,17.964,18.314l-2.0256-4.4609h-0.00004zm-111.02-2.2553zm5.9927,0.78215zm77.781,0zm-98.789-3.3882zm-10.47-6.1871zm13.661,2.6516zm76.438,1.757c-13.31-18.994,8.8984-86.481-0.22651-32.771-6.719,6.0341,5.3482,39.392,0.22651,32.771zm-61.191-4.6296zm-483.7,2.093zm302.69-3.6398zm230.41,0.75761zm3.6276,0.058zm15.922-1.2575zm127.2,1.0758zm-170.01-1.3004zm-4.1186-2.1324zm-28.19-18.58c-0.5818-15.102,3.777-33.192,2.0043-6.0398-0.47549,11.554-2.176,39.487-2.0043,6.0398zm46.882,3.2527c3.251-33.44,4.0084-8.3007-0.51403,9.653l0.0729-2.7935,0.44114-6.8595zm4.3626,7.5011c-0.54323-18.303,13.915-73.861,4.9353-25.504-1.4548,3.7497-2.6672,38.874-4.9353,25.504zm-228.87,2.309zm-218.56-9.4843zm454.69-3.4312c0.38216-16.875,4.2433-36.392,2.4808-8.4741-0.17976,2.9667-3.3236,23.214-2.4808,8.4741zm-21.181-1.7677zm454.18,1.7677zm-662.94-6.6569zm522.48-4.6446zm4.0713-2.8405zm-98.994,0zm-453.84-3.74zm536.29,0.62651c-26.421,1.145,5.1408-50.162,7.1191-7.6453,2.1756,14.245-2.5488,4.0489-7.1191,7.6453zm-526.98-10.22c-16.421,5.6942-37.012-11.54-6.9233-6.8904,11.96-0.43464,30.476,15.084,6.9233,6.8904zm23.791-1.5945c10.332-8.7658-42.731-25.429-16.049-32.428,21.361,20.025,11.459-4.1315,5.0954-7.53,25.808-5.502,26.135,46.511,10.954,39.958zm193.68,0.26136zm34.497-0.513zm-30.082-2.9462c12.779-15.891,36.642-19.51,13.149-6.629-4.0029-6.2735-7.9527,17.534-13.149,6.629zm37.292-4.8613zm-10.12-11.49zm198.99-36.347zm34.395-35.693c-21.54-16.42,20.753-6.2334,1.638-31.458,1.2851-43.45,24.721,49.789-1.638,31.458zm35.669-44.775c1.5985-19.278,11.31-29.748,3.2338-4.2796,0.14986,0.50221-6.3458,24.123-3.2338,4.2796zm-477.6-27.39zm-11.801-15.923c-6.7741-31.777-49.386-45.439-65.541-51.681,30.434-7.678,80.362,43.947,65.541,51.681zm506.27-59.073c-0.001-13.966-21.836-77.33-3.6709-35.258,5.1813,3.507,5.0855,58.106,3.6709,35.258zm-93.847-0.14725zm19.306-25.485zm8.8387,0.1043zm19.445-51.369z"/>
  <g id="flowRoot3211" style="letter-spacing:0px;word-spacing:0px;" font-weight="normal" transform="matrix(1.2698723,0,0,1.2698723,-74.003903,583.29905)" font-stretch="normal" line-height="125%" font-size="40px" font-variant="normal" font-family="FreeSans" font-style="normal">
   <path id="path3240" d="m133.09,101.77c-0.56725-10.148-1.6098-19.744-14.177-15.926-10.499-3.3213-11.33,9.832-16.303,15.926-13.457,2.5649,2.1114-11.793,3.5215-17.897,6.3613-11.238,12.723-22.475,19.084-33.713,11.026-2.5702,6.0396,13.752,9.3485,20.287,1.7354,10.441,3.4708,20.882,5.2062,31.322h-6.6797zm-3.34-21.731c-2.466-6.96-1.0066-31.847-6.9258-14.906-4.3188,7.9883-13.101,18.639,2.2318,14.906h4.694z"/>
   <path id="path3242" d="m183.33,63.164c-9.2239,7.1047-9.0736,26.242-28.16,26.438-4.3589,11,31.645,1.7747,16.84,21.762-10.905,19.615-50.286-0.82832-21.973-12.551-3.9108-9.5693,5.0886-12.34-0.77344-23.027,3.007-18.24,21.556-11.673,34.066-12.621m-37.512,44.93c6.9515,20.315,37.787-12.064,8.9648-6.9609-4.1519-0.21424-8.4822,2.5522-8.9648,6.9609m9.7383-32.52z"/>
   <path id="path3244" d="m204.88,101.77c2.7749-12.059-27.319,13.465-22.43-10.793-0.41334-16.84,41.759-7.4997,19.898-23.203-34.251,6.1171,19.903-19.251,12.41,7.5586-1.7578,8.8125-3.5156,17.625-5.2734,26.438h-4.6055zm-10.863-4.4648c16.01-0.92096,16.283-24.094-1.4062-11.883-4.406,2.5585-5.8914,12.463,1.4062,11.883z"/>
   <path id="path3246" d="m227.77,101.77c-12.381,2.7808-1.6049-13.416-2.3582-20.164,1.5773-6.3715,2.1739-24.034,9.804-16.997-2.4819,12.387-4.9639,24.774-7.4458,37.161zm2.918-49.043c12.016-14.961,5.8156,14.128,0.00002,0"/>
   <path id="path3248" d="m264.19,101.77c1.3014-10.558,6.0766-21.152,4.4648-31.711-17.792-8.7854-18.999,17.084-21.639,28.991-9.106,10.168-5.6813-8.0875-3.4804-14.564,3.513-6.6729-0.57526-22.621,9.4744-21.318-3.4012,12.007,26.137-13.513,23.091,9.9558-1.4877,9.6081-3.7128,19.091-5.5129,28.646h-6.3984z"/>
   <path id="path3250" d="m290.84,93.399c-1.5298,14.691-22.26,27.252-8.4727,4.0781-0.87129-6.4366,5.2875-3.371,8.4727-4.0781z"/>
   <path id="path3252" d="m358.62,101.77c-11.302,3.551-10.245-11.055-14.562-17.766-3.415-8.161-6.3333-17.052-10.047-24.773-1.7668,14.326-5.1312,28.377-7.8398,42.539-12.033,2.5934-1.1213-13.629-2.019-20.167,2.0793-10.411,4.1585-20.821,6.2378-31.232,11.265-3.5341,10.175,11.1,14.509,17.759,3.3718,8.1134,6.3284,16.837,9.9596,24.569,1.9306-14.234,5.2085-28.231,7.9102-42.328,12.103-2.6316,1.2193,13.587,2.0893,20.167-2.0792,10.411-4.1585,20.821-6.2378,31.232z"/>
   <path id="path3254" d="m407.03,82.395c-3.0616,34.855-53.333,16.096-28.608-11.9,9.6671-15.003,35.395-7.6062,28.608,11.9zm-27,0c-4.4412,35.533,40.129-6.4043,13.078-14.625-8.2132-0.53423-11.903,7.9312-13.078,14.625z"/>
   <path id="path3256" d="m458.81,74.625c9.0844,0.01235,21.853-2.9971,15.004,10.084,2.936,20.711-25.104,23.378-36.309,10.658-16.933-25.323,25.458-60.164,40.319-40.243-16.487-3.0807-45.356,10.476-34.413,35.848,10.75,12.542,26.916,5.0069,24.785-10.582-5.4308-1.0842-13.751,3.5606-9.3867-5.7656z"/>
   <path id="path3258" d="m517,82.395c-3.0616,34.855-53.333,16.096-28.608-11.9,9.6671-15.003,35.395-7.6062,28.608,11.9zm-27,0c-4.4412,35.533,40.129-6.4043,13.078-14.625-8.2132-0.53423-11.903,7.9312-13.078,14.625z"/>
   <path id="path3260" d="m558.62,82.395c-3.0616,34.855-53.333,16.096-28.608-11.9,9.6671-15.003,35.395-7.6062,28.608,11.9zm-27,0c-4.4412,35.533,40.129-6.4043,13.078-14.625-8.2132-0.53423-11.903,7.9312-13.078,14.625z"/>
   <path id="path3262" d="m602.39,63.164c-9.2239,7.1047-9.0736,26.242-28.16,26.438-4.3589,11,31.645,1.7747,16.84,21.762-10.905,19.615-50.286-0.82832-21.973-12.551-3.9108-9.5693,5.0886-12.34-0.77344-23.027,3.007-18.24,21.556-11.673,34.066-12.621m-37.512,44.93c6.9515,20.315,37.787-12.064,8.9648-6.9609-4.1519-0.21424-8.4822,2.5522-8.9648,6.9609m9.7383-32.52z"/>
   <path id="path3264" d="m608.58,101.77c-12.38,2.781-1.6112-13.417-2.3678-20.166,2.301-11.512,4.602-23.025,6.9029-34.537,12.38-2.781,1.6112,13.417,2.3678,20.166-2.301,11.512-4.602,23.025-6.9029,34.537z"/>
   <path id="path3266" d="m636,102.47c-28.82-1.3324-7.9743-53.03,14.818-37.248,11.894,15.531-1.7441,21.718-15.149,18.475-21.431,3.3276,10.305,17.499,13.226,13.394,0.20183,5.7866-9.1111,4.667-12.896,5.3795zm5.3438-34.699c-25.274,5.6604,2.9612,18.728,6.5039,6.3633,0.28393-3.4928-2.8904-6.8936-6.5039-6.3633z"/>
   <path id="path3268" d="m689.26,50.368c13.534-1.9617,41.239,1.5451,25.559,20.426-17.287,1.5231,15.003,19.895-8.4551,28.714-6.3785,0.57181-30.109,8.1151-26.218-3.5032,3.0383-15.212,6.0765-30.424,9.1148-45.636m2.1797,21.797c20.462,6.2542,28.482-21.396,3.7647-16.207-2.0202,4.3673-2.402,11.038-3.7647,16.207zm-1.0898,5.4844c-0.49365,7.994-9.0161,22.577,5.1222,18.562,22.746-3.1629,15.115-22.998-5.1222-18.562z"/>
   <path id="path3270" d="m747.83,101.77c3.2004-11.91-26.171,13.496-23.159-9.958,1.4874-9.6095,3.736-19.089,5.5459-28.644,12.382-2.7805,1.5986,13.415,2.3488,20.163-6.0168,24.744,23.124,8.4764,19.489-8.766-2.3264-11.392,12.859-16.747,6.9462-2.7547-2.001,9.9866-4.0019,19.973-6.0028,29.96h-5.168z"/>
   <path id="path3272" d="m788.05,101.77c-7.9471-0.98601-20.688,1.9578-25.692-1.4404,4.7152-10.917,15.361-18.982,22.335-28.812,9.3294-9.0121-17.218,1.785-14.125-6.4107,4.9987-4.5611,16.938-0.61977,24.584-1.938-2.7745,11.612-14.413,18.925-20.936,28.719-11.804,10.09,12.83,1.634,14.5,6.5075-0.22172,1.1251-0.44345,2.2501-0.66518,3.3752z"/>
   <path id="path3274" d="m819.83,101.77c-7.9471-0.98601-20.688,1.9578-25.692-1.4404,4.7152-10.917,15.361-18.982,22.335-28.812,9.3294-9.0121-17.218,1.785-14.125-6.4107,4.9987-4.5611,16.938-0.61977,24.584-1.938-2.7745,11.612-14.413,18.925-20.936,28.719-11.804,10.09,12.83,1.634,14.5,6.5075-0.22172,1.1251-0.44345,2.2501-0.66518,3.3752z"/>
  </g>
 </g>
</svg>
