<?xml version="1.0" encoding="UTF-8" standalone="no"?>
<!-- Created with Inkscape (http://www.inkscape.org/) -->
<svg id="svg2985" xmlns:rdf="http://www.w3.org/1999/02/22-rdf-syntax-ns#" xmlns="http://www.w3.org/2000/svg" height="768px" width="1024px" version="1.1" enable-background="new" xmlns:cc="http://creativecommons.org/ns#" xmlns:xlink="http://www.w3.org/1999/xlink" xmlns:dc="http://purl.org/dc/elements/1.1/">
 <defs id="defs2987">
  <filter id="filter4157" color-interpolation-filters="sRGB">
   <feTurbulence id="feTurbulence4159" baseFrequency="0.2" seed="300" result="result1" numOctaves="7" type="turbulence"/>
   <feDisplacementMap id="feDisplacementMap4161" xChannelSelector="R" in2="result1" result="result7"/>
   <feBlend id="feBlend4163" result="fbSourceGraphic" mode="screen" in2="SourceGraphic" in="result7"/>
   <feColorMatrix id="feColorMatrix4165" values="1 0 0 -1 0 1 0 1 -1 0 1 0 0 -1 0 -0.8 -1 0 4 -2.5 " result="fbSourceGraphicAlpha"/>
   <feGaussianBlur id="feGaussianBlur4167" in="fbSourceGraphicAlpha" stdDeviation="0.5" result="result0"/>
   <feSpecularLighting id="feSpecularLighting4169" surfaceScale="5" specularConstant="1" specularExponent="5" result="result6">
    <feDistantLight id="feDistantLight4171" elevation="35" azimuth="225"/>
   </feSpecularLighting>
   <feComposite id="feComposite4173" in2="SourceGraphic" k3="1" k2="0.5" result="result4" operator="arithmetic"/>
   <feComposite id="feComposite4175" operator="in" in="result4" in2="SourceGraphic" result="result2"/>
  </filter>
  <clipPath id="SVGID_2_">
   <use id="use33" xlink:href="#SVGID_1_" height="111.479" width="72.944336" y="0" x="0"/>
  </clipPath>
 </defs>
 <metadata id="metadata2990">
  <rdf:RDF>
   <cc:Work rdf:about="">
    <dc:format>image/svg+xml</dc:format>
    <dc:type rdf:resource="http://purl.org/dc/dcmitype/StillImage"/>
    <dc:title/>
   </cc:Work>
  </rdf:RDF>
 </metadata>
 <g id="layer1">
  <path id="path3039" fill="#000" d="m24.034,750.2c0.9746-15.36,0.30546-30.828,1.9358-46.133,5.1144-5.0362,2.7438,10.231,3.6659,13.718,1.9911,7.2955-4.4153,26.315,8.154,23.741,10.639-0.006,14.425-9.9034,13.085-19.02,1.1902-5.1398-2.6661-20.216,4.1487-19.251,0.83645,3.254,2.5286,11.324,3.392,3.2516,1.5933-21.625,1.3477-43.396,3.7079-64.948,4.1767-7.9208,1.719-17.545,2.5401-26.196-0.21244-10.433,0.7463-20.98-0.6119-31.333-6.9678-4.5302,3.4542-6.2655,1.8853-11.275,0.2382-17.061-0.23236-34.164,1.0836-51.182,5.1882-8.2795,4.3076,11.697,9.7072,13.225,11.699,5.4975,9.8193-12.017,14.749-15.24,3.4112,7.3634,2.3729,16.313,3.0441,24.372,0.09262,10.732-0.693,21.447-1.0133,32.171,5.2979,1.2251,6.5239,5.225,2.3585,8.3083-0.24614,17.513,0.80061,35.064,1.8191,52.55,3.9276,5.9762,6.7095,13.294,6.5266,21.841,2.0934,18.414,3.2516,36.936,5.7232,55.302,7.8054,3.6134,13.236-1.9633,11.061-9.7772,0.22298-10.108,6.6334-0.83085,5.4527,4.3399,2.4737,12.3,7.0618,24.326,6.1298,37.074v10.257c-5.7578-0.4988-12.492,1.552-17.249-2.3392-8.3963,2.9199-17.868,1.9136-26.896,2.2508-21.587,0.15689-43.174,0.0626-64.761,0.0885,0.1205-1.9321,0.24101-3.8641,0.36151-5.7962zm11.512-1.5946zm81.741-1.8402c3.9318-7.4713,5.5628-20.471-3.5403-24.913-9.6572,2.6814-5.5859,17.856-3.9283,25.342,1.7912,1.9302,5.6304,1.1027,7.4686-0.42934zm-58.559-31.13z"/>
  <path id="path3039-6" fill="#000" d="m153.55,748.75c1.2182-19.2,0.38183-38.535,2.4198-57.666,6.393-6.2952,3.4297,12.788,4.5824,17.147,2.4888,9.1194-5.5191,32.894,10.193,29.677,13.299-0.007,18.031-12.379,16.356-23.775,1.4877-6.4248-3.3326-25.27,5.1859-24.063,1.0456,4.0674,3.1607,14.156,4.24,4.0646,1.9917-27.031,1.6846-54.245,4.6349-81.184,5.2208-9.901,2.1487-21.932,3.1752-32.745-0.26556-13.042,0.93287-26.225-0.76488-39.167-8.7097-5.6628,4.3177-7.8319,2.3566-14.093,0.29775-21.326-0.29044-42.705,1.3545-63.978,6.4852-10.349,5.3845,14.622,12.134,16.531,14.624,6.8719,12.274-15.021,18.437-19.051,4.264,9.2042,2.9661,20.391,3.8052,30.465,0.11577,13.415-0.86624,26.809-1.2666,40.214,6.6224,1.5314,8.1549,6.5313,2.9481,10.385-0.30767,21.892,1.0008,43.83,2.2738,65.687,4.9095,7.4702,8.3868,16.618,8.1583,27.301,2.6168,23.017,4.0645,46.169,7.1539,69.128,9.7567,4.5168,16.546-2.4541,13.826-12.222,0.27873-12.635,8.2919-1.0386,6.816,5.4248,3.0921,15.375,8.8273,30.407,7.6623,46.343v12.822c-7.1972-0.6235-15.616,1.94-21.561-2.924-10.495,3.6499-22.335,2.392-33.62,2.8135-26.983,0.19611-53.967,0.0783-80.951,0.11057,0.15063-2.4151,0.30126-4.8302,0.45189-7.2452zm14.39-1.9932zm102.18-2.3002c4.9147-9.3391,6.9535-25.589-4.4254-31.141-12.071,3.3517-6.9823,22.321-4.9104,31.678,2.239,2.4128,7.0381,1.3784,9.3358-0.53668zm-73.196-38.909z"/>
  <path id="path3039-6-3" fill="#000" d="m310.31,746.94c1.5228-24,0.47729-48.169,3.0247-72.083,7.9912-7.869,4.2871,15.985,5.728,21.434,3.111,11.399-6.8988,41.118,12.741,37.096,16.623-0.009,22.539-15.474,20.445-29.719,1.8597-8.031-4.1658-31.588,6.4824-30.079,1.307,5.0843,3.9509,17.694,5.3,5.0807,2.4896-33.789,2.1057-67.806,5.7936-101.48,6.5261-12.376,2.6859-27.415,3.969-40.931-0.33194-16.302,1.1661-32.781-0.9561-48.958-10.887-7.0784,5.3971-9.7898,2.9458-17.617,0.37219-26.658-0.36306-53.381,1.6931-79.972,8.1065-12.937,6.7307,18.277,15.168,20.663,18.28,8.5899,15.343-18.776,23.046-23.813,5.33,11.505,3.7077,25.489,4.7564,38.081,0.14472,16.768-1.0828,33.511-1.5832,50.267,8.278,1.9143,10.194,8.1641,3.6851,12.982-0.38459,27.365,1.251,54.788,2.8423,82.109,6.1368,9.3377,10.484,20.772,10.198,34.127,3.271,28.771,5.0806,57.712,8.9424,86.41,12.196,5.646,20.682-3.0677,17.282-15.277,0.34841-15.794,10.365-1.2983,8.52,6.7811,3.8652,19.219,11.034,38.009,9.5779,57.929v16.027c-8.9966-0.77938-19.519,2.4251-26.951-3.655-13.119,4.5624-27.919,2.99-42.025,3.5168-33.729,0.24514-67.459,0.0978-101.19,0.13822,0.18829-3.0188,0.37658-6.0377,0.56486-9.0566zm17.987-2.4915zm127.72-2.8753c6.1434-11.674,8.6919-31.986-5.5317-38.927-15.089,4.1896-8.7279,27.901-6.138,39.597,2.7987,3.0159,8.7976,1.7229,11.67-0.67085zm-91.495-48.637z"/>
  <path id="path3039-6-3-7" fill="#000" d="m501.13,744.68c1.9035-30,0.5966-60.211,3.7809-90.104,9.989-9.8362,5.3589,19.982,7.1599,26.793,3.8888,14.249-8.6236,51.397,15.926,46.37,20.779-0.0112,28.174-19.343,25.556-37.149,2.3246-10.039-5.2072-39.485,8.103-37.599,1.6337,6.3554,4.9386,22.118,6.625,6.3509,3.112-42.236,2.6322-84.758,7.242-126.85,8.1576-15.47,3.3574-34.268,4.9612-51.164-0.41492-20.378,1.4576-40.976-1.1951-61.198-13.609-8.848,6.7464-12.237,3.6823-22.021,0.46524-33.322-0.45382-66.726,2.1164-99.965,10.133-16.171,8.4134,22.846,18.959,25.829,22.851,10.737,19.178-23.47,28.807-29.767,6.6625,14.382,4.6346,31.861,5.9456,47.601,0.1809,20.96-1.3535,41.889-1.979,62.834,10.348,2.3928,12.742,10.205,4.6064,16.227-0.48074,34.206,1.5637,68.484,3.5528,102.64,7.6711,11.672,13.104,25.965,12.747,42.658,4.0887,35.964,6.3507,72.14,11.178,108.01,15.245,7.0575,25.853-3.8346,21.602-19.096,0.43553-19.742,12.956-1.6229,10.65,8.4763,4.8314,24.024,13.793,47.511,11.972,72.411v20.034c-11.246-0.97422-24.399,3.0313-33.689-4.5688-16.399,5.703-34.898,3.7375-52.531,4.396-42.161,0.30643-84.324,0.12231-126.49,0.17277,0.23536-3.7736,0.47071-7.5471,0.70608-11.321zm22.484-3.1144zm159.65-3.5941c7.6793-14.592,10.865-39.983-6.9146-48.658-18.862,5.237-10.91,34.876-7.6725,49.497,3.3613,3.7674,11.146,2.1267,14.587-0.83856zm-114.36-60.81z"/>
  <path id="path3039-6-3-7-8" fill="#000" d="m734.53,741.85c2.3793-37.501,0.74575-75.264,4.7261-112.63,12.486-12.295,6.6986,24.977,8.9499,33.491,4.861,17.811-10.779,64.247,19.907,57.963,25.974-0.014,35.217-24.178,31.945-46.436,2.9057-12.548-6.5091-49.356,10.129-46.998,2.0422,7.9442,6.1733,27.648,8.2813,7.9386,3.89-52.795,3.2902-105.95,9.0525-158.56,10.197-19.338,4.1967-42.835,6.2015-63.955-0.51866-25.472,1.822-51.22-1.4939-76.497-17.011-11.06,8.433-15.297,4.6028-27.526,0.58154-41.652-0.56727-83.407,2.6454-124.96,12.666-20.214,10.517,28.558,23.699,32.287,28.563,13.422,23.973-29.338,36.009-37.208,8.3281,17.977,5.7932,39.827,7.432,59.501,0.22612,26.2-1.6919,52.361-2.4738,78.542,12.934,2.991,15.928,12.756,5.758,20.284-0.60092,42.757,1.9546,85.606,4.4411,128.3,9.5888,14.59,16.381,32.456,15.934,53.323,5.1109,44.955,7.9384,90.175,13.973,135.02,19.056,8.8218,32.316-4.7932,27.003-23.87,0.54441-24.678,16.195-2.0287,13.313,10.595,6.0393,30.03,17.241,59.389,14.965,90.513v25.042c-14.057-1.2178-30.499,3.7892-42.111-5.711-20.499,7.1287-43.623,4.6718-65.664,5.495-52.702,0.38303-105.41,0.15289-158.11,0.21596,0.2942-4.717,0.58839-9.4339,0.8826-14.151zm28.105-3.893zm199.56-4.4926c9.5991-18.24,13.581-49.978-8.6433-60.823-23.577,6.5463-13.637,43.595-9.5907,61.871,4.373,4.7124,13.746,2.6921,18.234-1.0482zm-142.96-76z"/>
  <g id="g3209" fill-rule="evenodd" transform="matrix(1.6395886,0,0,1.6395886,-562.68825,-99.23126)" filter="url(#filter4157)">
   <path id="path3221" d="m873.86,135.44,49.007-24.761,0,56.804-49.007,15.996z" fill="#e9e9ff"/>
   <path id="path3211" d="m821.72,102.37,0,59.747,52.137,21.366,0-48.039z" fill="#353564"/>
   <path id="path3213" d="m821.72,102.37,51.405-40.083,49.739,48.395-49.007,24.761z" fill="#4d4d9f"/>
   <path id="path3219" d="m821.72,162.12,51.405-25.895,49.739,31.264-49.007,15.996z" fill="#999"/>
   <path id="path3217" d="m873.13,62.286,0,73.936,49.739,31.264,0-56.804z" fill="#808080"/>
   <path id="path3215" d="m821.72,102.37,51.405-40.083,0,73.936-51.405,25.895z" fill="#333"/>
  </g>
 </g>
 <g id="layer2">
  <g id="g4428" fill="#1a1a1a" transform="matrix(2.0045419,0,0,2.0045364,795.36422,27.734131)">
   <g id="g35" clip-path="url(#SVGID_2_)">
    <path id="path37" d="m72.944,36.478c0,20.143-16.328,36.473-36.472,36.473-20.143,0-36.472-16.331-36.472-36.473,0-20.149,16.329-36.478,36.473-36.478s36.472,16.329,36.472,36.478z"/>
    <path id="path39" d="m72.875,36.456c0,20.083-16.28,36.365-36.364,36.365s-36.365-16.282-36.365-36.365c0-20.089,16.281-36.37,36.365-36.37s36.364,16.281,36.364,36.37z"/>
    <path id="path41" d="m72.807,36.434c0,20.024-16.232,36.258-36.258,36.258-20.024,0-36.257-16.234-36.257-36.258,0-20.029,16.232-36.262,36.257-36.262s36.258,16.232,36.258,36.262z"/>
    <path id="path43" d="m72.737,36.412c0,19.965-16.185,36.15-36.149,36.15-19.966,0-36.15-16.185-36.15-36.15,0-19.97,16.184-36.155,36.15-36.155,19.965-1E-7,36.149,16.185,36.149,36.155z"/>
    <path id="path45" d="m72.669,36.39c0,19.905-16.137,36.042-36.043,36.042-19.907,0-36.042-16.137-36.042-36.042,0-19.911,16.136-36.047,36.042-36.047s36.043,16.137,36.043,36.047z"/>
    <path id="path47" d="m72.6,36.369c0,19.846-16.089,35.935-35.936,35.935s-35.935-16.089-35.935-35.935c0-19.851,16.088-35.94,35.935-35.94s35.936,16.089,35.936,35.94z"/>
    <path id="path49" d="m72.53,36.347c0,19.787-16.04,35.827-35.828,35.827-19.787-0.001-35.827-16.041-35.827-35.827,0-19.792,16.04-35.833,35.828-35.833s35.828,16.041,35.828,35.833z"/>
    <path id="path51" d="m72.461,36.325c0,19.728-15.992,35.719-35.72,35.719-19.729,0-35.72-15.991-35.72-35.719,0-19.732,15.991-35.725,35.72-35.725,19.728,1E-7,35.72,15.993,35.72,35.725z"/>
    <path id="path53" d="m72.393,36.303c0,19.667-15.944,35.611-35.613,35.611-19.67,0-35.613-15.944-35.613-35.611,0-19.673,15.943-35.618,35.613-35.618,19.669,0,35.613,15.945,35.613,35.618z"/>
    <path id="path55" d="m72.323,36.281c0,19.608-15.896,35.503-35.506,35.503s-35.505-15.895-35.505-35.503c0-19.613,15.895-35.51,35.505-35.51,19.609,0,35.506,15.896,35.506,35.51z"/>
    <path id="path57" d="m72.299,36.262c0,19.567-15.862,35.428-35.429,35.428-19.569,0-35.429-15.861-35.429-35.428,0-19.571,15.86-35.434,35.429-35.434,19.567,1E-7,35.429,15.863,35.429,35.434z"/>
    <path id="path59" d="m72.274,36.243c0,19.524-15.828,35.351-35.354,35.351s-35.353-15.827-35.353-35.351c0-19.529,15.827-35.357,35.353-35.357s35.354,15.828,35.354,35.357z"/>
    <path id="path61" d="m72.25,36.224c0,19.483-15.794,35.276-35.278,35.276s-35.277-15.793-35.277-35.276c0-19.487,15.793-35.281,35.277-35.281s35.278,15.794,35.278,35.281z"/>
    <path id="path63" d="m72.226,36.206c0,19.44-15.76,35.199-35.201,35.199-19.442,0-35.201-15.759-35.201-35.199,0-19.445,15.759-35.206,35.201-35.206,19.441,0,35.201,15.761,35.201,35.206z"/>
    <path id="path65" d="m72.201,36.187c0,19.398-15.726,35.124-35.125,35.124-19.4,0-35.125-15.725-35.125-35.124,0-19.404,15.724-35.129,35.125-35.129,19.399,0,35.125,15.726,35.125,35.129z"/>
    <path id="path67" d="m72.177,36.167c0,19.356-15.692,35.047-35.049,35.047-19.358,0-35.049-15.691-35.049-35.047,0-19.362,15.691-35.053,35.049-35.053,19.356,0,35.049,15.691,35.049,35.053z"/>
    <path id="path69" d="m72.152,36.148c0,19.314-15.658,34.972-34.973,34.972-19.317,0-34.974-15.657-34.974-34.972,0-19.319,15.657-34.977,34.974-34.977,19.314,0,34.973,15.658,34.973,34.977z"/>
    <path id="path71" d="m72.128,36.129c0,19.273-15.624,34.896-34.896,34.896-19.275,0-34.897-15.623-34.897-34.896,0-19.277,15.622-34.901,34.897-34.901,19.272-1E-7,34.896,15.624,34.896,34.901z"/>
    <path id="path73" d="m72.104,36.11c0,19.231-15.59,34.82-34.82,34.82-19.232,0-34.821-15.589-34.821-34.82-0.0006-19.235,15.588-34.824,34.82-34.824,19.231,0,34.821,15.589,34.821,34.824z"/>
    <path id="path75" d="m72.079,36.091c0,19.188-15.556,34.743-34.744,34.743-19.19,0-34.746-15.555-34.746-34.743,0-19.193,15.555-34.749,34.746-34.749,19.188,0,34.744,15.556,34.744,34.749z"/>
    <path id="path77" d="m72.055,36.072c0,19.146-15.522,34.667-34.669,34.667-19.148,0-34.668-15.521-34.668-34.667,0-19.151,15.521-34.673,34.668-34.673,19.146,0,34.669,15.522,34.669,34.673z"/>
    <path id="path79" d="m72.03,36.053c0,19.104-15.487,34.592-34.592,34.592-19.107,0-34.593-15.487-34.593-34.592,0-19.109,15.486-34.597,34.593-34.597,19.104,0,34.592,15.487,34.592,34.597z"/>
    <path id="path81" d="m72.006,36.035c0,19.062-15.453,34.515-34.516,34.515-19.065,0-34.518-15.452-34.518-34.515,0-19.067,15.453-34.521,34.518-34.521,19.062,0,34.516,15.454,34.516,34.521z"/>
    <path id="path83" d="m71.981,36.015c0,19.021-15.42,34.439-34.439,34.439-19.023,0-34.442-15.419-34.442-34.439,0-19.025,15.419-34.445,34.442-34.445,19.02,0,34.439,15.42,34.439,34.445z"/>
    <path id="path85" d="m71.957,35.996c0,18.979-15.386,34.364-34.364,34.364-18.98,0-34.365-15.385-34.365-34.364,0-18.983,15.385-34.369,34.365-34.369,18.979-1E-7,34.364,15.385,34.364,34.369z"/>
    <path id="path87" d="m71.933,35.977c0,18.937-15.352,34.287-34.287,34.287-18.939,0-34.29-15.35-34.29-34.287,0-18.941,15.351-34.292,34.29-34.292,18.936,0,34.287,15.352,34.287,34.292z"/>
    <path id="path89" d="m71.909,35.958c0,18.895-15.318,34.211-34.213,34.211-18.896,0-34.213-15.316-34.213-34.211,0-18.899,15.317-34.216,34.213-34.216,18.895,0,34.213,15.317,34.213,34.216z"/>
    <path id="path91" d="m71.885,35.939c0,18.853-15.284,34.135-34.136,34.135-18.855,0-34.138-15.283-34.138-34.135,0-18.857,15.283-34.141,34.138-34.141,18.852,0,34.136,15.283,34.136,34.141z"/>
    <path id="path93" d="m71.86,35.92c0,18.811-15.25,34.06-34.061,34.06-18.812,0-34.061-15.249-34.061-34.06,0-18.815,15.249-34.064,34.061-34.064,18.811-1E-7,34.061,15.249,34.061,34.064z"/>
    <path id="path95" d="m71.836,35.901c0,18.769-15.217,33.983-33.984,33.983-18.77,0-33.985-15.214-33.985-33.983,0-18.773,15.215-33.988,33.985-33.988,18.768,0,33.984,15.215,33.984,33.988z"/>
    <path id="path97" d="m71.812,35.882c0,18.727-15.183,33.907-33.908,33.907-18.728,0-33.909-15.181-33.909-33.907,0-18.731,15.181-33.912,33.909-33.912,18.726,0,33.908,15.181,33.908,33.912z"/>
    <path id="path99" d="m71.787,35.863c0,18.685-15.148,33.832-33.832,33.832-18.687,0-33.833-15.147-33.833-33.832,0-18.689,15.146-33.836,33.833-33.836,18.684,0,33.832,15.146,33.832,33.836z"/>
    <path id="path101" d="m71.763,35.844c0,18.643-15.114,33.755-33.756,33.755-18.644,0-33.757-15.112-33.757-33.755,0-18.647,15.113-33.76,33.757-33.76,18.642,0,33.756,15.112,33.756,33.76z"/>
    <path id="path103" d="m71.738,35.825c0,18.601-15.08,33.679-33.68,33.679-18.602,0-33.681-15.079-33.681-33.679,0-18.605,15.079-33.684,33.681-33.684,18.6,1E-7,33.68,15.078,33.68,33.684z"/>
    <path id="path105" d="m71.714,35.806c0,18.559-15.046,33.604-33.604,33.604-18.561,0-33.605-15.045-33.605-33.604,0-18.563,15.044-33.607,33.605-33.607,18.558,1E-7,33.604,15.044,33.604,33.607z"/>
    <path id="path107" d="m71.689,35.788c0,18.516-15.012,33.526-33.527,33.526-18.519,0-33.529-15.01-33.529-33.526,0-18.521,15.011-33.532,33.529-33.532,18.516,0,33.527,15.011,33.527,33.532z"/>
    <path id="path109" d="m71.665,35.769c0,18.475-14.979,33.451-33.451,33.451-18.477,0-33.453-14.976-33.453-33.451,0-18.479,14.977-33.456,33.453-33.456,18.473,0,33.451,14.977,33.451,33.456z"/>
    <path id="path111" d="m71.641,35.75c0,18.433-14.944,33.375-33.375,33.375-18.435,0-33.377-14.942-33.377-33.375,0-18.438,14.943-33.38,33.377-33.38,18.431,0,33.375,14.942,33.375,33.38z"/>
    <path id="path113" d="m71.616,35.73c0,18.391-14.91,33.299-33.299,33.299-18.393,0-33.301-14.909-33.301-33.299,0-18.396,14.909-33.304,33.301-33.304,18.389-1E-7,33.299,14.908,33.299,33.304z"/>
    <path id="path115" d="m71.592,35.711c0,18.349-14.876,33.223-33.223,33.223-18.351,0-33.226-14.874-33.226-33.223,0-18.354,14.875-33.228,33.226-33.228,18.347,0,33.223,14.874,33.223,33.228z"/>
    <path id="path117" d="m71.567,35.692c0,18.307-14.842,33.147-33.146,33.147-18.309,0-33.149-14.84-33.149-33.147,0-18.312,14.841-33.151,33.149-33.151,18.305,0,33.146,14.84,33.146,33.151z"/>
    <path id="path119" d="m71.517,35.666c0,18.248-14.794,33.04-33.04,33.04-18.25,0-33.042-14.792-33.042-33.04,0-18.252,14.792-33.044,33.042-33.044,18.246,1E-7,33.04,14.792,33.04,33.044z"/>
    <path id="path121" d="m71.466,35.64c0,18.188-14.746,32.933-32.933,32.933-18.19,0-32.936-14.745-32.936-32.933,0-18.194,14.745-32.938,32.936-32.938,18.187,1E-7,32.933,14.744,32.933,32.938z"/>
    <path id="path123" d="m71.415,35.613c0,18.129-14.697,32.826-32.825,32.826-18.132,0-32.829-14.696-32.829-32.826,0-18.135,14.697-32.831,32.829-32.831,18.128,0,32.825,14.696,32.825,32.831z"/>
    <path id="path125" d="m71.364,35.586c0,18.071-14.65,32.72-32.719,32.72-18.072,0-32.721-14.649-32.721-32.72,0-18.075,14.649-32.724,32.721-32.724,18.068,0,32.719,14.649,32.719,32.724z"/>
    <path id="path127" d="m71.313,35.56c0,18.012-14.603,32.613-32.612,32.613-18.013,0-32.614-14.601-32.614-32.613,0-18.017,14.602-32.617,32.614-32.617,18.01,0,32.612,14.601,32.612,32.617z"/>
    <path id="path129" d="m71.263,35.533c0,17.953-14.554,32.505-32.505,32.505-17.954,0-32.507-14.553-32.507-32.505,0-17.957,14.553-32.51,32.507-32.51,17.951,0,32.505,14.553,32.505,32.51z"/>
    <path id="path131" d="m71.213,35.507c0,17.894-14.507,32.399-32.399,32.399-17.894,0-32.399-14.505-32.399-32.399,0-17.898,14.505-32.403,32.399-32.403,17.893,0,32.399,14.505,32.399,32.403z"/>
    <path id="path133" d="m71.162,35.48c0,17.834-14.459,32.292-32.292,32.292-17.836,0-32.293-14.457-32.293-32.292,0-17.839,14.458-32.296,32.293-32.296,17.833-1E-7,32.292,14.457,32.292,32.296z"/>
    <path id="path135" d="m71.11,35.454c0,17.775-14.41,32.185-32.185,32.185-17.777,0-32.186-14.409-32.186-32.185,0-17.78,14.409-32.19,32.186-32.19,17.774,0,32.185,14.41,32.185,32.19z"/>
    <path id="path137" d="m71.061,35.427c0,17.717-14.362,32.078-32.078,32.078-17.718,0-32.079-14.361-32.079-32.078,0-17.721,14.361-32.083,32.079-32.083,17.716,0,32.078,14.362,32.078,32.083z"/>
    <path id="path139" d="m71.01,35.401c0,17.657-14.314,31.971-31.972,31.971s-31.972-14.313-31.972-31.971c0-17.662,14.313-31.976,31.972-31.976,17.657,0,31.972,14.314,31.972,31.976z"/>
    <path id="path141" d="m70.959,35.374c0,17.599-14.267,31.864-31.864,31.864-17.6,0-31.865-14.265-31.865-31.864,0-17.603,14.266-31.869,31.865-31.869,17.598,0,31.864,14.266,31.864,31.869z"/>
    <path id="path143" d="m70.908,35.348c0,17.54-14.219,31.757-31.758,31.757-17.54,0-31.757-14.218-31.757-31.757,0-17.544,14.217-31.762,31.757-31.762,17.539-1E-7,31.758,14.218,31.758,31.762z"/>
    <path id="path145" d="m70.857,35.321c0,17.48-14.171,31.65-31.65,31.65-17.481,0-31.651-14.169-31.651-31.65,0-17.485,14.169-31.656,31.651-31.656,17.479-1E-7,31.65,14.171,31.65,31.656z"/>
    <path id="path147" d="m70.808,35.294c0,17.422-14.124,31.544-31.545,31.544-17.422,0-31.543-14.122-31.543-31.544,0-17.426,14.122-31.548,31.543-31.548s31.545,14.123,31.545,31.548z"/>
    <path id="path149" d="m70.757,35.268c0,17.362-14.075,31.437-31.438,31.437s-31.437-14.074-31.437-31.437c0-17.367,14.074-31.441,31.437-31.441,17.362,1E-7,31.438,14.075,31.438,31.441z"/>
    <path id="path151" d="m70.706,35.242c0,17.303-14.027,31.329-31.331,31.329s-31.329-14.026-31.329-31.329c0-17.308,14.025-31.335,31.329-31.335s31.331,14.027,31.331,31.335z"/>
    <path id="path153" d="m70.655,35.215c0,17.245-13.979,31.223-31.224,31.223s-31.223-13.979-31.223-31.223c0-17.249,13.978-31.228,31.223-31.228,17.244-1E-7,31.224,13.979,31.224,31.228z"/>
    <path id="path155" d="m70.604,35.188c0,17.186-13.932,31.116-31.117,31.116-17.186,0-31.115-13.93-31.115-31.116,0-17.189,13.93-31.121,31.115-31.121,17.186,0,31.117,13.932,31.117,31.121z"/>
    <path id="path157" d="m70.538,35.149c0,17.089-13.854,30.942-30.943,30.942-17.09,0-30.942-13.853-30.942-30.942,0-17.094,13.852-30.948,30.942-30.948s30.943,13.854,30.943,30.948z"/>
    <path id="path159" d="m70.473,35.109c0,16.995-13.776,30.77-30.771,30.77s-30.77-13.775-30.77-30.77c0-16.998,13.775-30.774,30.77-30.774,16.994,1E-7,30.771,13.777,30.771,30.774z"/>
    <path id="path161" d="m70.406,35.069c0,16.898-13.699,30.596-30.598,30.596-16.898,0-30.595-13.698-30.595-30.596,0-16.902,13.697-30.601,30.595-30.601s30.598,13.699,30.598,30.601z"/>
    <path id="path163" d="m70.341,35.03c0,16.803-13.622,30.423-30.425,30.423s-30.423-13.62-30.423-30.423c0-16.807,13.62-30.428,30.423-30.428s30.425,13.622,30.425,30.428z"/>
    <path id="path165" d="m70.274,34.99c0,16.708-13.543,30.25-30.251,30.25-16.707,0-30.25-13.542-30.25-30.25,0-16.71,13.543-30.254,30.25-30.254,16.708,0,30.251,13.544,30.251,30.254z"/>
    <path id="path167" d="m70.208,34.95c0,16.612-13.466,30.078-30.078,30.078-16.61,0-30.075-13.466-30.075-30.078,0-16.615,13.465-30.082,30.075-30.082,16.612,0,30.078,13.467,30.078,30.082z"/>
    <path id="path169" d="m70.143,34.911c0,16.516-13.389,29.904-29.905,29.904-16.515,0-29.903-13.389-29.903-29.904,0-16.52,13.388-29.908,29.903-29.908,16.517,0,29.905,13.389,29.905,29.908z"/>
    <path id="path171" d="m70.076,34.871c0,16.42-13.311,29.731-29.731,29.731-16.419,0-29.729-13.311-29.729-29.731,0-16.424,13.311-29.735,29.729-29.735,16.421,0,29.731,13.311,29.731,29.735z"/>
    <path id="path173" d="m70.01,34.832c0,16.324-13.232,29.558-29.558,29.558-16.323,0-29.557-13.233-29.557-29.558,0-16.328,13.233-29.562,29.557-29.562,16.325-1E-7,29.558,13.233,29.558,29.562z"/>
    <path id="path175" d="m69.944,34.792c0,16.229-13.155,29.385-29.385,29.385-16.228,0-29.384-13.156-29.384-29.385,0-16.232,13.156-29.388,29.384-29.388,16.229,0,29.385,13.156,29.385,29.388z"/>
    <path id="path177" d="m69.878,34.752c0,16.133-13.077,29.212-29.212,29.212-16.131,0-29.209-13.08-29.209-29.212,0-16.137,13.078-29.215,29.209-29.215,16.135,1E-7,29.212,13.078,29.212,29.215z"/>
    <path id="path179" d="m69.812,34.712c0,16.037-13,29.039-29.039,29.039-16.036,0-29.037-13.002-29.037-29.039,0-16.041,13.001-29.042,29.037-29.042,16.039,0.0004,29.039,13.001,29.039,29.042z"/>
    <path id="path181" d="m69.746,34.673c0,15.941-12.923,28.866-28.865,28.866-15.94,0-28.864-12.924-28.864-28.866,0-15.945,12.924-28.869,28.864-28.869,15.942-1E-7,28.865,12.923,28.865,28.869z"/>
    <path id="path183" d="m69.68,34.633c0,15.846-12.845,28.692-28.691,28.692-15.845,0-28.69-12.847-28.69-28.692,0-15.85,12.846-28.695,28.69-28.695,15.847,0,28.691,12.846,28.691,28.695z"/>
    <path id="path185" d="m69.614,34.593c0,15.75-12.768,28.52-28.52,28.52-15.748,0-28.517-12.77-28.517-28.52,0-15.754,12.769-28.522,28.517-28.522,15.752,1E-7,28.52,12.768,28.52,28.522z"/>
    <path id="path187" d="m69.548,34.554c0,15.654-12.689,28.346-28.346,28.346-15.652,0-28.344-12.692-28.344-28.346,0-15.658,12.691-28.349,28.344-28.349,15.656,0,28.346,12.69,28.346,28.349z"/>
    <path id="path189" d="m69.359,34.488c0,15.469-12.54,28.011-28.011,28.011-15.467,0-28.009-12.542-28.009-28.011,0-15.473,12.542-28.014,28.009-28.014,15.471,0,28.011,12.541,28.011,28.014z"/>
    <path id="path191" d="m69.17,34.422c0,15.284-12.389,27.676-27.675,27.676-15.283,0-27.674-12.392-27.674-27.676,0-15.289,12.391-27.679,27.674-27.679,15.286,0,27.675,12.391,27.675,27.679z"/>
    <path id="path193" d="m68.981,34.356c0,15.099-12.239,27.341-27.34,27.341-15.098,0-27.339-12.242-27.339-27.341,0-15.103,12.242-27.344,27.339-27.344,15.101,0,27.34,12.241,27.34,27.344z"/>
    <path id="path195" d="m68.793,34.291c0,14.914-12.09,27.006-27.005,27.006-14.913,0-27.004-12.092-27.004-27.006,0-14.918,12.092-27.009,27.004-27.009,14.915,0,27.005,12.091,27.005,27.009z"/>
    <path id="path197" d="m68.604,34.225c0,14.729-11.939,26.67-26.67,26.67-14.728,0-26.669-11.941-26.669-26.67,0-14.733,11.941-26.674,26.669-26.674,14.73,0,26.67,11.941,26.67,26.674z"/>
    <path id="path199" d="m68.415,34.159c0,14.544-11.789,26.336-26.334,26.336-14.542,0-26.334-11.792-26.334-26.336,0-14.548,11.792-26.339,26.334-26.339,14.545,0,26.334,11.792,26.334,26.339z"/>
    <path id="path201" d="m68.227,34.093c0,14.358-11.639,26-25.999,26-14.358,0-26-11.642-26-26,0-14.363,11.642-26.004,26-26.004,14.36,0,25.999,11.641,25.999,26.004z"/>
    <path id="path203" d="m68.038,34.027c0,14.173-11.489,25.666-25.664,25.666-14.173,0-25.665-11.492-25.665-25.666,0-14.178,11.492-25.669,25.665-25.669,14.175,0,25.664,11.491,25.664,25.669z"/>
    <path id="path205" d="m67.85,33.961c0,13.989-11.34,25.33-25.329,25.33-13.988,0-25.33-11.341-25.33-25.33,0-13.993,11.342-25.334,25.33-25.334,13.989,0,25.329,11.342,25.329,25.334z"/>
    <path id="path207" d="m67.66,33.896c0,13.803-11.188,24.995-24.993,24.995-13.803,0-24.995-11.192-24.995-24.995,0-13.808,11.192-25,24.995-25,13.805,0,24.993,11.192,24.993,25z"/>
    <path id="path209" d="m67.472,33.83c0,13.618-11.039,24.66-24.658,24.66-13.618,0-24.66-11.042-24.66-24.66,0-13.623,11.042-24.665,24.66-24.665,13.619,1E-7,24.658,11.042,24.658,24.665z"/>
    <path id="path211" d="m67.237,33.736c0,13.356-10.827,24.185-24.185,24.185-13.356,0-24.186-10.829-24.186-24.185,0-13.361,10.83-24.191,24.186-24.191,13.357,1E-7,24.185,10.83,24.185,24.191z"/>
    <path id="path213" d="m67.002,33.642c0,13.095-10.615,23.711-23.711,23.711-13.094,0-23.711-10.616-23.711-23.711,0-13.1,10.617-23.716,23.711-23.716,13.096,0,23.711,10.617,23.711,23.716z"/>
    <path id="path215" d="m66.768,33.547c0,12.833-10.403,23.237-23.237,23.237-12.833,0-23.237-10.404-23.237-23.237,0-12.838,10.404-23.242,23.237-23.242,12.834,0,23.237,10.404,23.237,23.242z"/>
    <path id="path217" d="m66.533,33.453c0,12.572-10.191,22.763-22.764,22.763-12.571,0-22.763-10.191-22.763-22.763,0-12.576,10.191-22.768,22.763-22.768s22.764,10.191,22.764,22.768z"/>
    <path id="path219" d="m66.298,33.359c0,12.311-9.9795,22.289-22.29,22.289-12.309,0-22.288-9.978-22.288-22.289,0-12.314,9.9785-22.293,22.288-22.293,12.311,0,22.29,9.979,22.29,22.293z"/>
    <path id="path221" d="m66.063,33.265c0,12.049-9.7676,21.814-21.816,21.814s-21.813-9.7656-21.813-21.814c0-12.053,9.7656-21.819,21.813-21.819,12.049,0.000001,21.816,9.7666,21.816,21.819z"/>
    <path id="path223" d="m65.743,33.193c0,11.803-9.5684,21.371-21.372,21.371-11.802,0-21.369-9.5674-21.369-21.371,0-11.807,9.5674-21.375,21.369-21.375,11.804,0,21.372,9.5674,21.372,21.375z"/>
    <path id="path225" d="m65.423,33.122c0,11.557-9.3691,20.926-20.927,20.926-11.557,0-20.925-9.3691-20.925-20.926,0-11.562,9.3687-20.93,20.925-20.93,11.558,0,20.927,9.3687,20.927,20.93z"/>
    <path id="path227" d="m65.103,33.05c0,11.311-9.1699,20.482-20.481,20.482-11.312,0-20.481-9.1709-20.481-20.482,0-11.316,9.1699-20.486,20.481-20.486,11.312,0,20.481,9.1694,20.481,20.486z"/>
    <path id="path229" d="m64.782,32.979c0,11.065-8.9707,20.038-20.037,20.038-11.065,0-20.037-8.9727-20.037-20.038,0-11.07,8.9717-20.041,20.037-20.041,11.066,0,20.037,8.9707,20.037,20.041z"/>
   </g>
   <path id="path21" d="m2.9473,24.455c0-1.541,0.21973-2.624,0.6377-3.5879,0.69629-1.4346,1.4844-2.8174,2.3564-4.1416-0.22266,0.37598-0.35742,0.80664-0.35742,1.3115,0,3.3506,8.2012,7.7012,19.394,9.126,3.792,0.48438,13.832,1.8535,21.605,1.2129,15.689-1.2949,19.18-6.7744,19.18-10.339,0-0.97461-0.5293-2.3965-1.0566-3.2236,0.71094,0.94336,1.3828,1.9229,2.0039,2.9346,1.1992,2.0908,1.0488,2.9209,1.0488,3.2832,0,7.2754-13.541,12.024-22.602,14.5-23.244,6.348-42.21-2.301-42.21-11.075zm7.4157-10.197c0,3.2803,4.7754,8.5264,18.608,8.5264,8.2012,0,14.822-1.5879,19.82-3.251,8.0117-2.6621,11.979-5.917,11.836-8.3408-0.023-0.377-0.169-0.988-0.614-1.4723-1.78-1.5908-3.717-3.0117-5.785-4.2295,1.3672,0.79785,2.1406,1.7236,2.1406,2.7549,0,3.6143-8.8262,6.9258-20.356,7.2217-11.531,0.297-21.083-2.54-21.341-6.1467-0.086-1.1914,0.775-2.3672,2.406-3.4082-1.246,0.7705-2.439,1.6152-3.576,2.5274-3.208,2.6625-3.139,5.4725-3.139,5.8185zm30.015,42.358c-7.021,0.251-19.381-2.168-27.164-5.347-6.2658-2.561-12.465-7.541-13.13-12.293,0.075196,1.144,0.20411,2.273,0.38575,3.382,3.8418,20.95,30.229,19.753,34.776,19.249,33.192-3.682,36.05-17.854,36.485-20.653,0.071-0.584,0.129-1.17,0.172-1.762-0.586,3.731-6.197,16.518-31.525,17.424zm-25.239,4.778c-5.9574-2.463-10.078-6.557-11.735-9.547,1.5244,3.2344,3.5137,6.2114,5.8867,8.8345,7.7607,7.291,19.692,8.1738,25.17,8.1738,23.2,0,31.485-12.193,33.358-15.456,0.34766-0.65234,0.67383-1.3223,0.98242-2-3.6719,7.563-22.715,22.782-53.663,9.9946zm56.185-30.47c0-0.58106-0.07031-1.7344-0.3418-2.9199-0.19336-0.80176-0.41797-1.5898-0.66406-2.3691,0.43555,1.4648,0.36523,2.4893,0.36523,2.8838,0,1.7861-2.2188,12.707-24.029,14.691-1.887,0.17-15.744,0.385-27.792-2.662-8.013-2.027-16.06-5.946-17.579-11.387-0.2353-0.849-0.1328-1.632,0.0547-2.368-0.61133,2.1777-1.0225,4.4424-1.2139,6.7676,0.13965,5.7295,5.1133,12.409,14.23,15.284,10.409,3.2773,16.802,3.3828,31.941,0.01172,25.267-5.633,25.028-16.7,25.028-17.933z"/>
   <path id="path23" d="m45.157,35.531c0.61328-0.16797,1.2461-0.34668,1.8965-0.53516-2.791-0.59863-5.7559-0.92285-8.832-0.92285-5.835,0-11.277,1.1621-15.868,3.1689,6.583,0.91504,14.413,0.5791,22.804-1.7109zm-2.978-14.171c2.4512-0.53711,4.6562-1.1768,6.6133-1.8271,1.0703-0.35547,2.0645-0.72168,2.9902-1.0947-2.748-0.50391-5.1934-0.82129-6.8418-0.97168-6.2734-0.57129-15.612,1.2109-18.035,1.7119-0.74609,0.15332-4.1562,0.86035-8.3105,2.3086,0.97754,0.29004,2.0547,0.54102,3.2373,0.74316,3.7627-1.0566,7.6562-1.6543,11.353-1.6543,2.4473,0,5.5762,0.25977,8.9941,0.78418zm0.71875,21.932c-2.2891-0.01172-5.4023-0.10547-8.9111-0.38476-6.2227,0.72852-11.509,3.5039-14.518,7.3535,0.99609,0.23047,1.9736,0.42383,2.9453,0.58203,3.1729-3.4844,8.5361-5.7734,14.62-5.7734,4.4395,0,8.4961,1.2207,11.596,3.2324,1.209-0.30469,2.3535-0.62109,3.4355-0.94922-2.4727-1.8965-5.623-3.3184-9.168-4.0605zm20.417-15.359c1.8125-1.3398,3.2051-2.8242,3.918-4.457-0.87305-0.54004-1.8594-1.041-2.9238-1.5029-1.0586,1.3545-2.7891,2.6982-5.4941,3.8232,1.5898,0.64941,3.1035,1.3613,4.5,2.1367zm-7.9707,4.2354c1.9062-0.77441,3.752-1.6357,5.4102-2.583-1.7227-0.91894-3.7266-1.7539-6.0566-2.4629-2.25,0.55664-4.9316,0.99121-8.1152,1.2539-0.94727,0.07813-1.9258,0.12598-2.9258,0.15039,2.2266,0.42578,4.3555,0.99609,6.375,1.6641,1.9512,0.64453,3.7129,1.3057,5.3125,1.9775zm4.25,8.167c-1.6035,0.65039-3.4375,1.2344-5.5293,1.7188,1.5195,0.91797,2.8867,1.957,4.0703,3.0957,1.7051-0.73828,3.1895-1.5039,4.4824-2.2793-0.91211-0.90234-1.9219-1.748-3.0234-2.5352zm-47.042-16.347c-2.8145,1.3789-5.5713,3.0918-7.7813,5.1865,0.33594,0.42969,0.7168,0.85254,1.1416,1.2646,2.4188-2.138,5.4657-4.048,8.8407-5.607-0.774-0.27-1.51-0.552-2.201-0.844zm8.9658,17.175c-0.8916-0.18945-1.7793-0.39453-2.6553-0.61523-0.55859-0.14258-1.1172-0.29297-1.6738-0.45117-2.9199,2.0176-5.2334,4.457-6.7373,7.1719,0.92285,0.46289,1.9043,0.88281,2.9434,1.252,0.87207-1.5469,2.0273-2.9824,3.4561-4.2402,1.3457-1.1855,2.9189-2.2305,4.667-3.1172zm-10.081,14.76c0-1.7188,0.29785-3.418,0.87793-5.0391-0.9707-0.43359-1.9326-0.91992-2.8652-1.4531-0.62109,1.6504-0.95215,3.3809-0.95215,5.166,0,0.35156,0.015625,0.70117,0.042969,1.0469,0.95605,0.71875,1.9639,1.354,3.0029,1.9204-0.06934-0.54102-0.10645-1.0884-0.10645-1.6411zm19.567-28.038c-2.543-0.26562-4.6787-0.54883-6.0264-0.72168-0.875-0.11133-1.7305-0.24023-2.5664-0.38477-4.8438,1.5352-9.0928,3.8457-12.414,6.6123,0.67578,0.37305,1.3936,0.72852,2.1514,1.0635,4.8311-3.5137,11.432-5.9131,18.855-6.5693zm-10.106,35.616c-0.99219-0.31641-1.999-0.66016-3.0195-1.0371,0.81641,1.7461,2.0664,3.3418,3.6553,4.7266,1.3232,0.36523,2.6348,0.6543,3.9014,0.88086-1.9277-1.252-3.4863-2.8086-4.5371-4.5703zm49.574-37.361c-0.03711-0.12305-0.07617-0.24414-0.11328-0.36621,0.02734,0.09863,0.05274,0.19336,0.07422,0.28711,0.01367,0.02637,0.02734,0.05273,0.03906,0.0791zm-65.578,17.211c0.8926-2.301,2.3535-4.446,4.2744-6.365-0.6425-0.334-1.2617-0.682-1.8515-1.046-1.6885,1.85-2.9883,3.836-3.8213,5.885,0.4258,0.522,0.8926,1.031,1.3984,1.526zm59.834-5.791c0.85352,0.70898,1.5762,1.4141,2.1875,2.1094,0.88672-0.83398,1.5957-1.6523,2.1602-2.4336-0.42188-0.72363-0.91992-1.458-1.5117-2.1904-0.75586,0.83789-1.6875,1.6895-2.8359,2.5146zm-55.847,20.246c0.31055,1.3066,0.80371,2.5742,1.4453,3.7891,1.2803,1.0645,2.6514,1.9766,4.0752,2.7578-1.036-1.391-1.83-2.885-2.334-4.453-1.16-0.654-2.2232-1.359-3.1861-2.094zm41.919,8.586c1.6914-0.57031,3.2324-1.2188,4.6348-1.9121,0.53906-0.75781,0.99024-1.5527,1.3438-2.377-1.1719,0.58398-2.4219,1.1328-3.75,1.625-0.59961,0.95898-1.3496,1.8516-2.2285,2.6641zm3.2188-11.77c0.32617,0.86328,0.53711,1.7656,0.61914,2.6919,1.0508-0.39453,2.0352-0.80518,2.9629-1.2251-0.11914-0.83398-0.33398-1.6445-0.63281-2.4297-0.92773,0.34375-1.9082,0.66602-2.9492,0.96289zm6.4082-42.323c-1.6523-0.57324-3.6191-0.99902-5.8145-1.2852-2.5684,1.9648-7.75,3.5576-14.203,4.1855,4.0586,0.40527,9.002,1.1055,13.717,2.2061,3.5664-1.7217,5.6719-3.5254,6.3008-5.1064zm-45.443-1.9854c-1.6152,0.67969-3.0703,1.377-4.3105,2.0703-0.21777,0.66504-0.2832,1.2061-0.30176,1.54,1.5918-0.81934,3.4883-1.6592,5.6055-2.4727-0.43555-0.36426-0.77148-0.74414-0.99316-1.1377zm-12.456,21.397c-0.9326,1.289-1.6514,2.694-2.0781,4.225,0.11328,0.466,0.25488,0.936,0.42871,1.406,0.53909-1.53,1.4356-3.02,2.6211-4.441-0.3594-0.385-0.6846-0.782-0.9717-1.19zm1.3564,16.954c0-1.0293,0.11133-2.041,0.32422-3.0312-0.5214-0.485-1.0068-0.985-1.4491-1.49-0.3311,1.455-0.4209,2.927-0.2442,4.39,0.4727,0.93,1.002,1.795,1.5821,2.604-0.1397-0.817-0.2129-1.643-0.2129-2.473zm9.0693-29.97c3.796-1.725,8.455-3.1,13.951-3.671-1.8818-0.24414-3.6162-0.58008-5.1504-0.98926-3.6045,0.99609-6.9883,2.1914-9.9375,3.5664,0.32031,0.36914,0.69726,0.73535,1.1367,1.0937zm54.135,30.995c-0.19336-0.53906-0.41406-1.0703-0.66797-1.5918-1.1562,1.0547-2.5371,2.0957-4.1816,3.0703,0.25195,0.66211,0.45508,1.3418,0.60156,2.0332,1.7344-1.1621,3.127-2.3496,4.248-3.5117zm3.8809-7.6309c-0.3418,0.73242-0.7832,1.5332-1.3477,2.3711,0.14844,0.52539,0.24805,1.0312,0.31055,1.5195,0.58594-1.0176,0.97852-1.9492,1.248-2.7461-0.05273-0.35742-0.12305-0.74024-0.21094-1.1445zm0.02734-13.982c-0.08203-0.3418-0.16797-0.68262-0.26172-1.0215-0.04883-0.11914-0.10742-0.2373-0.16797-0.35352,0.15234,0.89551,0.11523,1.5264,0.11523,1.8164,0,0.58496-0.23828,2.1504-1.3242,4.0596,0.49805,0.57715,0.93359,1.1748,1.2969,1.7949,0.68945-1.7773,0.66797-3.0723,0.66797-3.4492,0-0.56934-0.06836-1.6865-0.32617-2.8467zm-51.607,30.112c0-1.5845,0.37793-3.106,1.0713-4.5122-0.89258-0.24414-1.7676-0.5-2.6182-0.76367-0.68164,1.4883-1.0518,3.0801-1.0518,4.7407,0,0.74609,0.0752,1.4805,0.2207,2.1953,0.88965,0.2793,1.7832,0.52148,2.6709,0.72852-0.19238-0.77344-0.29297-1.5723-0.29297-2.3887zm43.541-0.002c-0.0918,0.51758-0.21484,1.0273-0.36523,1.5293,2.9395-2.6094,4.541-5.0767,5.2441-6.3032,0.02734-0.04492,0.05078-0.0918,0.07422-0.13672-0.0078-0.08594-0.01758-0.17383-0.02734-0.26172-1.0957,1.6152-2.7461,3.4219-4.9258,5.1724zm-6.612-50.382c1.438,0.5859,2.75,1.3115,3.907,2.1953-0.057-0.0898-0.122-0.1787-0.2-0.2627-1.158-1.041-2.382-2.0078-3.672-2.8916-0.326-0.2031-0.667-0.3936-1.027-0.5713,0.533,0.4756,0.873,0.9873,0.992,1.5303zm-50.401,8.9623c-0.10059,0.1543-0.20312,0.30859-0.30273,0.46387,0.052734-0.06543,0.11133-0.13281,0.1709-0.2002,0.039063-0.09082,0.083984-0.17871,0.13184-0.26367zm58.979,4.3369c0.96289,0.50293,1.8398,1.042,2.6113,1.6191,0.16602-0.54785,0.25-1.1113,0.25-1.6914,0-0.35644,0.14648-1.1719-1.0059-3.207-0.61914-1.0166-1.2852-2-2-2.9473-0.0098-0.0098-0.01758-0.01953-0.02734-0.0293,0.52148,0.83203,1.0371,2.2285,1.0371,3.1895,0,0.92871-0.23828,1.9863-0.86523,3.0664zm-56.935,0.349c-0.45117-0.3418-0.84375-0.68457-1.1719-1.0283-1.5547,1.0723-2.8525,2.2197-3.8311,3.4355-0.00781,0.19141-0.011719,0.38867-0.011719,0.59473,0,0.38477,0.038086,0.76953,0.11035,1.1514,1.2002-1.3389,2.8369-2.7764,4.9043-4.1533zm-4.54,30.423c0.83691,1.7754,1.8145,3.4707,2.917,5.0728-0.5967-0.958-1.0918-1.954-1.4776-2.981-0.5927-0.731-1.0742-1.438-1.4394-2.092zm-2.1026-25.009c-0.22461,0.80762-0.42188,1.625-0.59277,2.4561,0.091797-0.31836,0.2334-0.66699,0.42285-1.0391-0.016602-0.49316,0.058594-0.96387,0.16992-1.417zm-1.0019,13.157c-0.10547-0.349-0.18457-0.697-0.2334-1.043,0.059566,0.879,0.14844,1.752,0.26954,2.614-0.05957-0.526-0.06934-1.049-0.03614-1.571z"/>
  </g>
 </g>
</svg>
