<?xml version="1.0" encoding="UTF-8" standalone="no"?>
<!-- Created with Inkscape (http://www.inkscape.org/) -->
<svg id="svg2985" xmlns:rdf="http://www.w3.org/1999/02/22-rdf-syntax-ns#" xmlns="http://www.w3.org/2000/svg" height="768px" width="1024px" version="1.1" xmlns:cc="http://creativecommons.org/ns#" xmlns:dc="http://purl.org/dc/elements/1.1/">
 <metadata id="metadata2990">
  <rdf:RDF>
   <cc:Work rdf:about="">
    <dc:format>image/svg+xml</dc:format>
    <dc:type rdf:resource="http://purl.org/dc/dcmitype/StillImage"/>
    <dc:title/>
   </cc:Work>
  </rdf:RDF>
 </metadata>
 <g id="layer1">
  <text id="text2995" style="letter-spacing:0px;word-spacing:0px;" font-weight="normal" xml:space="preserve" font-size="40px" font-stretch="normal" line-height="125%" font-variant="normal" y="714" x="338.14212" font-family="FreeSans" font-style="normal" fill="#000000"><tspan id="tspan2997" x="338.14212" y="714">Quality of Imaginary Ratings</tspan></text>
  <text id="text2999" style="letter-spacing:0px;word-spacing:0px;" font-weight="normal" xml:space="preserve" font-size="40px" font-stretch="normal" line-height="125%" font-variant="normal" y="361.45584" x="12.828427" font-family="FreeSans" font-style="normal" fill="#000000"><tspan id="tspan3001" x="12.828427" y="361.45584">Jobs</tspan></text>
  <path id="rect3007" fill="#000" d="m114,54,0,592,0,8,8,0,856,0,0-8-856,0,0-592-8,0z"/>
  <path id="path3128" stroke-linejoin="miter" d="m148.34,566.29c6.6244-39.322,21.194-76.842,32.203-114.76,7.6059-10.359,11.057,70.169,18.935,22.882,4.1767-10.776,14.328-60.673,16.366-50.231,2.9698,29.325,18.965,86.82,32.371,95.087,2.8785-14.905,22.664-56.628,25.608-18.63,7.137,15.668,5.8064,55.865,23.59,46.907,2.6204,11.945,5.5465,36.621,15.717,13.932,26.615-9.6328,13.163-59.541,24.874-83.821,1.9466-36.543,14.435-42.09,13.868-74.792,13.444-6.9426,21.031,45.589,27.698,5.6911,5.7067-13.178,14.379-35.816,22.351-20.035,9.6581-46.276,21.572-92.093,36.524-136.99,2.1857-26.902,12.819-19.345,14.808,3.1512,10.154,37.207,28.927-3.489,47.087-8.3841m193.84-176.2c-13.567,13.643,30.448,29.469-5.1794,19.228-28.597-9.9273-52.426,20.342-78.827,19.482,7.4501,12.845,44.325,24.2,9.7369,15.17-16.109,8.9481-63.154,2.4742-59.339,23.637,25.279,14.431,9.1517,9.4603-10.634,9.2888-20.163,6.7287-43.273,25.621-58.781,30.305,11.288,17.934,60.692,9.0246,29.162,36.263-9.076,8.7877-44.609,41.652-14.448,19.109,15.264-9.3878,50.043-49.217,10.074-43.912-14.17-4.9681-35.516-15.646-7.9549-15.334,21.98-18.774,46.927-29.288,76.054-22.48-18.441-8.3956-36.746-26.695-2.6784-24.793,18.196-10.733,44.69-4.6318,58.663-8.3453-10.037-7.4671-45.377-24.004-11.668-19.506,26.87-16.847,53.626-21.276,84.522-14.013-14.685-4.8958-31.749-29.826-4.2656-15.607,33.284-8.6608,71.28-6.5398,87.522,28.758,10.413,10.819,24.209,31.792,37.373,13.494,29.375-24.832,0.28068,24.259,14.849,21.451,25.735-11.091,34.758,21.799,4.7929,25.076-25.025,20.494-33.466,56.944-47.543,85.89,2.1597,30.303-40.71,76.876-58.069,34.394,7.1041-36.638-12.177-72.679-5.7466-108.8,10.018-37.372-13.947,15.807-15.22,26.841-17.608,12.733-0.83997,70.689-5.2566,25.835,3.2704-17.389,18.676-48.445,19.85-56.644-10.527,34.842,11.949,69.718,4.64,105.22-4.6746,43.047,60.997,28.565,57.574-8.1282,9.0242-34.178,27.15-64.807,42.702-96.254,17.166-2.5067,48.601-33.352,17.051-37.341-31.621,16.611,4.5425-42.346-26.283-22.598-37.943,30.091-48.394-61.21-93.539-44.21-16.628,1.2598-34.187,9.3922-49.131-1.477zm291.23,42.183zm-0.83531,2.7565zm-20.298,1.5036zm-1.1277,2.7565zm-26.897,3.4666c-36.367,1.2429,7.2155,37.324,10.776,6.2648-1.082-4.609-6.6156-6.4841-10.776-6.2648zm-0.54296,2.7983c27.451,9.2783-28.632,21.397-7.6796,0.96425l7.6796-0.96425zm-31.366,3.5501c-45.392,1.261,11.963,48.616,11.402,5.513-2.2626-3.9002-7.1357-5.4922-11.402-5.513zm-1.1694,2.7565c31.712,8.0392-26.755,33.481-12.796,2.9688l5.1526-1.8412zm-88.752,65.948zm2.2554,3.4666z" stroke="#000" stroke-linecap="butt" stroke-miterlimit="4" stroke-dasharray="none" stroke-width="4" fill="none"/>
 </g>
</svg>
