<?xml version="1.0" encoding="UTF-8" standalone="no"?>
<!-- Created with Inkscape (http://www.inkscape.org/) -->

<svg
   xmlns:dc="http://purl.org/dc/elements/1.1/"
   xmlns:cc="http://creativecommons.org/ns#"
   xmlns:rdf="http://www.w3.org/1999/02/22-rdf-syntax-ns#"
   xmlns:svg="http://www.w3.org/2000/svg"
   xmlns="http://www.w3.org/2000/svg"
   xmlns:sodipodi="http://sodipodi.sourceforge.net/DTD/sodipodi-0.dtd"
   xmlns:inkscape="http://www.inkscape.org/namespaces/inkscape"
   id="svg2"
   sodipodi:version="0.32"
   inkscape:version="0.48.2 r9819"
   width="1024"
   height="768"
   version="1.0"
   sodipodi:docname="Aiga_taxi.svg"
   inkscape:output_extension="org.inkscape.output.svg.inkscape">
  <metadata
     id="metadata7">
    <rdf:RDF>
      <cc:Work
         rdf:about="">
        <dc:format>image/svg+xml</dc:format>
        <dc:type
           rdf:resource="http://purl.org/dc/dcmitype/StillImage" />
      </cc:Work>
    </rdf:RDF>
  </metadata>
  <defs
     id="defs5">
</defs>
  <sodipodi:namedview
     inkscape:window-height="742"
     inkscape:window-width="1024"
     inkscape:pageshadow="2"
     inkscape:pageopacity="0.0"
     guidetolerance="10.0"
     gridtolerance="10.0"
     objecttolerance="10.0"
     borderopacity="1.0"
     bordercolor="#666666"
     pagecolor="#ffffff"
     id="base"
     width="566.434px"
     height="566.43px"
     inkscape:zoom="0.26498932"
     inkscape:cx="937.44738"
     inkscape:cy="262.99403"
     inkscape:window-x="0"
     inkscape:window-y="0"
     inkscape:current-layer="svg2"
     showgrid="false"
     showguides="true"
     inkscape:guide-bbox="true"
     inkscape:window-maximized="0" />
  <rect
     style="fill:#ffff00;stroke:#000000;stroke-width:43.80381775000000033;stroke-linejoin:round;stroke-miterlimit:4;stroke-dasharray:none"
     id="rect3755"
     width="499.35611"
     height="499.35611"
     x="383.88962"
     y="-340.18771"
     transform="matrix(0.70710678,0.70710678,-0.70710678,0.70710678,0,0)" />
  <path
     style="fill:#000000;fill-rule:evenodd;stroke:none"
     d="m 396.7232,252.56392 c -6.63713,1.01126 -7.92964,3.66691 -8.05965,8.2905 l 0,13.66361 -30.24463,0.44076 c -11.43105,-0.40441 -21.27355,3.29696 -27.34824,16.58104 l -21.95412,54.88532 c -15.98064,4.40586 -22.92882,16.01963 -23.2974,25.54319 l 0,71.90713 21.07261,0 0,24.19991 c -1.02129,23.06222 36.78743,23.98394 37.63266,-0.20988 l 0.44076,-23.75916 136.72008,0 0.44076,23.75916 c 0.84521,24.19382 38.65392,23.2721 37.63265,0.20988 l 0,-24.19991 21.05161,0 0,-71.90713 c -0.36857,-9.52356 -7.31675,-21.13733 -23.2974,-25.54319 l -21.95413,-54.88532 c -6.07467,-13.28408 -15.89616,-16.98545 -27.32723,-16.58104 l -30.24464,-0.44076 0,-13.66361 c -0.13,-4.62359 -1.42252,-7.27924 -8.05963,-8.2905 l -33.20406,0 z m -35.78565,41.45257 c 0.9561,-0.005 1.93727,0.0214 2.9594,0.063 l 99.17139,0.31485 c 9.07577,-0.21174 12.93142,-0.0174 16.79093,8.56334 l 15.80444,42.586 -164.48806,-0.23088 15.61556,-41.4106 c 2.43534,-8.29321 7.45354,-9.84904 14.14634,-9.88566 z m -34.54732,72.80963 c 9.83513,0 17.81938,7.96324 17.81938,17.79838 0,9.83513 -7.98425,17.81937 -17.81938,17.81937 -9.83514,0 -17.79838,-7.98424 -17.79838,-17.81937 0,-9.83514 7.96324,-17.79838 17.79838,-17.79838 z m 174.83546,0 c 9.83513,0 17.81937,7.96324 17.81937,17.79838 0,9.83513 -7.98424,17.81937 -17.81937,17.81937 -9.83513,0 -17.79838,-7.98424 -17.79838,-17.81937 0,-9.83514 7.96325,-17.79838 17.79838,-17.79838 z"
     id="path2256"
     inkscape:connector-curvature="0" />
  <g
     id="g3925"
     transform="matrix(2.7464026,2.0120534,-2.0120534,2.7464026,1191.8148,1050.447)">
    <g
       id="g4042">
      <path
         sodipodi:nodetypes="ccccccccccccccccccccccccccccccccccccccc"
         style="fill:#000000;stroke:none"
         d="m -256.42933,-78.141526 -10.5,14.875004 2,1.34375 8.5,-12.718754 0,12.718754 -8.5,0 -3.53125,0 0,1.875 12,0 0,22.125 -2,0 0,1.46875 8.1875,0 0,10.49999 3.59375,0 0,-15.28124 8.21875,0 0,-1.46875 -2,0 0,-17.34375 12,0 0,-1.875 -3.53125,0 -8.53125,0 0,-12.718754 8.53125,12.718754 2,-1.3125 -10.53125,-14.906254 c 0,0 -5.07665,0 -15.90625,0 z m 3.5625,19.281254 2.59375,0 0,20.9375 -2.59375,0 z m 6.1875,0 2.625,0 0,16.15625 -2.625,0 z"
         id="path104"
         inkscape:connector-curvature="0" />
      <path
         inkscape:connector-curvature="0"
         id="path4026"
         d="m -238.62546,-97.309505 c -2.94062,-1.697772 -6.73153,-0.682 -8.42931,2.258639 -1.1721,2.030131 -1.04778,4.455182 0.10633,6.320087 l -0.87557,1.516531 5.01901,2.89772 0.89641,-1.55264 c 2.18863,0.06502 4.33356,-1.00173 5.50566,-3.031861 1.69712,-2.939483 0.71812,-6.710704 -2.22251,-8.408476 z"
         style="fill:#000000;stroke:none"
         sodipodi:nodetypes="ssccccss" />
      <path
         transform="matrix(0.3290846,-0.24109202,0.24109202,0.3290846,-437.50012,-66.077834)"
         inkscape:connector-curvature="0"
         id="path4036"
         d="m 388.69491,239.05831 c 0.102,-3.99818 -1.99653,-8.12885 -4.71717,-10.8495 -30.07761,-30.0776 25.0377,-9.47104 4.71717,10.8495"
         style="fill:#ff0000;stroke:none" />
      <path
         sodipodi:nodetypes="cscc"
         transform="matrix(0.3290846,-0.24109202,0.24109202,0.3290846,-437.50012,-66.077834)"
         inkscape:connector-curvature="0"
         id="path4040"
         d="m 381.14744,189.99973 c -4.69247,-2.34624 16.40014,-7.76739 20.75555,0.94343 7.49393,14.98786 2.93285,37.65534 -2.35859,50.00202 -3.83346,-20.45226 -3.18012,-42.59087 -18.39696,-50.94545 z"
         style="fill:#ff0000;stroke:none" />
    </g>
  </g>
</svg>
