<?xml version="1.0" encoding="UTF-8" standalone="no"?>
<!-- Created with Inkscape (http://www.inkscape.org/) -->
<svg id="svg2985" xmlns:rdf="http://www.w3.org/1999/02/22-rdf-syntax-ns#" xmlns="http://www.w3.org/2000/svg" height="768px" width="1024px" version="1.1" xmlns:cc="http://creativecommons.org/ns#" xmlns:xlink="http://www.w3.org/1999/xlink" xmlns:dc="http://purl.org/dc/elements/1.1/">
 <defs id="defs2987">
  <linearGradient id="linearGradient2449" y2="425.4" gradientUnits="userSpaceOnUse" x2="-395.85" gradientTransform="matrix(-0.5914583,0,0,0.5914584,210.0216,142.2324)" y1="274.71" x1="-344.15">
   <stop id="stop2557" stop-color="#FFF" offset="0"/>
   <stop id="stop2559" stop-color="#FFF" stop-opacity="0" offset="1"/>
  </linearGradient>
 </defs>
 <metadata id="metadata2990">
  <rdf:RDF>
   <cc:Work rdf:about="">
    <dc:format>image/svg+xml</dc:format>
    <dc:type rdf:resource="http://purl.org/dc/dcmitype/StillImage"/>
    <dc:title/>
   </cc:Work>
  </rdf:RDF>
 </metadata>
 <g id="layer2">
  <path id="path4394" fill="#b3b3b3" d="M712,12.125c-165.62,0-299.88,122.62-299.88,273.88,0,16.79,1.68,33.2,4.85,49.16l-54.97,152.84,111.91-35.5c54.81,65.28,141.06,107.38,238.09,107.38,165.62,0,299.9-122.62,299.9-273.88s-134.28-273.88-299.9-273.88z"/>
  <path id="path5176" fill="#808080" d="M722,510l-66.47,58.38c-106.3,9.35-185.53,45.47-185.53,88.62,0,50.26,107.45,91,240,91s240-40.74,240-91c0-40.22-68.83-74.35-164.25-86.38l-63.75-60.62z"/>
  <g id="text5172" style="letter-spacing:0px;word-spacing:0px;" font-weight="normal" font-size="40px" font-style="normal" font-stretch="normal" line-height="125%" font-variant="normal" font-family="FreeSans" fill="#000">
   <path id="path3214" d="m620.13,710-14.688,0-24.192-86.256-23.472,86.256-14.688,0-26.928-104.98,14.976,0,19.728,85.248,23.328-85.248,14.4,0,23.904,85.248,19.296-85.248,14.976,0l-26.65,104.98"/>
   <path id="path3216" d="m701.27,616.83,0,93.168-13.392,0,0-93.168-34.56,0,0-11.808,82.368,0,0,11.808-34.416,0"/>
   <path id="path3218" d="m765.04,662.19,0,47.808-13.392,0,0-104.98,70.416,0,0,11.808-57.024,0,0,33.552,50.112,0,0,11.808-50.112,0"/>
   <path id="path3220" d="m899.76,630.94c-0.00007,4.4161-0.91207,8.4001-2.736,11.952-1.7281,3.5521-3.8401,6.5281-6.336,8.928-2.4961,2.3041-5.0401,4.56-7.632,6.768-2.496,2.112-4.656,4.56-6.48,7.344-1.728,2.688-2.592,5.568-2.592,8.64v6.768h-12.96v-7.92c-0.00003-3.552,0.86396-6.912,2.592-10.08,1.824-3.168,3.984-5.904,6.48-8.208,2.592-2.3039,5.136-4.6079,7.632-6.912,2.496-2.3039,4.6079-4.8959,6.336-7.776,1.8239-2.9759,2.7359-6.1439,2.736-9.504-0.00006-4.8959-1.6801-8.8319-5.04-11.808-3.36-3.0719-7.824-4.6079-13.392-4.608-7.008,0.0001-11.856,1.9681-14.544,5.904-2.688,3.9361-4.032,9.4561-4.032,16.56h-12.24c-0.00001-11.04,2.64-19.392,7.92-25.056,5.376-5.7599,13.248-8.6399,23.616-8.64,9.312,0.00011,16.752,2.4961,22.32,7.488,5.5679,4.9921,8.3519,11.712,8.352,20.16m-25.776,64.08,0,14.976-12.96,0,0-14.976,12.96,0"/>
  </g>
 </g>
 <g id="layer1">
  <g id="g3574" transform="matrix(1.2562971,0,0,1.2562971,495.4225,110.3435)">
   <path id="path3530" fill="#44546b" d="m335.22,52.113c2.861-3.52,4.373-7.73,4.373-12.181,0-3.299-0.787-6.439-2.352-9.367-1.664-3.092-4.006-5.537-6.967-7.265-2.883-1.679-6.107-2.529-9.584-2.529-2.271,0-4.551,0.388-6.813,1.158-1.475-0.742-3.139-1.158-4.9-1.158h-4.377c-1.451,0-2.891,0.288-4.23,0.851-4.305,1.809-8.416,2.845-12.223,3.08-0.143,0.008-0.279,0.031-0.418,0.045v-13.823c0-6.035-4.89-10.924-10.92-10.924h-4.52c-1.33,0-2.65,0.244-3.896,0.719-4.885,1.866-9.619,2.965-14.07,3.265-5.732,0.391-10.184,5.153-10.184,10.897v7.168c-2.734-0.844-5.641-1.28-8.686-1.28-0.658,0-1.32,0.022-1.977,0.066v-9.911c0-6.034-4.889-10.922-10.922-10.922h-4.576c-1.445,0-2.879,0.289-4.213,0.844-4.137,1.734-8.727,2.788-13.639,3.141-5.717,0.408-10.143,5.166-10.143,10.895v6.877c-2.381-0.653-4.895-0.988-7.514-0.988-4.125,0-8.219,0.732-12.172,2.175-1.176,0.429-2.363,0.942-3.555,1.528-1.607-0.948-3.393-1.738-5.344-2.369-2.762-0.885-5.66-1.334-8.613-1.334-3.67,0-7.315,0.576-10.867,1.719-1.695-1.089-3.717-1.719-5.881-1.719h-4.387c-1.502,0-2.99,0.311-4.369,0.91-3.73,1.629-7.91,2.67-12.426,3.096-0.829,0.077-1.623,0.255-2.383,0.506-0.205-0.237-0.412-0.47-0.639-0.691-2.042-2.002-4.787-3.124-7.643-3.124-0.072,0-0.145,0-0.214,0.003l-21.837,0.418c-1.133,0.023-2.22,0.215-3.242,0.555-1.405-0.636-2.938-0.976-4.506-0.976-0.074,0-0.146,0-0.215,0.003l-21.75,0.418c-0.772,0.018-1.523,0.113-2.248,0.28-0.784-0.179-1.597-0.282-2.435-0.282h-4.072v-5.049c0-6.031-4.889-10.92-10.92-10.92h-8.987c-5.513,0-10.161,4.105-10.839,9.576-0.32,2.609-0.835,3.914-1.112,4.461-0.411,0.811-0.935,1.479-1.603,2.049-0.667,0.566-1.563,1.035-2.666,1.395-4.5,1.456-7.548,5.652-7.548,10.384v8.942c0,4.643,2.896,8.61,6.983,10.19v11.971c0,4.326,0.553,7.813,1.683,10.654,1.263,3.168,3.376,6.043,6.272,8.533,2.655,2.293,5.821,4.051,9.401,5.223,3.311,1.092,7.036,1.645,11.075,1.645,3.364,0,6.587-0.354,9.583-1.055,2.968-0.693,6.078-1.816,9.509-3.438,0.794-0.373,1.51-0.852,2.173-1.387,2.121,1.832,4.584,3.33,7.387,4.418,3.135,1.217,6.538,1.834,10.113,1.834,3.786,0,7.579-0.639,11.299-1.904,1.598,0.875,3.403,1.346,5.253,1.346,0.1,0,0.197-0.002,0.297-0.006l126.92-0.555c1.627,0,3.205-0.363,4.633-1.031,0.299,0.119,0.594,0.232,0.891,0.336,3.334,1.205,6.84,1.814,10.416,1.814,5.115,0,9.908-1.23,14.223-3.605,1.889,1.555,4.305,2.49,6.943,2.49l62.488-0.004c1.883,0,3.66-0.479,5.205-1.32,2.684,1.352,5.654,2.066,8.822,2.066,5.305,0,10.092-1.984,13.844-5.736,3.754-3.754,5.738-8.541,5.738-13.844,0-5.301-1.984-10.086-5.742-13.854-2.871-2.866-6.35-4.688-10.195-5.393z"/>
   <path id="path3532" fill="#edf0f4" d="m32.759,16.836v15.97h14.993v9.919h-14.993v16.203c0,3.662,0.193,6.014,0.583,7.055,0.387,1.039,1.11,1.869,2.164,2.49,1.398,0.838,2.996,1.258,4.796,1.258,3.198,0,6.38-1.041,9.545-3.121v9.965c-2.701,1.271-5.146,2.166-7.333,2.678-2.189,0.512-4.557,0.768-7.101,0.768-2.887,0-5.441-0.365-7.66-1.094-2.22-0.73-4.112-1.771-5.68-3.119-1.568-1.352-2.655-2.787-3.259-4.309-0.605-1.52-0.908-3.725-0.908-6.611v-22.163h-6.983v-8.941c2.482-0.807,4.61-1.962,6.378-3.469,1.771-1.505,3.19-3.313,4.26-5.425,1.072-2.109,1.809-4.795,2.211-8.054h8.987z"/>
   <path id="path3534" fill="#edf0f4" d="m52.643,32.806,21.744-0.419v30.218c0,2.143,0.131,3.57,0.396,4.283,0.263,0.715,0.745,1.297,1.444,1.746,0.698,0.451,1.575,0.676,2.63,0.676,1.552,0,3.198-0.373,4.936-1.117,0.683-0.311,2.499-1.412,5.448-3.307v-18.158c0-1.583-0.125-2.669-0.375-3.259s-0.61-1.016-1.078-1.281c-0.469-0.262-1.375-0.396-2.719-0.396h-2.719v-8.986l21.839-0.419v33.339c0,1.738,0.099,2.832,0.302,3.281,0.201,0.451,0.527,0.775,0.979,0.979,0.449,0.201,1.529,0.303,3.235,0.303h2.468v8.984l-20.438,0.559v-5.492c-2.729,2.018-5.47,3.531-8.229,4.539s-5.533,1.514-8.321,1.514c-2.234,0-4.286-0.367-6.162-1.096s-3.449-1.707-4.719-2.934c-1.271-1.225-2.216-2.66-2.835-4.305-0.619-1.646-0.93-3.756-0.93-6.332v-19.185c0-1.768-0.102-2.886-0.304-3.351-0.205-0.465-0.542-0.814-1.009-1.048-0.47-0.232-1.469-0.35-3-0.35h-2.579v-8.986z"/>
   <path id="path3536" fill="#edf0f4" d="m136.04,31.688v6.192c2.699-2.078,5.443-3.632,8.234-4.656,2.793-1.025,5.629-1.536,8.514-1.536,1.831,0,3.592,0.272,5.281,0.815,1.691,0.543,3.102,1.25,4.232,2.119,1.133,0.869,2.164,2.049,3.096,3.538,3.008-2.298,5.893-3.95,8.654-4.96,2.76-1.008,5.566-1.513,8.42-1.513,2.482,0,4.73,0.45,6.748,1.35,2.014,0.901,3.652,2.119,4.908,3.657,1.256,1.535,2.068,3.203,2.441,5.005,0.248,1.116,0.373,2.747,0.373,4.887v19.275c0,1.584,0.117,2.609,0.35,3.074s0.629,0.824,1.186,1.07c0.402,0.188,1.537,0.281,3.4,0.281h2.047v8.984h-27.145v-8.984c2,0,3.262-0.102,3.785-0.303,0.523-0.203,0.908-0.531,1.154-0.98,0.244-0.451,0.369-1.438,0.369-2.963v-16.93c0-1.959-0.133-3.258-0.396-3.894-0.266-0.637-0.779-1.182-1.543-1.633-0.762-0.451-1.674-0.676-2.73-0.676-1.215,0-2.523,0.272-3.926,0.815-1.398,0.545-3.471,1.733-6.211,3.569v18.236c0,1.805,0.123,2.938,0.369,3.404s0.678,0.824,1.293,1.072c0.369,0.156,1.584,0.25,3.646,0.281v8.984h-25.469v-8.984c2.109-0.031,3.398-0.141,3.863-0.326,0.467-0.186,0.822-0.527,1.07-1.023,0.25-0.494,0.373-1.625,0.373-3.393v-15.939c0-2.447-0.219-4.074-0.653-4.88-0.685-1.209-1.899-1.813-3.643-1.813-0.872,0-1.792,0.109-2.757,0.326-0.965,0.216-1.914,0.557-2.85,1.021-0.497,0.248-1.775,1.055-3.828,2.417l-1.076,0.697v18.174c0,1.736,0.095,2.82,0.281,3.256,0.186,0.432,0.551,0.789,1.094,1.068,0.542,0.277,1.481,0.418,2.816,0.418h1.256v8.984h-27.191v-8.984h1.816c1.925,0,3.127-0.102,3.607-0.303,0.482-0.201,0.847-0.559,1.096-1.068,0.248-0.512,0.372-1.635,0.372-3.371v-20.912h-6.892v-8.986c5.693-0.534,10.953-1.854,15.775-3.958h4.391z"/>
   <path id="path3538" fill="#edf0f4" d="M222.55,10.922v25.098c2.578-1.613,4.867-2.74,6.869-3.377s4.01-0.954,6.029-0.954c5.277,0,9.639,1.925,13.084,5.774,4.004,4.469,6.006,10.429,6.006,17.878,0,7.543-2.012,13.604-6.035,18.182-4.023,4.58-8.895,6.869-14.611,6.869-2.332,0-4.568-0.391-6.711-1.166-2.146-0.773-4.383-2.063-6.713-3.863l-2.516,3.91h-10.25v-55.407h-6.799v-8.985c6.129-0.439,11.82-1.76,17.078-3.959h4.573zm0,35.201v14.156c0,2.854,0.225,4.818,0.676,5.889,0.449,1.07,1.242,1.965,2.375,2.676,1.133,0.715,2.459,1.072,3.98,1.072,2.576,0,4.625-1.055,6.146-3.166,1.926-2.639,2.887-6.287,2.887-10.943,0-4.377-0.822-7.758-2.469-10.148-1.334-1.925-3.088-2.887-5.26-2.887-1.211,0-2.508,0.278-3.889,0.838-1.38,0.557-2.862,1.395-4.446,2.513z"/>
   <path id="path3540" fill="#edf0f4" d="m276.8,10.922v54.476c0,1.834,0.076,2.918,0.234,3.262,0.215,0.619,0.697,1.07,1.441,1.348,0.467,0.188,1.723,0.281,3.773,0.281h1.629v8.984h-28.822v-8.984h1.77c1.863,0,3.057-0.117,3.586-0.35,0.527-0.232,0.914-0.605,1.164-1.117,0.248-0.514,0.371-1.654,0.371-3.424v-41.532h-6.891v-8.985c5.557-0.377,11.299-1.697,17.229-3.959h4.516z"/>
   <path id="path3542" fill="#edf0f4" d="m308.98,31.688v6.751c2.488-2.606,4.645-4.384,6.463-5.33,1.822-0.947,3.57-1.421,5.252-1.421,1.525,0,2.885,0.349,4.084,1.048,1.197,0.697,2.146,1.699,2.846,3.002,0.701,1.305,1.053,2.701,1.053,4.191,0,1.957-0.648,3.725-1.938,5.309-1.293,1.582-3.105,2.375-5.439,2.375-0.623,0-1.176-0.047-1.658-0.141-0.482-0.092-1.5-0.402-3.057-0.932-0.811-0.248-1.479-0.371-2.008-0.371-0.809,0-2.146,0.512-4.014,1.535v18.207c0,1.553,0.115,2.561,0.348,3.025,0.234,0.465,0.613,0.809,1.143,1.025,0.527,0.217,1.676,0.326,3.445,0.326h2.049v8.984h-28.73v-8.984h2.393c1.719,0,2.789-0.094,3.211-0.281,0.422-0.186,0.742-0.51,0.961-0.977s0.328-1.504,0.328-3.119v-21.371h-6.893v-8.939c5.061-0.31,10.322-1.613,15.785-3.911h4.376z"/>
   <path id="path3544" fill="#edf0f4" d="m331.57,62.697c2.391,0,4.432,0.848,6.125,2.539,1.691,1.691,2.537,3.734,2.537,6.123,0,2.391-0.846,4.43-2.537,6.123-1.693,1.691-3.734,2.537-6.125,2.537-2.42,0-4.477-0.846-6.168-2.537-1.691-1.693-2.537-3.732-2.537-6.123,0-2.389,0.846-4.432,2.537-6.123s3.748-2.539,6.168-2.539z"/>
   <path id="path3546" fill="none" d="m181.69,45.219c-0.266-0.637-0.779-1.182-1.543-1.633-0.762-0.451-1.674-0.676-2.73-0.676-1.215,0-2.523,0.272-3.926,0.815-1.398,0.545-3.471,1.733-6.211,3.569v4.486c4.885-0.549,9.82-1.075,14.807-1.58v-1.088c0-1.958-0.133-3.257-0.397-3.893z"/>
   <path id="path3548" fill="none" d="m151.77,44.723c-0.685-1.209-1.899-1.813-3.643-1.813-0.872,0-1.792,0.109-2.757,0.326-0.965,0.216-1.914,0.557-2.85,1.021-0.497,0.248-1.775,1.055-3.828,2.417l-1.076,0.697v8.076c4.878-0.659,9.813-1.299,14.807-1.916v-3.93c0.001-2.445-0.218-4.072-0.653-4.878z"/>
   <path id="path3550" fill="none" d="m230.89,42.771c-1.211,0-2.508,0.278-3.889,0.838-1.381,0.559-2.863,1.396-4.447,2.514v0.58c4.523-0.325,9.085-0.628,13.677-0.912-0.028-0.043-0.052-0.091-0.081-0.133-1.335-1.926-3.088-2.887-5.26-2.887z"/>
   <path id="path3552" fill="#e0e1e5" d="m35.414,80.019c2.544,0,4.911-0.256,7.101-0.768,2.187-0.512,4.632-1.406,7.333-2.678v-6.076c-9.312,1.96-18.267,3.971-26.856,6.016,1.375,1.005,2.955,1.817,4.763,2.412,2.218,0.729,4.771,1.094,7.659,1.094z"/>
   <path id="path3554" fill="#e0e1e5" d="m63.299,76.363c1.27,1.227,2.843,2.205,4.719,2.934s3.928,1.096,6.162,1.096c2.788,0,5.563-0.506,8.321-1.514s5.5-2.521,8.229-4.539v5.492l20.441-0.559v-8.984h-2.468c-1.706,0-2.786-0.102-3.235-0.303-0.451-0.203-0.777-0.527-0.979-0.979-0.203-0.449-0.302-1.543-0.302-3.281v-5.317c-5.06,0.819-10.039,1.66-14.947,2.518v1.96c-2.949,1.895-4.765,2.996-5.448,3.307-1.738,0.744-3.383,1.117-4.936,1.117-1.055,0-1.932-0.225-2.63-0.676-0.699-0.449-1.181-1.031-1.444-1.746-0.112-0.302-0.199-0.739-0.263-1.297-5.031,0.943-9.979,1.903-14.833,2.88,0.147,1.364,0.397,2.574,0.778,3.587,0.619,1.644,1.564,3.079,2.835,4.304z"/>
   <path id="path3556" fill="#e0e1e5" d="m122.39,68.917c-0.249,0.51-0.613,0.867-1.096,1.068-0.48,0.201-1.683,0.303-3.607,0.303h-1.816v8.984h27.191v-8.984h-1.256c-1.335,0-2.274-0.141-2.816-0.418-0.543-0.279-0.908-0.637-1.094-1.068-0.187-0.436-0.281-1.52-0.281-3.256v-10.097c-5.014,0.677-9.964,1.376-14.853,2.094v8.004c0,1.736-0.124,2.859-0.372,3.37z"/>
   <path id="path3558" fill="#e0e1e5" d="m182.08,66.042c0,1.525-0.125,2.512-0.369,2.963-0.246,0.449-0.631,0.777-1.154,0.98-0.523,0.201-1.785,0.303-3.785,0.303v8.984h27.145v-8.984h-2.047c-1.863,0-2.998-0.094-3.4-0.281-0.557-0.246-0.953-0.605-1.186-1.07s-0.35-1.49-0.35-3.074v-17.084c-4.998,0.451-9.951,0.926-14.854,1.422v15.841z"/>
   <path id="path3560" fill="#e0e1e5" d="m152.42,65.546c0,1.768-0.123,2.898-0.373,3.393-0.248,0.496-0.604,0.838-1.07,1.023-0.465,0.186-1.754,0.295-3.863,0.326v8.984h25.469v-8.984c-2.063-0.031-3.277-0.125-3.646-0.281-0.615-0.248-1.047-0.605-1.293-1.072s-0.369-1.6-0.369-3.404v-13.75c-5.006,0.563-9.957,1.146-14.854,1.752v12.013z"/>
   <path id="path3562" fill="#e0e1e5" d="m217.95,79.273,2.516-3.91c2.33,1.801,4.566,3.09,6.713,3.863,2.143,0.775,4.379,1.166,6.711,1.166,5.717,0,10.588-2.289,14.611-6.869,4.023-4.578,6.035-10.639,6.035-18.182,0-3.908-0.566-7.396-1.668-10.485-5.597,0.281-11.144,0.593-16.644,0.934,1.59,2.383,2.388,5.716,2.388,10.016,0,4.656-0.961,8.305-2.887,10.943-1.521,2.111-3.57,3.166-6.146,3.166-1.521,0-2.848-0.357-3.98-1.072-1.133-0.711-1.926-1.605-2.375-2.676-0.451-1.07-0.676-3.035-0.676-5.889v-13.575c-4.994,0.358-9.943,0.742-14.852,1.146v31.424h10.254z"/>
   <path id="path3564" fill="#e0e1e5" d="m261.58,68.822c-0.25,0.512-0.637,0.885-1.164,1.117-0.529,0.232-1.723,0.35-3.586,0.35h-1.77v8.984h28.822v-8.984h-1.629c-2.051,0-3.307-0.094-3.773-0.281-0.744-0.277-1.227-0.729-1.441-1.348-0.158-0.344-0.234-1.428-0.234-3.262v-21.539c-4.985,0.167-9.939,0.354-14.854,0.569v20.97c0,1.769-0.123,2.91-0.371,3.424z"/>
   <path id="path3566" fill="#e0e1e5" d="m295.71,44.539v21.373c0,1.615-0.109,2.652-0.328,3.119s-0.539,0.791-0.961,0.977c-0.422,0.188-1.492,0.281-3.211,0.281h-2.393v8.984h28.73v-8.984h-2.049c-1.77,0-2.918-0.109-3.445-0.326-0.529-0.217-0.908-0.561-1.143-1.025-0.232-0.465-0.348-1.473-0.348-3.025v-18.208c1.867-1.023,3.205-1.535,4.014-1.535,0.529,0,1.197,0.123,2.008,0.371,1.557,0.529,2.574,0.84,3.057,0.932,0.482,0.094,1.035,0.141,1.658,0.141,2.334,0,4.146-0.793,5.439-2.375,0.561-0.689,0.993-1.416,1.311-2.175-13.29-0.03-26.375,0.122-39.232,0.443v1.033h6.893z"/>
   <path id="path3568" fill="#e0e1e5" d="m331.57,80.019c2.391,0,4.432-0.846,6.125-2.537,1.691-1.693,2.537-3.732,2.537-6.123,0-2.389-0.846-4.432-2.537-6.123-1.693-1.691-3.734-2.539-6.125-2.539-2.42,0-4.477,0.848-6.168,2.539s-2.537,3.734-2.537,6.123c0,2.391,0.846,4.43,2.537,6.123,1.692,1.691,3.748,2.537,6.168,2.537z"/>
  </g>
  <g id="g2989" fill="#00aced" transform="matrix(0.23737602,0,0,-0.23737602,29.12765,735.65265)">
   <path id="path2991" fill="#00aced" d="M877,1126c-125-45-204-161-195-288l3-49-50,6c-182,23-341,101-476,232l-66,65-17-48c-36-107-13-220,62-296,40-42,31-48-38-23-24,8-45,14-47,11-7-7,17-98,36-134,26-50,79-99,137-128l49-23-58-1c-56,0-58-1-52-22,20-65,99-134,187-164l62-21-54-32c-80-46-174-72-268-74-45-1-82-5-82-8,0-10,122-66,193-88,213-65,466-37,656,74,135,79,270,236,333,388,34,81,68,229,68,300,0,46,3,52,59,107,33,32,64,67,70,77,10,19,9,19-42,2-85-30-97-26-55,19,31,32,68,90,68,107,0,3-15-2-32-11-18-10-58-25-88-34l-54-17-49,33c-27,18-65,38-85,44-51,14-129,12-175-4z"/>
  </g>
  <g id="g4337" transform="matrix(0.65107547,0,0,0.65107547,389.39323,124.39957)">
   <rect id="rect1942" transform="scale(-1,1)" fill-rule="evenodd" rx="35.488" ry="35.488" height="234.99" width="235.01" y="328.85" x="-619.15" fill="#d84fc8"/>
   <path id="path1950" d="m557.06,338.9-110.83,0c-29.337,0-52.955,23.81-52.955,53.385v108.13c0.9496,23.086,4.6023,8.4915,11.555-17.075,8.0806-29.713,34.396-55.683,66.445-75.146,24.461-14.855,51.841-24.341,101.68-25.244,28.265-0.51176,25.77-36.683-15.895-44.048z" fill-rule="evenodd" fill="url(#linearGradient2449)"/>
   <path id="path14777" d="m405.21,393.55,0.0306,9.0607,26.172,2.3774,49.497,59.599,1.5152,30.81c-1.3262,5.3549-5.5646,3.4294-8.5863,4.5457l-18.3,0.14793,0.17857,7.9026,81.521-0.68365v-7.6934l-24.004-0.17857c-3.0053,0.48412-2.7526-1.7468-3.0305-3.5355l-1.5152-29.294c0.37044-2.357,0.86949-4.714,4.0406-7.0711l47.477-37.881,22.223-4.0406,3.5049-7.0098h-73.889l1.1887,7.5149,21.213,2.0203c1.2679,1.0242,3.7716,0.95,1.0102,5.5558l-30.81,26.769c-1.6278,0.95545-2.8853,0.42968-4.0406-0.50508l-34.345-44.952c-2.5415-3.587-0.058-4.2428,3.0305-4.5457l22.223-1.0102v-7.5762l-86.307-0.3265z" fill="#FFF"/>
   <path id="path14779" d="m555.96,492.56,9.8214,6.0714-6.6071,11.607-10-6.25,6.7857-11.429z" fill="#FFF"/>
   <path id="path14781" d="m560.71,482.01,8.3338,5.3033,34.345-56.316-19.445-11.112-23.234,62.124z" fill="#FFF"/>
  </g>
  <g id="text4389" style="letter-spacing:0px;word-spacing:0px;" font-weight="normal" font-size="40px" font-style="normal" font-stretch="normal" line-height="125%" font-variant="normal" font-family="FreeSans" fill="#000">
   <path id="path3211" d="m750.85,275.31,0,10.08-29.808,0,0,29.808-10.08,0,0-29.808-29.808,0,0-10.08,29.808,0,0-29.808,10.08,0,0,29.808,29.808,0"/>
  </g>
 </g>
</svg>
