<?xml version="1.0" encoding="UTF-8" standalone="no"?>
<!-- Created with Inkscape (http://www.inkscape.org/) -->

<svg
   xmlns:dc="http://purl.org/dc/elements/1.1/"
   xmlns:cc="http://creativecommons.org/ns#"
   xmlns:rdf="http://www.w3.org/1999/02/22-rdf-syntax-ns#"
   xmlns:svg="http://www.w3.org/2000/svg"
   xmlns="http://www.w3.org/2000/svg"
   version="1.1"
   width="1024"
   height="768"
   id="svg2985">
  <defs
     id="defs2987">
    <mask
       id="mask3230">
      <g
         transform="translate(-4.0551299e-8,-5.0432289)"
         id="g3232">
        <rect
           width="217.08179"
           height="239.00209"
           x="584.77728"
           y="222.11357"
           transform="matrix(1.1887005,0,0,1.1887005,-974.34453,1222.4792)"
           id="rect3234"
           style="fill:#ffffff;fill-opacity:1;stroke:none" />
        <rect
           width="160.51324"
           height="111.01576"
           ry="0"
           x="587.60571"
           y="350.80701"
           transform="matrix(1.1887005,0,0,1.1887005,-974.34453,1222.4792)"
           id="rect3236"
           style="fill:#000000;fill-opacity:1;stroke:none" />
      </g>
    </mask>
  </defs>
  <metadata
     id="metadata2990">
    <rdf:RDF>
      <cc:Work
         rdf:about="">
        <dc:format>image/svg+xml</dc:format>
        <dc:type
           rdf:resource="http://purl.org/dc/dcmitype/StillImage" />
        <dc:title></dc:title>
      </cc:Work>
    </rdf:RDF>
  </metadata>
  <g
     id="layer1">
    <path
       d="m 509.50361,386.5958 c -61.99102,29.03587 -121.37416,63.51882 -183.64261,91.93233 -46.43661,15.78837 -99.87389,13.73634 -140.90492,43.77311 -25.6883,19.1944 -53.22166,46.60186 -48.55425,81.71659 2.37051,24.95674 -2.03944,55.3563 20.25918,72.9096 27.9353,24.63334 55.8094,56.19467 95.82649,58.00771 46.07691,2.75046 93.44126,-6.71793 134.36609,-28.14241 29.37915,-16.49056 45.56649,-46.83705 65.63334,-72.42983 55.66224,-35.45982 114.79701,-65.23859 170.92685,-99.90012 10.68272,-10.48928 4.19168,-28.36547 6.09732,-42.32812 -0.72157,-8.35142 -0.73799,-16.28099 8.98145,-18.38615 12.72087,-5.17041 31.15941,-16.52836 18.69904,-31.18566 -23.78271,-15.09116 -47.27548,-30.85351 -71.73352,-44.7569 -16.94918,7.28228 -34.24784,24.51761 -50.15224,5.01215 -8.56104,-5.46509 -16.97738,-11.18819 -25.80222,-16.2223 z m -0.0508,2.03359 c 34.9425,23.34902 71.0134,45.01393 105.4923,69.04026 6.91879,9.62277 14.95912,20.12831 12.6845,32.64406 -0.13059,11.49122 0.64092,27.19807 -1.37268,35.55735 -7.19506,14.15628 -32.43735,21.60266 -47.36324,31.99511 -41.97037,23.87637 -84.26103,47.23866 -125.69623,72.00922 10.53836,-6.89568 15.09563,-17.81562 1.50104,-5.01952 -15.33414,21.49119 -30.10522,43.9488 -47.47064,63.64595 -8.51815,2.761 11.39786,-12.84722 -0.66487,-3.18052 -9.50095,8.21331 -10.69874,12.08703 -4.33103,5.67694 -9.25439,10.89945 -24.68198,19.43739 -40.22532,24.89737 -39.12912,13.46615 -81.67574,22.2988 -122.91739,14.86614 -18.11219,-3.90385 -27.32153,-11.70726 -29.18374,-13.65734 -10.44856,-4.31647 -17.97822,-17.09874 -28.88632,-24.46203 -26.27775,-21.07055 20.43648,18.4231 16.80178,16.6222 -18.57286,-13.97329 -34.13256,-32.08382 -50.62618,-47.70247 -3.01631,-4.31796 -4.15486,-6.95443 -4.06536,-11.63895 3.34531,-5.16222 -3.59377,-30.35894 3.34523,-26.00176 10.35851,8.98238 26.49872,23.33538 33.50219,27.89253 -13.8091,-12.8937 -30.23033,-24.36342 -40.63054,-39.97526 -6.14796,-23.93662 16.74011,22.46505 3.83215,-4.98003 -6.1853,-13.92185 -1.92815,-29.76156 3.23746,-42.04755 4.45864,-4.92109 4.25415,-7.27754 11.65855,-14.4607 4.40086,-8.59003 17.55473,-15.48626 13.59962,-14.89605 7.60385,-5.45013 8.79852,-7.10232 18.05897,-14.31116 37.31388,-23.83688 82.94125,-27.04201 125.23261,-36.07096 -12.73994,5.73705 -21.72056,12.98201 -4.21265,5.40534 -4.69957,-0.20052 38.80019,-15.41534 18.09189,-11.22647 31.79458,-11.13234 60.2242,-30.05372 90.6222,-44.44 29.95348,-15.47456 59.89524,-30.97456 89.9857,-46.1817 z m 75.95445,10.80342 c 23.9535,14.11778 47.03057,30.00104 69.87912,45.85738 -3.97861,1.76494 -6.80984,3.41236 -11.76939,6.32953 -3.74129,2.79745 -14.6747,6.1839 -16.02884,9.46917 -11.21468,4.74615 -22.4038,-18.37776 -36.61417,-22.19057 -6.85365,-7.62776 -37.54113,-18.09534 -31.57288,-25.51006 8.13247,-5.53068 16.99203,-10.27511 26.10616,-13.95545 z m 73.76835,49.61952 c 3.4021,15.22208 -24.76402,28.8066 -32.56659,23.42006 -3.13298,-10.90148 24.86193,-16.01245 32.56659,-23.42006 z m -46.79791,7.75305 c -2.99481,3.04668 5.11101,0.32038 0,0 z m -169.60111,18.27685 c -33.58332,11.18166 26.92092,26.54508 15.93734,8.77609 -8.37472,7.22103 -20.85929,3.46931 -4.61725,-2.33841 6.08303,-5.04708 -8.79425,-6.50139 -11.32009,-6.43768 z m 1.42352,1.77939 c 25.24038,0.94297 -15.17773,9.32463 4.061,14.28754 -11.67977,3.68964 -16.48027,-14.62906 -10.00924,-11.97434 -8.28239,14.9747 24.84229,-3.0138 3.4261,-2.16423 z m -0.30504,2.28779 c 5.91137,4.77802 -14.18617,4.48682 0,0 z m 179.464,1.93191 c -7.83942,2.91376 -4.4814,4.08809 0,0 z m -163.55119,4.14343 c -10.53764,8.96314 -10.59898,4.974 0,0 z m -37.13837,0.0255 c -9.48005,6.82223 -42.67061,12.87272 -16.43849,24.18648 16.45921,9.69866 4.11363,-5.13267 -1.61122,-9.97976 5.66727,-7.63773 33.70811,16.79513 19.11733,-0.75962 -15.38334,-14.16291 11.77495,-3.75165 17.23465,0.10173 5.09824,-5.07506 -14.35065,-13.08345 -18.30227,-13.54878 z m -105.08558,0.6355 c -4.11717,3.885 -5.55916,1.68468 0,0 z m 106.1532,1.39809 c 10.662,2.23367 21.92283,15.39669 5.96664,3.74133 -14.77698,-9.62869 -16.67607,8.96026 -2.99919,13.08301 -5.63993,-8.84983 -34.8641,-11.81388 -18.45622,2.4899 13.96689,10.13544 -24.05768,-8.12917 -1.57259,-11.7527 7.71963,0.57343 9.38935,-8.16936 17.06136,-7.56154 z m 183.35325,2.74534 c -7.83942,2.91378 -4.4814,4.08809 0,0 z m -304.63126,3.99092 c -10.08166,2.6748 -7.98377,3.0328 -21.86166,10.15789 -24.89921,13.66784 -55.11914,22.03485 -70.71737,47.7739 -9.94782,11.57621 -8.20173,19.26219 -1.52303,4.33437 11.67193,-18.71759 30.20028,-30.79027 50.26587,-39.33326 14.34601,-7.6202 30.95845,-14.89385 43.83619,-22.9329 z m 302.26721,1.65229 c -5.1951,1.59024 -3.00399,3.38977 0,0 z m -5.69405,3.25369 c -5.19512,1.59024 -3.00401,3.38976 0,0 z m -5.89742,3.33 c -43.6196,24.00804 -87.89566,47.6525 -130.28668,73.39787 43.53719,-24.18766 87.53641,-48.02169 130.28668,-73.39787 z m -204.04497,2.08442 c -28.34703,-0.0236 -4.77407,29.52104 11.09926,16.12618 10.1245,-7.0383 -3.28167,-16.92802 -11.09926,-16.12618 z m -1.06764,1.88103 c 20.25809,-1.12732 12.61026,21.71247 -3.95398,14.04905 -13.35004,-4.24483 -6.4082,-14.39208 3.95398,-14.04905 z m 189.27606,0.15251 c -4.91566,0.76804 1.50752,2.30203 0,0 z m -189.30148,0.8389 c -27.8288,5.07618 21.20767,23.787 8.81389,3.0007 l -3.95599,-2.16539 z m 0,1.90649 c 34.81834,15.61488 -27.12078,8.24379 0,0 z m 183.60745,0.50839 c -4.91567,0.76804 1.50751,2.30203 0,0 z m -202.34187,3.02497 c -20.6642,3.89859 -7.13649,17.31433 6.81252,20.48837 2.31273,-6.5086 -13.67586,-11.72431 -5.13232,-19.56978 l -0.84134,-0.81691 z m -0.68633,1.77938 c -11.4016,8.07414 18.49439,23.77711 -2.46573,11.33725 -14.1962,-8.83769 -1.04093,-2.8055 2.46573,-11.33725 z m 194.58881,0 c -7.83942,2.91378 -4.48141,4.08809 0,0 z m -15.8874,8.69358 c -3.42244,1.17276 -0.0201,1.96411 0,0 z m -196.67323,0.73719 c -9.88599,5.00516 -15.72829,4.96135 -24.67547,2.01328 2.1314,7.9223 36.07412,29.61966 23.3028,12.65395 -16.37253,-13.34499 11.91792,-9.3564 16.47204,0 11.49734,-4.19628 -12.51565,-13.81684 -15.09937,-14.66723 z m 0.0508,1.85564 c 10.34833,1.69833 21.79134,16.94974 6.11661,4.50742 -15.66576,-11.568 -18.83762,10.0183 -5.91325,13.94737 -8.14798,-5.12731 -34.90099,-24.89076 -11.68736,-12.67211 2.82442,-3.44251 6.99648,-5.65509 11.484,-5.78268 z m 271.96678,1.67771 c -5.19511,1.59024 -3.004,3.38976 0,0 z m -5.69405,3.25373 c -5.1951,1.59024 -3.00399,3.38977 0,0 z m -289.60813,4.16886 c -32.14245,6.61987 14.5178,34.01425 15.87712,11.14986 -10.2465,8.97636 -30.38894,-1.64847 -13.29699,-10.0188 l -1.15663,-0.95312 z m -0.0763,2.13526 c -17.4355,6.33727 5.36708,21.71089 14.71813,11.36266 -9.09393,12.93602 -39.7256,-4.94644 -14.71813,-11.36266 z m 193.11446,1.14389 c -4.91567,0.76805 1.50751,2.30203 0,0 z m -353.36113,2.05901 c -6.77169,5.1111 -3.92535,6.57911 0,0 z m 121.30345,6.66 c -18.24711,-3.65005 -50.70472,15.75628 -32.50309,34.90957 17.46492,13.78887 50.17245,11.41003 60.3883,-10.07858 4.99901,-16.25035 -14.99054,-24.86422 -27.88521,-24.83099 z m -127.98886,0.2542 c -5.04166,6.40196 -8.95878,8.77874 0,0 z m 426.51936,0.66091 c -5.19512,1.59024 -3.004,3.38978 0,0 z m -300.51326,0.61008 c 25.02093,0.91263 -20.28811,8.93184 -17.26006,20.86968 -2.13755,7.33207 -28.34988,-1.98933 -10.82884,-11.31183 7.92605,-6.1674 18.12208,-9.26586 28.0889,-9.55785 z m 296.36982,1.88107 c -7.83942,2.91376 -4.4814,4.08809 0,0 z m -282.56684,0.33045 c 19.62527,1.67266 16.42015,35.37597 1.75397,29.66495 1.43231,-10.78094 -15.73845,-26.06596 -13.11805,-23.83855 3.73262,-2.04796 7.57191,-3.89295 11.36408,-5.8264 z m 276.16105,3.27916 c -13.34239,4.35651 -0.14409,3.6046 0,0 z m -422.07088,0.15252 c -2.10283,3.83759 -3.93486,2.19159 0,0 z m 415.46172,3.55877 c -7.83942,2.91378 -4.48139,4.0881 0,0 z m -5.99908,3.43168 c -26.68444,14.45177 -53.36491,29.23888 -79.24121,45.00009 10.00048,-5.4601 27.05593,-10.7714 25.15162,-11.95964 16.61079,-7.21723 26.07872,-18.41116 36.05113,-20.65908 3.268,-6.21411 15.23108,-7.72028 18.03846,-12.38137 z m -279.00807,0.33046 c 27.311,2.91077 -11.68836,25.80325 -11.94115,5.23694 2.36673,-4.05195 7.61255,-5.15999 11.94115,-5.23694 z m -82.30942,5.79572 c -5.79673,3.51694 -1.14271,5.44619 0,0 z m 94.51094,0.27963 c 1.4793,3.73971 -0.90642,2.22927 0,0 z m -1.11847,3.68586 c -2.10283,3.8376 -3.93486,2.19159 0,0 z m -43.74753,1.16932 c 13.5872,5.21662 36.40861,5.37929 44.96198,2.78942 6.83836,19.59064 -26.82483,14.06137 -37.03303,7.60894 -3.7193,-2.42135 -6.68498,-6.10564 -7.92895,-10.39836 z m 29.02944,3.81297 c 2.38432,0.99587 -3.49579,0.39642 0,0 z m 4.06717,0 c 2.38432,0.99587 -3.49579,0.39642 0,0 z m 249.49565,2.33863 c -6.51131,5.49013 -38.83142,21.75164 -15.56211,8.3371 5.15527,-2.83545 10.23909,-5.82002 15.56211,-8.3371 z m -343.32025,1.62687 c -2.90042,1.55041 1.43982,2.19193 0,0 z m 26.36038,22.87785 c -8.70994,6.45083 -34.15894,16.05667 -28.1074,27.57864 6.3868,-2.21306 38.56656,-21.2858 28.1074,-27.57864 z m -0.78802,2.16068 c 5.97442,6.17875 -42.64586,35.3659 -20.56068,14.57079 6.86677,-4.73606 12.87112,-11.27791 20.56068,-14.57079 z m 266.73029,1.22015 c -10.01162,6.24446 -24.07677,11.36034 -10.607,8.63632 3.55564,-2.78696 2.9348,-4.21437 10.607,-8.63632 z m -55.99988,3.78756 c -11.9173,14.23472 -23.04636,27.52135 -38.70614,36.13964 -8.17132,6.84714 -10.03887,7.69945 -21.25925,12.51391 -18.08361,8.74944 -38.70716,13.51421 -58.66897,16.11618 -2.75436,2.35687 -22.79397,1.94053 -17.29975,3.41294 -10.9864,-3.57845 -17.70714,5.14082 -30.13365,-0.82011 -1.20326,2.25889 -17.34136,-3.61088 -19.2037,-0.90348 -9.45204,-1.48814 -32.8818,-5.81607 -10.53726,0.37963 47.90926,9.89512 98.03135,-0.21497 142.63677,-18.75437 22.16017,-9.85084 39.81641,-28.24974 53.17195,-48.08434 z m -285.49014,2.38946 c 4.67087,9.87632 9.8959,11.29664 0,0 z m 327.71247,3.35542 c -5.04811,2.22896 -2.74589,4.1222 0,0 z m -320.13735,0.81344 c -1.66316,2.97763 3.09853,3.35267 0,0 z m -8.08351,2.59281 c 1.19933,6.50203 -0.82141,3.21485 0,0 z m 320.44239,0.83886 c -5.72746,7.12818 -12.60769,7.54192 0,0 z m -322.14552,6.60916 c 1.52758,2.82675 -1.07425,2.31612 0,0 z m 2.5674,9.15114 c 1.06497,9.10169 -0.78949,3.91032 0,0 z m 14.00633,2.26236 c -6.65485,19.07574 14.36634,33.46339 27.38175,44.26364 19.51932,10.27222 7.58049,-15.21348 -3.99857,-18.03984 -22.29937,-20.75703 17.71432,16.11575 13.85687,7.73705 -2.8643,2.75207 -39.04277,-35.69029 -14.36796,-14.10983 9.48984,8.67332 16.61116,12.35964 3.26702,1.33514 -8.89193,-6.85062 -16.95477,-15.26941 -26.13911,-21.18616 z m 249.24145,0.45756 c -7.02167,8.79391 -37.30054,24.18108 -33.89902,23.28227 12.47794,-5.69157 24.57947,-13.11618 33.89902,-23.28227 z m -248.63137,0.55924 c 9.90943,15.84938 23.77063,28.94174 37.77113,41.38251 -12.70703,8.9542 -32.0651,-18.35866 -37.70369,-30.72844 -0.7883,-3.50383 -0.11602,-7.11212 -0.0675,-10.65407 z m 11.7948,0.30503 c 2.10283,3.83759 3.93485,2.19159 0,0 z m 228.4226,1.62687 c -2.227,4.20175 -5.69724,4.5824 0,0 z m 6.50748,2.44031 c -5.69723,4.58239 -2.22701,4.20174 0,0 z m -11.87106,2.08442 c -2.89368,3.78444 -6.78327,2.72094 0,0 z m 8.36312,1.04222 c -23.60184,19.42539 -54.16565,26.02868 -82.85603,34.20337 28.94019,-6.40216 60.60653,-13.25959 82.85603,-34.20337 z m -221.66093,0.94053 c 2.10284,3.83758 3.93486,2.19158 0,0 z m -12.63365,0.0763 c 5.92233,3.45128 0.34525,9.51801 0,-4e-5 z m 18.3277,4.80438 c 2.10282,3.8376 3.93486,2.19158 0,0 z m -2.84702,0.40672 c 3.62282,4.64453 5.50713,4.43489 0,0 z m 25.69944,13.62504 c 3.39672,3.73146 4.70247,1.62219 0,0 z m 9.99,4.27053 c 3.10639,3.52106 0.31371,0.30383 0,0 z m -59.27902,3.25367 c 6.50212,5.66413 6.53783,7.43173 0,0 z m 118.76146,2.84701 c -3.03052,1.56909 2.90128,1.62439 0,0 z m -26.43663,0.10173 c 3.60656,0.63047 -3.60657,0.63047 0,0 z m 19.21739,0.17794 c -2.3337,2.00306 3.69145,1.41253 0,0 z m -105.03475,2.5674 c 6.50214,5.66415 6.53784,7.43174 0,0 z m 150.81587,1.32183 c -3.48437,0.46895 2.13731,0.90128 0,0 z m -4.80435,0.81345 c -3.60657,0.63046 3.60657,0.63046 0,0 z m -4.8806,0.81343 c -3.60657,0.63047 3.60655,0.63047 0,0 z m 78.36934,20.2596 c -19.50255,8.64428 -39.9416,14.99625 -60.47379,20.66632 18.19705,-1.83406 -46.55046,9.75269 -12.40536,4.36452 25.19659,-4.95581 54.54435,-11.13895 74.32808,-24.5987 -1.67893,1.19713 -1.11066,0.11738 -1.44893,-0.43214 z m -0.68635,0.78802 c -3.96051,4.61574 -6.91642,2.55911 0,0 z m -8.13434,4.11801 c -3.1866,3.58059 -5.95461,1.59052 0,0 z m -5.69404,2.41488 c -1.10649,2.84938 -4.54337,0.6616 0,0 z m -6.50748,2.44031 c -1.10648,2.84937 -4.54336,0.66159 0,0 z m -11.7948,4.14343 c -0.68084,2.63209 -7.30298,0.75922 0,0 z m -8.2106,2.4403 c 2.38431,0.99587 -3.49581,0.39643 0,0 z m -3.25375,0.81343 c 2.38432,0.99587 -3.4958,0.39643 0,0 z m -123.15908,0.7626 c 3.18661,3.58058 5.95461,1.59052 0,0 z m 119.98161,0.10174 c -1.5558,2.94986 -8.10564,0.34492 0,0 z m -114.51635,2.64365 c 9.98465,5.30201 14.85071,4.13675 0,0 z m 96.62079,0.55923 c -3.60657,0.63048 3.60656,0.63048 0,0 z m -4.06718,0.81345 c -3.60656,0.63047 3.60657,0.63047 0,0 z m -4.06717,0.81343 c -3.60657,0.63047 3.60657,0.63047 0,0 z m -4.98229,0.81344 c -4.94118,0.55665 3.88865,0.60556 0,0 z m -70.74339,0.81343 c -3.48437,0.46894 2.13732,0.90127 0,0 z m 8.13434,0 c -3.48436,0.46894 2.13733,0.90127 0,0 z m 56.20325,0 c -3.60657,0.63047 3.60657,0.63047 0,0 z m -51.24638,0.81343 c -3.60656,0.63047 3.60657,0.63047 0,0 z m 43.92548,0 c -3.60657,0.63047 3.60656,0.63047 0,0 z m -54.0934,0.0763 c -0.68769,1.97246 11.78724,1.07054 0,0 z m 14.03174,0.73718 c -18.72488,1.89331 22.75501,3.05745 -0.90085,0.99863 l 0.31619,-0.41393 0.58466,-0.58466 z m 4.98229,0 c -7.86656,0.54304 6.77501,0.45604 0,0 z m 36.60455,0.81343 c -4.94118,0.55666 3.88865,0.60557 0,0 z m -9.76121,0.81343 c -8.768,0.42068 8.43579,0.40466 0,0 z"
       id="path3074"
       style="fill:#000000" />
    <g
       transform="translate(714.3875,-1440.1953)"
       id="layer1-0">
      <g
         transform="matrix(0.24509671,0,0,0.24509671,-120.92607,1197.7672)"
         id="g3947">
        <g
           transform="matrix(3.4323383,0,0,3.4323383,922.94427,-3206.8502)"
           id="g3195">
          <g
             transform="matrix(1.8966103,0,0,1.8966103,-281.81968,2720.6733)"
             id="g3886">
            <g
               transform="translate(-96.974644,-783.87837)"
               id="g3898">
              <path
                 d="M 46.569,58.862 C 35.187,69.142 31.042,92.434 51.562,106.05 L 133.425,162.078 93.732,71.362 C 85.415,49.955 62.662,45.286 46.569,58.862"
                 id="path3862"
                 style="fill:#f37021" />
              <path
                 d="m 117.036,14.755 c -13.308,0.27 -33.289,16.079 -24.395,40.218 l 41.052,96.585 14.424,-101.589 C 151.455,24.726 132.308,13.073 117.036,14.755"
                 id="path3864"
                 style="fill:#cc004c" />
              <path
                 d="m 154.524,46.094 h 7.763 c 0,0 4.145,0 4.708,1.951 -3.054,2.489 -11.368,2.8 -10.266,16.093 l 13.051,87.406 40.771,-96.839 c 8.341,-21.622 -9.165,-39.68 -24.692,-40.232 -0.726,-0.053 -1.453,-0.095 -2.206,-0.095 -13.939,0 -29.909,10.106 -29.129,31.716"
                 id="path3866"
                 style="fill:#6460aa" />
              <path
                 d="m 208.911,72.184 -38.564,89.628 81.836,-56.324 c 18.866,-13.348 15.824,-34.689 5.263,-45.238 -4.428,-4.965 -12.555,-8.8 -21.165,-8.8 -10.174,-0.002 -21.059,5.381 -27.37,20.734"
                 id="path3868"
                 style="fill:#0089d0" />
              <path
                 d="m 243.021,118.242 -76.856,53.554 h 94.632 c 19.415,0 31.89,-19.97 26.345,-38.296 -3.714,-11.518 -14.707,-20.56 -27.463,-20.573 -5.369,10e-4 -11.062,1.615 -16.658,5.315"
                 id="path3870"
                 style="fill:#0db14b" />
              <path
                 d="m 44.363,171.796 h 93.234 L 60.724,118.242 c -17.761,-11.384 -37.729,-4.723 -44.94,14.167 -6.11,21.625 9.149,39.387 28.579,39.387"
                 id="path3872"
                 style="fill:#fcb711" />
            </g>
          </g>
          <path
             d="m -87.403703,1532.6852 c -77.590487,0 -142.302387,63.7178 -142.302387,143.4392 0,75.118 61.00444,142.0058 142.895527,142.0058 57.071922,0 93.1989419,-33.9611 104.786742,-46.7587 l -19.7216598,-19.3756 c -6.65828,7.9364 -35.4575702,38.4547 -85.0650822,38.4547 -66.884797,0 -115.216007,-54.1131 -115.216007,-114.3262 0,-64.8088 52.13013,-115.7597 114.622867,-115.7597 53.279992,0 81.0120222,33.0671 81.0120222,33.0671 a 13.847968,13.847968 0 1 0 21.0561998,-17.9917 c 0,0 -36.97674,-42.7549 -102.068222,-42.7549 z"
             id="path3775"
             style="font-size:medium;font-style:normal;font-variant:normal;font-weight:normal;font-stretch:normal;text-indent:0;text-align:start;text-decoration:none;line-height:normal;letter-spacing:normal;word-spacing:normal;text-transform:none;direction:ltr;block-progression:tb;writing-mode:lr-tb;text-anchor:start;baseline-shift:baseline;color:#000000;fill:#000000;fill-opacity:1;stroke:none;stroke-width:17.5;marker:none;visibility:visible;display:inline;overflow:visible;enable-background:accumulate;font-family:Sans;-inkscape-font-specification:Sans" />
          <path
             d="m -128.34943,1485.8778 c -77.59049,0 -142.30239,63.7177 -142.30239,143.4392 0,75.1179 61.00444,142.0057 142.89552,142.0057 57.071906,0 93.198946,-33.961 104.786746,-46.7586 l -19.72166,-19.3757 c -6.65829,7.9365 -35.45757,38.4548 -85.065086,38.4548 -66.88479,0 -115.216,-54.1131 -115.216,-114.3262 0,-64.8088 52.13014,-115.7597 114.62287,-115.7597 53.279986,0 81.012016,33.067 81.012016,33.067 a 13.847966,13.847966 0 1 0 21.0562,-17.9916 c 0,0 -36.97675,-42.7549 -102.068216,-42.7549 z"
             transform="translate(-142.81943,46.807517)"
             mask="url(#mask3230)"
             id="path2998"
             style="font-size:medium;font-style:normal;font-variant:normal;font-weight:normal;font-stretch:normal;text-indent:0;text-align:start;text-decoration:none;line-height:normal;letter-spacing:normal;word-spacing:normal;text-transform:none;direction:ltr;block-progression:tb;writing-mode:lr-tb;text-anchor:start;baseline-shift:baseline;color:#000000;fill:#000000;fill-opacity:1;stroke:none;stroke-width:17.5;marker:none;visibility:visible;display:inline;overflow:visible;enable-background:accumulate;font-family:Sans;-inkscape-font-specification:Sans" />
        </g>
      </g>
    </g>
  </g>
</svg>
