<?xml version="1.0" encoding="UTF-8" standalone="no"?>
<!-- Created with Inkscape (http://www.inkscape.org/) -->

<svg
   xmlns:dc="http://purl.org/dc/elements/1.1/"
   xmlns:cc="http://creativecommons.org/ns#"
   xmlns:rdf="http://www.w3.org/1999/02/22-rdf-syntax-ns#"
   xmlns:svg="http://www.w3.org/2000/svg"
   xmlns="http://www.w3.org/2000/svg"
   xmlns:sodipodi="http://sodipodi.sourceforge.net/DTD/sodipodi-0.dtd"
   xmlns:inkscape="http://www.inkscape.org/namespaces/inkscape"
   width="1024px"
   height="768px"
   id="svg2985"
   version="1.1"
   inkscape:version="0.48.2 r9819"
   sodipodi:docname="New document 2">
  <defs
     id="defs2987" />
  <sodipodi:namedview
     id="base"
     pagecolor="#ffffff"
     bordercolor="#666666"
     borderopacity="1.0"
     inkscape:pageopacity="0.0"
     inkscape:pageshadow="2"
     inkscape:zoom="0.5"
     inkscape:cx="538.67508"
     inkscape:cy="428.92338"
     inkscape:current-layer="layer1"
     inkscape:document-units="px"
     showgrid="false"
     inkscape:window-width="800"
     inkscape:window-height="662"
     inkscape:window-x="243"
     inkscape:window-y="0"
     inkscape:window-maximized="0" />
  <metadata
     id="metadata2990">
    <rdf:RDF>
      <cc:Work
         rdf:about="">
        <dc:format>image/svg+xml</dc:format>
        <dc:type
           rdf:resource="http://purl.org/dc/dcmitype/StillImage" />
        <dc:title></dc:title>
      </cc:Work>
    </rdf:RDF>
  </metadata>
  <g
     id="layer1"
     inkscape:label="Layer 1"
     inkscape:groupmode="layer">
    <path
       style="fill:#000000"
       d="m 505.12746,481.40955 c -6.39067,-1.79064 -16.1178,-9.47255 -24.83156,-19.61047 -26.0181,-30.27044 -43.98167,-76.58417 -53.20116,-137.1634 l -1.37508,-9.03531 16.66982,0 16.66983,0 0.42303,4.1348 c 0.69787,6.82134 4.41363,28.06793 6.45454,36.90694 8.67744,37.58112 21.32812,64.49936 43.47055,92.49704 l 1.21114,1.53141 2.55296,-2.45026 c 8.47033,-8.12957 20.70531,-25.19669 29.26392,-40.82152 l 2.56366,-4.6803 -4.75325,-2.93729 c -6.44834,-3.98479 -16.09676,-13.78065 -19.93999,-20.2447 -8.10201,-13.62703 -12.16135,-30.15582 -11.2642,-45.8655 1.39487,-24.42514 13.28008,-40.93557 33.37562,-46.36397 6.65409,-1.79747 18.65097,-1.77383 25.54117,0.0503 7.79842,2.06461 12.2569,4.56129 17.52442,9.8134 7.44172,7.41993 10.92466,15.78238 12.26479,29.44742 0.71267,7.2669 0.0971,16.7106 -1.61762,24.81715 -1.00247,4.73931 -3.70586,13.58061 -4.58985,15.01094 -0.45001,0.72813 -1.98209,0.90956 -7.47961,0.88572 -5.70223,-0.0247 -7.53109,-0.27403 -10.4372,-1.42276 -4.21833,-1.66742 -9.49217,-5.68153 -9.97041,-7.58883 -0.18921,-0.7546 0.24461,-3.71506 0.96403,-6.57879 0.86457,-3.44148 1.41916,-8.04339 1.63578,-13.57335 0.28979,-7.39805 0.17504,-8.86922 -0.99119,-12.7088 -2.08882,-6.87697 -6.07044,-10.48987 -11.52556,-10.45819 -2.78652,0.0162 -6.71807,1.7321 -8.56016,3.73607 -4.16089,4.52653 -6.24711,14.62653 -5.11617,24.76889 0.89888,8.06131 2.08232,12.46098 4.93386,18.34267 7.92421,16.3448 25.02741,25.16276 44.57719,22.98283 3.21899,-0.35895 6.49551,-0.81395 7.28115,-1.01114 l 1.42843,-0.35853 0,11.59699 0,11.59699 -3.82852,0.71756 c -2.10569,0.39466 -7.42204,1.04458 -11.81411,1.44426 l -7.98559,0.72669 -3.27819,6.15778 c -9.2672,17.40758 -21.15498,33.5471 -35.85894,48.68415 -14.91739,15.35677 -22.05805,19.35695 -30.38753,17.02306 z"
       id="path3133"
       inkscape:connector-curvature="0" />
    <path
       style="fill:#000000"
       d="M 233.42017,717.3994 C 188.96069,700.24138 163.27575,651.04136 167.74029,604.6544 159.88692,462.38564 161.29654,319.75482 163.04417,177.35644 163.62691,131.01928 172.9896,75.0677 219.25395,52.504023 274.42121,24.766637 338.1689,37.502584 397.41012,33.129974 c 117.4017,-0.953006 235.07889,-2.913673 352.28295,4.402234 42.61803,4.384897 89.45252,27.023118 100.19414,72.184572 19.53303,65.06596 9.48279,133.92237 12.1968,200.7645 -0.72614,115.14909 -2.86013,230.28358 -3.74665,345.43114 -30.5339,36.10445 -68.76971,75.87213 -120.08493,73.78633 -128.0189,11.44771 -256.65388,2.95264 -384.94434,5.17902 -39.97269,-1.21478 -82.97012,-0.41803 -119.88792,-17.47837 z m 537.138,-15.42043 c 49.56012,-13.53887 70.65049,-69.48494 68.93275,-116.51644 8.69551,-99.31051 1.45537,-199.05415 4.94618,-298.5339 -33.8278,-26.77611 -80.8741,-14.4271 -120.74948,-20.33355 -28.5435,-8.38353 -66.38104,11.94533 -41.12864,42.80957 41.58594,79.01099 16.12397,183.5782 -53.2891,238.09109 -49.0836,35.53108 -115.73383,36.08127 -172.53846,22.0475 -67.87877,-16.44312 -117.60815,-78.1575 -126.84621,-146.26134 -1.52297,-30.63221 2.27441,-104.08015 30.53383,-124.52109 9.21522,-30.31012 -183.93751,-35.29123 -177.70082,10.35618 -4.22576,75.1461 -1.96031,150.50497 -2.74463,225.73598 1.78431,43.91481 1.60742,91.2188 23.20345,130.64813 32.47415,44.45358 92.97602,43.7549 142.45129,47.75903 101.60763,5.23629 203.38691,0.19991 305.06308,1.63823 40.2055,-0.60257 80.7946,-2.70045 119.86676,-12.91939 z M 538.55776,497.75028 c 55.88403,-0.64817 94.93096,-47.41065 96.80546,-113.9318 4.54284,-42.79662 -5.49111,-95.92288 -46.6877,-117.75046 -36.00918,23.85846 -156.96644,26.13215 -147.91024,13.35275 25.15145,-16.99148 -0.76968,-32.76624 -15.61105,-12.60109 -78.10475,54.12976 -67.48005,196.22266 24.52883,229.69587 29.38179,14.46251 58.92854,2.49583 88.8747,1.23473 z M 352.15063,397.28107 c 3.66578,-27.03654 -26.64853,-36.25088 -14.43289,-3.5178 12.74921,48.45117 23.73681,48.52895 14.43289,3.5178 z m 330.7254,-15.67155 c -1.93385,-31.35569 -15.76352,-102.41795 -36.02933,-99.50806 15.32198,40.60444 24.70945,82.75686 24.29325,125.6722 18.26281,42.0848 11.04374,-15.70785 11.73608,-26.16414 z M 345.46951,231.34422 c 25.61148,31.97828 77.04171,-12.41178 107.13802,-19.63717 49.43061,-22.97335 106.55696,-9.93226 152.22007,15.59336 56.52753,28.02356 120.25585,16.92303 180.71191,16.02385 -45.96278,-3.90794 -92.2465,-4.99096 -137.83997,-12.49412 48.46964,-15.36908 -11.45323,-69.38827 0.72886,-103.49639 -6.28423,-35.841845 62.22565,-60.246498 63.82073,-42.935542 -49.28176,19.284452 -65.58029,101.726302 -15.32802,129.321492 28.23153,18.16163 60.615,11.9675 70.61079,-19.67547 30.10463,-27.5402 50.56268,12.52308 37.52735,39.13886 17.94628,35.4715 45.86945,-27.18304 39.44755,-49.3644 C 840.70694,110.39929 769.38335,47.028353 695.56955,55.286327 582.67875,51.34545 469.70332,53.046035 356.77141,52.062761 c -0.28087,12.456393 -8.99062,55.427729 -8.47198,18.311011 -18.32017,-34.414587 -63.40976,-21.948943 -91.21685,-7.730065 -61.85106,27.904118 -90.16035,105.803013 -71.6283,169.127103 55.64099,1.78005 95.34958,-11.21607 160.01523,-0.42659 z m 454.68337,-13.93686 c 6.51705,-30.60519 -32.18859,27.19805 -2.00915,2.4963 l 1.24493,-1.54679 3.7e-4,-4.6e-4 z"
       id="path3131"
       inkscape:connector-curvature="0"
       sodipodi:nodetypes="ccccccccccccccccccccccccccccccccccccccccccccccccccccccccccccccc" />
  </g>
</svg>
