<?xml version="1.0" encoding="UTF-8" standalone="no"?>
<!-- Created with Inkscape (http://www.inkscape.org/) -->
<svg id="svg2985" xmlns:rdf="http://www.w3.org/1999/02/22-rdf-syntax-ns#" xmlns="http://www.w3.org/2000/svg" height="768px" width="1024px" version="1.1" xmlns:cc="http://creativecommons.org/ns#" xmlns:dc="http://purl.org/dc/elements/1.1/">
 <metadata id="metadata2990">
  <rdf:RDF>
   <cc:Work rdf:about="">
    <dc:format>image/svg+xml</dc:format>
    <dc:type rdf:resource="http://purl.org/dc/dcmitype/StillImage"/>
    <dc:title/>
   </cc:Work>
  </rdf:RDF>
 </metadata>
 <g id="layer1">
  <g id="g3850" transform="translate(-0.291116,4)">
   <path id="path3039" d="M214.13,742.88c-64.79-113.7-130.29-227.02-192.65-342.07,12.818-58.7,56.578-103.58,81.117-157.28,41.7-72.98,82.17-146.77,128.15-217.19,134.78-1.515,269.57-1.823,404.36-1.111,6.91,22.528,44.16,58.376,36.33,67.843-33.81-21.057-36.53-85.969-92.44-63.985-114.84,1.381-229.75-4.076-344.54,1.228-68.08,101.53-122.91,211.4-186.08,315.64-35.127,33.176-14.3,75.867,7.5975,108.85,44.654,81.783,92.136,161.97,139.37,242.28,4.4131,50.788,62.53,55.933,101.36,46.894,109.49-0.5366,218.99,0.10581,328.48,0.20752,25.411-48.254,52.469-95.612,78.923-143.3,54.91-1.3062,109.99,1.5563,164.75-3.8055,41.795-78.676,77.35-160.49,119.48-239,0.99475-56.609-49.565-96.464-65.501-148.56-11.42-34.665-56.205-85.117-46.441-111.57,24.788,32.658,37.261,73.815,58.913,109,23.645,45.371,47.263,90.817,67.793,137.71-39.771,90.236-86.097,177.35-129.4,265.89-54.939,0.37705-109.88,0.75412-164.82,1.1312-25.992,46.427-51.986,92.853-77.982,139.28h-411.58l-5.1898-8.0975v0.00003zm558.57-138.19c-17.514-1.7818-50.866,1.4553-14.112,0.71311,2.1058-0.14143,29.761,0.004,14.112-0.71311zm62.55,0.19088zm22.587,0.11191zm27.321-27.959zm11.959-24.72zm68.856-139.34zm14.45-106.82c-16.894-31.32,5.8873,8.5716,6.4012,14.254l-2.4048-5.49zm-24.087-46.519zm-47.506-92.852zm-8.6374-17.275zm-259.86-106.79zm-184,680.75zm70,0.001c20.368-1.9478,34.975,2.2161,3.9391,0.64373l-5.805-0.11526,1.8659-0.52831zm53.134,0.12399zm9.5821-0.0129zm28.251-5.5298c28.181-41.589,44.044-91.148,77.663-128.97-27.346,41.93-43.757,91.7-77.663,128.97zm-382.92,3.4297c-54.73-84.65-99.36-175.33-150.19-262.34-18.702-35.36-51.791-72.65-17.001-110.26,58.051-99.13,112.83-200.17,170.43-299.61,126.21,0.16173,252.44-2.2563,378.63,0.79367,17.292,26.427,24.498,78.513,67.99,65.181,56.264,0.31592,112.53,0.63185,168.79,0.94776,38.853,76.418,80.086,151.65,116.52,229.28-25.726,59.984-58.926,116.44-84.227,176.62,31.058-54.019,53.358-112.57,85.046-166.26-20.374,62.97-59.547,117.74-84.085,179.12-6.0997,19.706-40.637,64.758-18.273,22.224,14.631-24.757,10.018-23.239-2.7868,1.3265-28.922,35.835-78.455,12.193-117.12,15.594-44.035-6.3789-77.729,24.692-89.385,65.523-7.6951,30.928-40.631,71.488-54.841,19.642-27.794-56.956-63.753-109.61-93.328-165.8-13.977-39.979-62.027-74.273-49.003-118.8,8.259-35.752,82.298-13.058,57.731-63.833-19.308-41.509-96.569-27.106-75.469,23.95-2.3996,48.789-23.462-36.413,1.7804-46.293,41.563-31.907,116.63,20.625,70.423,67.285-24.349,9.3856-60.625,9.7872-46.216,48.66,22.138,42.839,45.433,86.11,75.732,123.95,27.868,39.934,47.375,85.861,74.632,126.9,25.708,27.267,37.898-46.878,54.765-65.109,21.755-36.179,71.803-13.812,106.55-20.715,42.959,6.3895,89.88-4.178,95.815-54.235,27.904-56.168,54.867-112.8,82.271-169.21-34.77-73.78-75.22-144.8-108.69-219.24-67.82-4.16-135.97-1.02-203.94-1.99-14.36-47.455-53.12-88.48-105.78-68.627-97.45-0.605-194.91-1.223-292.34,0.912-41.41,34.639-52.81,90.925-84.16,133.28-30.624,54.274-60.762,108.84-92.895,162.24,24.907-18.662,73.714-3.1514,73.527-49.13,19.239-31.729,24.384-108.95,68.35-102.23,33.469,15.678,50.997,52.951,47.641,95.25-5.9948,44.252,28.517-16.201,7.7832-33.691-23.345-24.536,8.7428-63.642,29.315-33.126-1.3921,21.944-19.099,65.265-8.6162,17.985,3.3641-32.497-37.141-21.628-15.558,3.3754,8.6234,29.606,4.1939,65.931-20.382,86.857,17.101-15.824-21.791-55.115-5.35-17.69,0.70478,21.622,12.972,75.423-5.3171,25.564-17.015-38.212,15.024-91.365-25.605-119.9-27.816-42.376,5.1775,25.185-1.2691,29.483-0.69371-20.776-22.854-62.126-34.859-22.113-23.832,59.102-56.248,115.37-76.163,176.42,56.097,15.099,112.99-13.702,169.73-3.7795,53.26,13.528-39.146-14.542,0.65018-30.445,21.724,2.8921,66.018,18.815,69.414,25.415-17.696-5.6572-63.464-25.615-68.149-10.786,39.219,29.06,94.709,14.072,133.1,44.735-23.39,0.33548-69.511-18.845-23.338,0.44358-33.488,1.1142-73.14-17.1-109.06-22.339-49.103-6.848-98.593,4.0013-147.61,7.8633-24.589,4.4578-69.258,4.1887-37.17,35.811,45.302,80.956,91.885,161.21,135.3,243.21,35.406,4.0774,32.181-62.178,55.295-83.047,14.301-30.649,41.547-93.304,53.286-101.27,15.112,8.3593,30.859-0.1287,4.4862,15.418-38.304,37.26-46.706,93.784-73.868,138.38-7.3975,19.191-15.124,40.205-32.937,52.238zm392.59-45.054zm-12.539-7.5006zm-6.478-10.797zm-536.91-237.46zm277.2,0.7883zm-250.45-2.21c5.8387-22.062,42.427-86.8-8.7657-65.592-32.133,7.267-29.688,74.761,8.7657,65.592zm241.82,0.0526zm-8.6374-2.1594zm-8.6374-2.1594zm-8.6374-2.1594zm-253.04-13.61c-5.5342-36.935-5.3491,12.255,3.0909,6.3381-1.0303-2.1127-2.0606-4.2254-3.0909-6.3381zm9.6177-41.224zm176.2-101.48c-2.7467-26.272-20.436-39.948-7.4564-5.2879,2.872,17.561,21.942,49.205,9.1606,11.173-0.56809-1.9618-1.1362-3.9236-1.7042-5.8855zm50.06,463.05c30.668-73.052,72.434-140.87,102.4-214.24-26.24,16.997-15.803-11.87,4.0777,1.8878,1.1582,21.616-21.456,44.66,2.723,15.728,8.4586-16.887,21.858-79.942,13.015-29.542-17.87,54.564-56.16,99.38-76.577,152.88-19.834,26.859-44.478,78.909,11.624,65.32,65.453,1.7727,130.92,0.004,196.37-1.0143,11.078-11.793,54.963,15.583,33.989-21.915-31.704-55.585-57.312-114.72-91.107-169-37.524-21.672-24.586-82.275-60.104-110.77-13.61,1.2626-42.679-41.347-29.761-50.516,14.472,31.269,43.002,48.931,60.636,77.714,21.362,40.144,35.755,83.779,61.129,121.8,25.03,47.351,49.633,94.937,73.071,143.1-25.506,44.218-86.427,4.6457-126.98,19.079-58.167,0.37789-116.35,0.9608-174.51-0.49989zm-63.23-20.403zm316.35-6.478zm-50.68-132.35zm-8.566-22.487zm-137.26-53.074zm6.316-15.721zm-72.176-11.812c-43.078-0.68245-86.968-7.559-126.94-23.976,0.0509-5.5087,56.088,8.7164,79.137,2.7542,35.897-0.83531,72.702-6.4813,107.87-0.14077,38.815,26.134-33.241,14.454-50.956,22.409l-9.1116-1.0465zm33.044-11.711c20.626-9.8597-39.725-2.187-50.557-3.1981-14.773-1.6586-67.491,1.1152-22.822,4.943,24.42,2.2195,49.091,1.6155,73.379-1.7449zm101,8.8946c-17.888-2.502-40.286-12.061-6.5215-8.4375,45.11,5.2402-37.19-37.09,4.3023-22.596,15.798,12.006-24.362-8.6833,4.6333,10.305,20.064,8.9214,20.44-25.884,25.412,6.6018,1.6646,15.374-17.702,15.039-27.826,14.126zm-37.955-10.911zm347.66-37.751c-40.769,10.682-34.643-78.846-2.0316-31.485,25.882,21.067,45.501-28.782,4.8415-17.555-63.99-14.265-10.374-108.56,38.86-70.935,30.403,19.257,2.1834,61.62-22.181,25.655-33.137-1.0778-1.051,25.59,16.855,17.782,49.189,19.598,13.919,100.13-34.319,76.736zm38.84-10.74c49.658-35.694-30.181-62.535-44.41-81.354,6.9042-27.726,75.365,19.909,43.564-18.1-47.578-39.499-89.63,57.287-22.228,52.714,39.317,9.9727,7.1004,58.611-19.291,29.275-56.958-14.816,23.104,44.432,42.364,17.466zm-224.11,7.8801c4.0799-39.739-28.53-116.59,34.68-121,35.008-10.69,89.641,38.774,45.336,64.698,4.6572,20.16,41.265,76.075-6.6874,52.454-10.889-18.586-49.829-60.243-44.566-10.823,1.3792,15.977-16.57,23.831-28.763,14.67zm21.162-27.64c6.792-57.177,46.977,20.305,69.639,18.305-11.896-21.095-36.762-49.617-4.0249-64.676,15.363-41.039-85.534-59.968-82.116-14.996,2.2383,23.821-10.817,80.096,13.209,83.056,4.1112-6.1851,6.2233-14.566,3.2923-21.689zm0.44902-53.444c8.1739-54.46,86.678,20.292,23.868,17.894-12.368,0.60833-31.58-0.0886-23.868-17.894zm40.721,8.0216c16.088-39.841-70.01-7.4081-20.87,2.6615,6.9695-0.80619,13.797-2.8005,20.87-2.6615zm52.186,73.851c3.1604-35.053-18.378-101.39,13.27-116.48,30.379,28.147,12.689,84.666,6.7128,117.76-6.2961,2.9359-13.916,1.4454-19.982-1.2847zm20.01-58.66v-52.904c-36.962,13.055-6.3006,67.932-15.977,97.762,27.766,25.187,12.091-34.818,15.977-44.858zm127.3,57.729c9.1005-35.766-26.264-119.2,29.946-118.47,20.841,6.4591,23.922,70.679,27.52,18.174,32.317-82.973,39.405-7.2657,22.408,76.009-1.2366,45.515-58.733,20.18-48.553-16.463-9.2622-32.531,6.7756,79.411-31.321,40.747zm20.688-48.012c-9.5383-21.501,12.627-53.678,12.331-14.844-3.4911,36.868,38.158,84.919,41.438,22.863,3.5033-29.127,6.4608-74.642,2.1969-74.894-7.2789-0.43167-25.823,61.186-27.794,55.483,3.1094-28.324-40.526-81.659-43.585-27.402,7.1301,23.334-13.905,83.368,12.476,80.087,7.0627-12.728-0.61475-27.849,2.936-41.293zm-385.51,46.44zm-11.213-16.76zm-127.65-2.6699zm-9.7736-26.373c-3.7124-15.092-1.8699-74.071,1.7504-25.798,2.3101,11.426,3.1472,63.808-1.7504,25.798zm-37.961,4.4002zm119.64-6.3548c-30.526,3.9092-8.2586-65.758-9.3768-15.906,4.2935,5.9057,30.914,14.232,9.3768,15.906zm41.231-7.7155c-3.7798-24.026-33.376-72.252-40.35-71.739-22.728,31.673,11.227-53.821,20.835-3.6542,2.7092,15.664,37.9,82.323,19.515,75.393zm-62.772-4.8494c-17.768-1.5509-8.7758-11.349,1.0867-1.5745l-0.17426,3.0624-0.91247-1.4879zm108.15-1.4206c-32.571-48.327,79.292-37.488,34.516,1.0188-11.264,1.6845-24.049,6.089-34.516-1.0188zm30.77-5.4376c22.807-42.55-58.465,1.6764-2.9505,0.74731l2.3672-0.59959h0.00001l0.58325-0.1477zm-403.5-1.89zm250.49-8.817zm47.506,0.12745zm1.3107-9.8937zm-67.811-3.1606zm-8.67-12.942zm-23.99-11.972zm30.546-21.292zm8.6112-19.364zm38.409,3.0457c-28.541,2.8798-34.799-29.448-4.576-8.4048,3.2389-0.28527,16.734,10.946,4.576,8.4048zm-145.49-3.321zm96.904-3.1555zm538.35-144z" fill="#000"/>
   <g id="text3044" style="letter-spacing:0px;word-spacing:0px;" stroke-width="6" font-weight="normal" transform="matrix(1.2222872,0,0,1.2222872,-209.01322,-62.674926)" font-style="normal" stroke="#000" font-stretch="normal" stroke-miterlimit="4" line-height="125%" font-size="53.91818237px" font-variant="normal" stroke-dasharray="none" font-family="FreeSans" fill="none">
    <path id="path3066" d="m460.44,246.12-8.9012-22.778-35.494,0-8.9565,22.778-10.947,0,31.79-77.9,11.997,0,31.293,77.9-10.781,0m-22.06-56.725c-0.58977-1.4743-1.1611-2.967-1.7139-4.4783-0.51606-1.5111-0.97678-2.8749-1.3822-4.0912-0.40548-1.2531-0.75563-2.2851-1.0505-3.0961-0.25805-0.84766-0.40548-1.3637-0.4423-1.548-0.0737,0.18436-0.23961,0.70038-0.49758,1.548-0.25805,0.84781-0.6082,1.8983-1.0505,3.1514-0.40548,1.2532-0.88463,2.6354-1.4375,4.1465-0.51605,1.5112-1.0505,3.004-1.6033,4.4783l-9.9517,25.598h29.136l-10.007-25.709"/>
    <path id="path3068" d="m514.02,246.12,0-37.927c-0.00004-2.9118-0.18433-5.3444-0.55287-7.2979-0.36863-1.9534-0.99521-3.5199-1.8798-4.6994-0.84777-1.2163-1.972-2.064-3.3725-2.5432-1.4006-0.51596-3.1145-0.77397-5.1417-0.77402-2.1009,0.00005-3.9991,0.42392-5.6946,1.2716-1.6955,0.81093-3.1514,2.0088-4.3677,3.5937-1.1795,1.5481-2.1009,3.4831-2.7644,5.8052-0.6266,2.2852-0.9399,4.9206-0.93988,7.9061v34.665h-9.8964v-47.049c-0.00001-1.2531-0.0184-2.5616-0.0553-3.9254,0-1.4006-0.0184-2.709-0.0553-3.9254-0.0369-1.2531-0.0737-2.322-0.11058-3.2067-0.0369-0.88453-0.0737-1.4558-0.11057-1.7139h9.3988c0.0368,0.18435,0.0737,0.68194,0.11058,1.4928,0.0368,0.81093,0.0737,1.7508,0.11057,2.8196,0.0737,1.0321,0.12899,2.101,0.16586,3.2067,0.0368,1.0689,0.0553,1.972,0.0553,2.7091h0.16586c0.88458-1.7323,1.8429-3.2988,2.8749-4.6994s2.2299-2.58,3.5937-3.5384c1.4006-0.99511,2.9855-1.7507,4.7547-2.2668,1.806-0.55281,3.8885-0.82924,6.2475-0.8293,4.5335,0.00006,8.1087,0.90308,10.726,2.7091,2.6537,1.8061,4.4966,4.681,5.5287,8.6248h0.16586c0.88455-1.7323,1.8797-3.2988,2.9855-4.6994,1.1057-1.4006,2.3957-2.58,3.8701-3.5384,1.4743-0.99511,3.1329-1.7507,4.9758-2.2668,1.8428-0.55281,3.9438-0.82924,6.3027-0.8293,3.0223,0.00006,5.6208,0.4055,7.7955,1.2163,2.2114,0.81093,4.0175,2.0641,5.4182,3.7595,1.4005,1.6955,2.4326,3.8886,3.0961,6.5792,0.66336,2.6538,0.99508,5.8236,0.99517,9.5094v39.862h-9.8411v-37.927c-0.00008-2.9118-0.18437-5.3444-0.55287-7.2979-0.36866-1.9534-0.99525-3.5199-1.8798-4.6994-0.84781-1.2163-1.972-2.064-3.3725-2.5432-1.4007-0.51596-3.1146-0.77397-5.1417-0.77402-2.101,0.00005-3.9992,0.40549-5.6946,1.2163-1.6955,0.77407-3.1514,1.9351-4.3677,3.4831-1.1795,1.5481-2.101,3.4831-2.7644,5.8052-0.62664,2.3221-0.93993,5.0127-0.93988,8.0719v34.665h-9.8411"/>
    <path id="path3070" d="m581.25,218.31c-0.00002,3.133,0.31328,6.0263,0.93988,8.6801,0.66343,2.6169,1.6586,4.8837,2.9855,6.8003,1.3637,1.8798,3.0961,3.3541,5.197,4.423,2.1009,1.032,4.6257,1.548,7.5743,1.548,4.3124,0.00001,7.7586-0.86615,10.339-2.5985,2.6169-1.7323,4.3861-3.9254,5.3076-6.5792l8.7354,2.4879c-0.62665,1.6586-1.5112,3.3357-2.6538,5.0311-1.1058,1.6586-2.5986,3.1698-4.4783,4.5336-1.8798,1.3269-4.2387,2.4326-7.0768,3.3172-2.8013,0.84774-6.1922,1.2716-10.173,1.2716-8.846,0-15.591-2.6354-20.235-7.9061-4.6073-5.2707-6.9109-13.103-6.9109-23.497-0.00001-5.6024,0.7003-10.339,2.1009-14.209,1.4006-3.9069,3.3172-7.0767,5.7499-9.5094,2.4326-2.4326,5.2707-4.1833,8.5142-5.2523,3.2435-1.1057,6.7082-1.6586,10.394-1.6586,5.0127,0.00006,9.1961,0.81094,12.55,2.4326,3.3909,1.6218,6.1,3.8702,8.1272,6.745,2.064,2.8381,3.5199,6.1922,4.3677,10.062,0.88454,3.8701,1.3268,8.0535,1.3269,12.55v1.3269h-42.682m32.398-7.6296c-0.55292-6.3027-2.1562-10.892-4.81-13.767-2.6538-2.9117-6.4686-4.3676-11.444-4.3677-1.6586,0.00006-3.4094,0.27649-5.2523,0.82931-1.8061,0.51607-3.4831,1.456-5.0311,2.8196-1.5481,1.3638-2.8565,3.2251-3.9254,5.584-1.0689,2.3221-1.6771,5.2892-1.8245,8.9012h32.288"/>
    <path id="path3072" d="m636.86,246.12,0-45.888c-0.00001-1.2531-0.0184-2.5247-0.0553-3.8148-0.00001-1.3268-0.0184-2.5984-0.0553-3.8148-0.0369-1.2163-0.0737-2.3589-0.11057-3.4278-0.0369-1.0688-0.0737-2.0271-0.11058-2.8749h9.3988c0.0368,0.8478,0.0737,1.8245,0.11057,2.9302,0.0737,1.0689,0.12899,2.1747,0.16586,3.3172,0.0737,1.1427,0.11056,2.2484,0.11058,3.3172,0.0368,1.0321,0.0553,1.9167,0.0553,2.6538h0.22114c0.70029-2.2852,1.4374-4.2571,2.2115-5.9157,0.81086-1.6954,1.7507-3.0776,2.8196-4.1465,1.0689-1.1057,2.3405-1.9166,3.8148-2.4326,1.4743-0.55281,3.2619-0.82924,5.3629-0.8293,0.81084,0.00006,1.5849,0.0738,2.3221,0.22115,0.73713,0.11063,1.3084,0.2212,1.7139,0.33172v9.1224c-0.66348-0.18424-1.4375-0.31325-2.3221-0.38701-0.88463-0.11053-1.8798-0.16581-2.9855-0.16587-2.2852,0.00006-4.2387,0.51607-5.8604,1.548-1.5849,1.0321-2.8934,2.4695-3.9254,4.3124-0.99518,1.8061-1.7324,3.9807-2.2115,6.5239-0.47918,2.5064-0.71875,5.2523-0.71874,8.2378v31.182h-9.9517"/>
    <path id="path3074" d="m674.4,173.58,0-9.5094,9.9517,0,0,9.5094-9.9517,0m0,72.537,0-59.821,9.9517,0,0,59.821-9.9517,0"/>
    <path id="path3076" d="m707.24,215.93c-0.00001,3.4278,0.23957,6.5792,0.71874,9.4541,0.516,2.875,1.3637,5.3629,2.5432,7.4638,1.1794,2.0641,2.7275,3.6674,4.6441,4.81,1.9535,1.1426,4.3492,1.7139,7.1873,1.7139,3.5384,0.00001,6.487-0.9583,8.846-2.8749,2.3957-1.9166,3.8701-4.8653,4.423-8.846l10.062,0.66344c-0.33178,2.4695-1.0505,4.8469-2.1562,7.132-1.1058,2.2852-2.617,4.294-4.5336,6.0263-1.8798,1.7323-4.1834,3.1329-6.9109,4.2018-2.7275,1.032-5.8789,1.548-9.4541,1.548-4.681,0-8.6617-0.79245-11.942-2.3774-3.2804-1.5849-5.9526-3.7595-8.0166-6.5239-2.0272-2.8012-3.5015-6.0816-4.423-9.8411-0.92146-3.7964-1.3822-7.906-1.3822-12.329,0-4.0175,0.33172-7.5559,0.99517-10.615,0.66344-3.096,1.5849-5.7867,2.7644-8.0719,1.2163-2.322,2.6354-4.2571,4.2571-5.8052,1.6217-1.5848,3.3725-2.838,5.2523-3.7595,1.9166-0.95825,3.9254-1.6401,6.0263-2.0456,2.1009-0.44223,4.2202-0.66338,6.358-0.66344,3.3541,0.00006,6.3396,0.46078,8.9565,1.3822,2.6169,0.92151,4.8652,2.1931,6.745,3.8148,1.9166,1.585,3.4646,3.4647,4.6441,5.6393,1.1794,2.1747,2.0087,4.5152,2.4879,7.0215l-10.228,0.77402c-0.51605-3.3172-1.8245-5.9525-3.9254-7.9061-2.101-1.9534-5.0864-2.9302-8.9565-2.9302-2.8381,0.00006-5.2154,0.47921-7.132,1.4375-1.8798,0.9215-3.4094,2.3405-4.5888,4.2571-1.1795,1.8798-2.0272,4.2572-2.5432,7.132-0.47917,2.875-0.71875,6.2475-0.71874,10.118"/>
    <path id="path3078" d="m771.54,247.23c-6.0079,0-10.523-1.5849-13.545-4.7547-3.0224-3.1698-4.5336-7.519-4.5336-13.048-0.00001-3.9438,0.73715-7.1689,2.2115-9.6753,1.5112-2.5432,3.4647-4.5335,5.8604-5.971,2.4326-1.4374,5.197-2.4326,8.2931-2.9855,3.0961-0.55284,6.2474-0.86613,9.4541-0.93988l13.435-0.22115v-3.262c-0.00005-2.4694-0.25805-4.5704-0.77402-6.3027-0.51606-1.7323-1.3085-3.1329-2.3774-4.2018-1.0689-1.0688-2.4142-1.8429-4.036-2.3221-1.5849-0.51596-3.4647-0.77396-5.6393-0.77402-1.9166,0.00006-3.649,0.14749-5.197,0.4423-1.5481,0.25806-2.8934,0.75564-4.036,1.4928-1.1426,0.70035-2.0641,1.6771-2.7644,2.9302-0.70033,1.2164-1.161,2.7644-1.3822,4.6441l-10.394-0.93988c0.36857-2.3589,1.0689-4.5151,2.1009-6.4686,1.032-1.9903,2.4879-3.7042,4.3677-5.1417,1.9166-1.4374,4.294-2.5432,7.132-3.3172,2.8749-0.81082,6.3396-1.2163,10.394-1.2163,7.519,0.00006,13.177,1.7324,16.973,5.197,3.7963,3.4279,5.6945,8.4037,5.6946,14.928v25.764c-0.00006,2.9487,0.38695,5.1786,1.161,6.6898,0.77397,1.4743,2.2483,2.2115,4.423,2.2115,0.55281,0.00001,1.1057-0.0368,1.6586-0.11057,0.55281-0.0737,1.0872-0.16586,1.6033-0.27644v6.1922c-1.2532,0.29486-2.5064,0.51601-3.7595,0.66345-1.2164,0.14743-2.5248,0.22114-3.9254,0.22114-1.8798,0-3.5016-0.23957-4.8653-0.71873-1.327-0.51601-2.4143-1.2716-3.262-2.2668-0.84778-1.032-1.4928-2.2852-1.935-3.7595-0.44234-1.5112-0.71878-3.2619-0.82931-5.2523h-0.33172c-1.0689,1.9166-2.2484,3.649-3.5384,5.197-1.2532,1.548-2.7275,2.8749-4.423,3.9807-1.6955,1.0689-3.6306,1.8982-5.8052,2.4879-2.1378,0.58973-4.6073,0.8846-7.4085,0.8846m2.2668-7.4638c3.1698,0.00001,5.9341-0.57129,8.2931-1.7139,2.3957-1.1794,4.3676-2.6722,5.9157-4.4783,1.5849-1.806,2.7643-3.7779,3.5384-5.9157,0.77397-2.1378,1.161-4.1834,1.161-6.1369v-4.9206l-10.892,0.22115c-2.4327,0.0369-4.7547,0.22117-6.9662,0.55287-2.1746,0.29489-4.0913,0.90305-5.7499,1.8245-1.6586,0.92147-2.9855,2.2115-3.9807,3.8701-0.95833,1.6586-1.4375,3.8333-1.4375,6.5239-0.00002,3.2435,0.86615,5.7499,2.5985,7.5191,1.7692,1.7692,4.2755,2.6538,7.5191,2.6538"/>
    <path id="path3080" d="m857.29,246.12,0-37.927c-0.00005-2.9118-0.2212-5.3444-0.66345-7.2979-0.40549-1.9534-1.0874-3.5199-2.0456-4.6994-0.95835-1.2163-2.23-2.064-3.8148-2.5432-1.5481-0.51596-3.4831-0.77397-5.8052-0.77402-2.359,0.00005-4.4967,0.42392-6.4133,1.2716-1.8798,0.81093-3.5015,2.0088-4.8653,3.5937-1.3269,1.5481-2.3589,3.4831-3.0961,5.8052-0.73718,2.2852-1.1058,4.9206-1.1058,7.9061v34.665h-9.9517v-47.049c-0.00001-1.2531-0.0184-2.5616-0.0553-3.9254-0.00001-1.4006-0.0184-2.709-0.0553-3.9254-0.0369-1.2531-0.0737-2.322-0.11057-3.2067-0.0369-0.88453-0.0737-1.4558-0.11058-1.7139h9.3988c0.0368,0.18435,0.0737,0.68194,0.11057,1.4928,0.0368,0.81093,0.0737,1.7508,0.11058,2.8196,0.0737,1.0321,0.12898,2.101,0.16586,3.2067,0.0368,1.0689,0.0553,1.972,0.0553,2.7091h0.16586c0.95829-1.7323,2.0088-3.2988,3.1514-4.6994s2.4695-2.58,3.9807-3.5384c1.5112-0.99511,3.2435-1.7507,5.197-2.2668,1.9534-0.55281,4.2202-0.82924,6.8003-0.8293,3.3172,0.00006,6.1737,0.4055,8.5695,1.2163,2.3957,0.81093,4.3676,2.0641,5.9157,3.7595,1.548,1.6955,2.6722,3.8886,3.3725,6.5792,0.73711,2.6538,1.1057,5.8236,1.1058,9.5094v39.862h-10.007"/>
   </g>
  </g>
 </g>
</svg>
