<?xml version="1.0" encoding="UTF-8" standalone="no"?>
<!-- Created with Inkscape (http://www.inkscape.org/) -->
<svg id="svg2985" xmlns:rdf="http://www.w3.org/1999/02/22-rdf-syntax-ns#" xmlns="http://www.w3.org/2000/svg" height="768px" width="1024px" version="1.1" xmlns:cc="http://creativecommons.org/ns#" xmlns:dc="http://purl.org/dc/elements/1.1/">
 <defs id="defs2987"></defs>
 <metadata id="metadata2990">
  <rdf:RDF>
   <cc:Work rdf:about="">
    <dc:format>image/svg+xml</dc:format>
    <dc:type rdf:resource="http://purl.org/dc/dcmitype/StillImage"/>
    <dc:title/>
   </cc:Work>
  </rdf:RDF>
 </metadata>
 <g id="layer1">
  <g id="g3010" transform="translate(22.359085,-24)">
   <path id="path3024" fill="#9fa3a3" d="m429.75,641.11c-14.449-21.963-18.746-50.409-28.274-75.191-8.5064-17.278-12.001-55.804-28.104-58.855-17.318,27.071-27.692,58.193-48.341,83.342-15.808,12.076-25.418,57.689-47.017,44.301,3.6215-28.896,33.296-48.002,45.997-73.991,13.699-23.225,19.273-51.576,39.586-71.108-21.761-9.7669-58.069-20.537-83.737-34.465-31.489-13.628-62.615-28.311-91.408-46.986-20.2-28.607,12.625-58.187,36.006-71.609,24.417-13.533,71.786,18.111,77.106-20.101,3.9808-19.01-27.811-74.64,12.419-62.49,25.262,14.914,51.234,28.696,73.761,47.709,21.473,15.33,47.551,26.046,64.82,46.139-5.9791,28.266,22.729,57.458,1.2678,81.819-14.787,29.303-56.553-9.7094-58.685,26.721,59.584,0.0734,119.18-0.85353,178.75-1.7569,24.513,12.62,28.123,46.406,44.855,67.248,9.6327,21.166,16.089-26.507,22.586-33.667,18.457-28.956,27.063-57.308,21.866-92.314-0.22735-22.786-0.47146-45.573-0.7057-68.359-25.931,0.0726-52.493-4.1758-77.905,1.3226-25.284,9.0241-9.4998-29.491,10.45-20.146,21.829-6.2994,63.458,11.018,74.173-7.5231,6.5817-21.594-16.191-56.562,4.8297-69.153,19.883,15.872,9.4312,51.405,13.56,75.418,24.778,4.4736,51.126-3.2305,76.565-2.1737,12.913-4.196,47.384-0.62048,26.263,17.307-35.935,2.1721-72.015,3.3948-107.98,5.6635-1.1375,42.834-1.2067,85.69-1.7655,128.53,21.847,36.404,30.168,79.043,48.432,117.25,5.8009,12.751,24.542,57.817-3.3147,44.354-10.177-27.86-20.438-55.926-31.676-83.549-8.8322-17.989-12.482-49.139-26.151-58.582-12.966,25.029-23.613,51.53-33.977,77.76,8.346,26.387,38.149,51.391,35.408,77.7-27.765,6.2952-29.646-49.831-47.905-53.5-13.248,13.703-16.662,61.528-39.192,48.033,2.7641-25.681,20.738-47.298,30.972-70.718-7.5303-19.182-16.936-39.943-29.986-55.34-10.39,43.213-32.237,82.462-48.675,123.43-31.05,7.5467-3.2984-38.421,2.8094-52.413,14.864-30.145,24.346-63.312,36.104-94.132-27.123-8.1842-60.244,0.50496-89.542-2.3007-29.373,2.3281-64.769-4.9378-90.653,2.9526-4.8672,17.108,8.5432,30.341,12.759,45.908,12.274,36.368,25.385,72.614,36.602,109.24,0.32054,6.2474-7.2521,11.997-12.951,8.2709zm-58.39-175.36c3.2058-11.769,18.373-43.636-0.0261-18.488-9.2858,8.8423-21.96,30.022,0.0261,18.488zm-30.36-6.52c4.4934-11.796,30.201-32.63,26.691-38.983-17.723-1.8177-62.389,12.162-47.608,32.953,6.5,1.5456,14.251,7.8492,20.917,6.0304zm-41.04-22.845c-0.19824-15.922,53.893-32.992,18.41-29.333-29.94-1.4118-71.162,30.107-20.539,33.457l2.1287-4.1239zm135.16-15.246c20.049-6.8735-1.2017-51.586-5.6685-17.057-9.8783,11.444-30.806,17.594-2.5393,19.769l4.168-0.72225,4.0398-1.9892zm-183.12-9.57zm118.7-10.178c23.482-8.1195,46.791-45.822,38.217-64.348-13.789-7.1937-11.201,34.651-30.92,38.389-6.182,9.9739-45.82,36.135-7.297,25.959zm37.629-1.7448c13.538-10.352,12.75-35.943,27.097-39.493-10.425-22.658-16.208,28.095-27.919,35.296-9.8294,4.6022-1.3014,6.8199,0.82187,4.1975zm-168.33-8.64zm-14-10zm140.84-18.925c27.472-14.223,16.556-53.025-7.9896-56.649,10.244,22.073,0.79537,52.579-8.5953,67.041,5.7044,5.0703,11.834-7.8359,16.585-10.392zm-125.34,8.92zm99-15.281c8.7125-18.907-0.5288-51.751,7.4068-60.475-22.877-19.292-8.4467,21.04-11.912,35.3-3.8138,11.196-7.7298,28.259,1.4599,30.977l3.0453-5.8015h-0.00004zm-29.5-10.4zm5-67.26zm261-61.387c-35.549-5.6917-31.504-64.84,1.4823-70.628,28.114-7.6181,26.402,25.368-1.0095,18.522-22.485,19.785,4.2658,48.107,27.149,30.41,23.5,12.94-17.05,27.95-27.62,21.7zm179.05-8.471c-5.0528-13.784-15.787-61.69,7.88-55.566-1.7444,12.132,18.356,66.38-7.88,55.566zm-121.74-2.6191c-6.7245-10.37-0.56422-26.886-1.8671-39.238-0.10669-23.868,26.237-14.334,16.891,4.8215-2.2146,10.679,6.4898,44.953-15.024,34.416zm76.69-1.58c-30.915,1.5003-10.437-45.44-35.447-36.958-10.115-18.547,22.165-23.319,24.022-41.215,16.816-3.5,2.8399,23.564,24.218,14.146,24.216,22.893-32.871,8.1502-17.767,35.725-3.3732,21.181,53.078,3.0834,28.197,27.554-7.5044,2.237-15.564,1.937-23.223,0.74661zm-72.343-64.056c-12.879-24.068,25.133-47.085,47.455-51.179,29-5.9624,61.685,1.4595,76.688,29.464,18.859,17.703-12.377,27.977-18.566,7.0049-17.688-24.918-53.026-24.501-75.804-7.1736-11.561,4.664-15.074,29.124-29.773,21.883z"/>
   <path id="path3022" fill="#cb7293" d="m428.69,639.75c-19.315-42.893-27.998-90.029-48.193-132.64-21.98-1.6225-26.183,48.009-43.481,64.097-19.144,18.609-31.047,62.002-55.935,65.654-5.3354-25.255,26.942-43.196,37.006-65.688,17.936-20.418,19.676-49.058,37.421-69.765,27.882-22.706-27.639-19.231-41.392-31.963-39.714-18.124-80.246-34.602-117.75-57.148-27.206-16.487-6.2833-51.784,14.206-65.374,20.88-20.009,52.122-9.9079,77.668-9.4135,30.255-15.895,4.912-51.889,5.4886-76.412,15.028-25.877,44.755,15.666,65.218,20.222,28.023,23.478,61.426,39.698,89.799,62.432,10.229,13.367-1.6426,32.332,8.2443,45.624,19.202,30.533-20.883,65.969-50.464,47.787-15.775,5.8191-15.044,27.522,5.3698,19.848,55.189,0.91267,110.5-1.7786,165.6-0.48601,20.297,19.502,28.382,49.417,44.05,72.911,16.688-13.486,20.962-57.566,41.381-77.141,4.4234-7.581,0.42836-19.921,1.6498-29.313-0.56595-31.893,0.28697-63.876-1.9477-95.688-24.9-2.4885-50.125-1.1638-75.168-1.7878-22.627,16.13-15.993-25.1,6.6517-15.6,22.936-5.6574,65.338,11.211,76.207-8.6591,6.139-21.415-15.14-54.401,3.6117-68.223,18.816,16.611,7.8956,51.518,13.356,75.366,27.259,4.2267,56.031-3.5855,83.923-2.4976,16.216-8.4717,38.184,12.373,12.821,16.58-34.02,1.221-68.194,1.8686-102.06,5.1519-2.4528,42.97-1.487,86.108-2.2438,129.15,22.663,38.804,31.528,83.843,51.21,124.15,5.3325,11.542,18.878,51.815-5.0503,35.468-13.831-40.668-31.038-80.311-44.908-121.08-3.942-14.006-13.891-32.184-19.89-8.8684-8.8943,22.974-19.699,45.127-29.119,67.896,13.56,23.218,26.788,46.828,39.024,70.602-19.114,21.454-31.085-30.803-42.812-44.429-12.378-13.622-19.488,30.096-29.253,39.653-12.865,26.532-21.665-9.1612-7.2952-19.982,7.4342-15.134,15.109-30.148,22.669-45.219-8.2299-20.19-18.332-40.554-30.628-57.868-11.396,43.414-32.621,83.416-49.237,124.97-29.677,9.1019-0.85213-39.788,5.1394-53.039,14.529-29.112,22.504-61.043,34.995-90.821-17.213-13.137-49.464-1.1781-72.593-4.7862-37.078,0.28401-74.176-0.10313-111.24,1.0493-2.8441,22.158,17.168,48.025,22.242,72.08,9.0747,28.659,19.872,56.819,28.495,85.567,2.0689,7.337-7.5196,10.938-12.797,7.6386zm-56.69-171.68c4.2093-15.879,21.289-50.849-0.65252-20.889-8.502,10.196-25.917,28.85,0.65252,20.889zm-18.89-25.57c14.988-14.954,24.86-28.793-3.0765-20.627-14.3-1.1985-52.067,27.061-26.197,33.9,10.438,5.7645,19.292,7.6237,23.669-5.9871l2.8225-3.7402,2.7813-3.5456zm-55.11-0.9c2.3195-19.346,30.558-28.194,36.956-36.361-24.503-3.8416-50.676,10.703-68.808,17.889-11.508,6.2369,29.624,19.874,31.853,18.472zm135.3-18.209c24.206-6.0758,2.4381-54.901-3.8308-19.249-7.7641,13.018-38.486,15.176-8.0923,20.165,3.9304,0.78331,8.2236,0.86103,11.923-0.9155zm-168.52-5.2254zm-11.606-8.6557zm117.24-8.1252c23.97-8.3526,50.829-48.99,35.995-67.354-8.7921,15.419-25.462,47.515-48.097,58.573-19.694,16.171-2.512,10.157,12.102,8.7813zm-138.41-0.29c14.003-7.7717,8.1831-18.078-2.3999-3.1889-2.3146,1.19,1.2688,6.0711,2.3999,3.1889zm176.33-1.4408c13.602-10.884,13.018-37.529,28.671-38.992-12.003-26.353-17.192,27.741-29.493,34.794-9.8293,4.6022-1.3016,6.82,0.82191,4.1975zm-147.18-13.3zm-58.304-1.7841zm26.15-1.12zm91-1.3176zm26.601-1.669zm-61.637-3.9096zm70.04-1.71c22.423-16.207,45.197-51.803,9.5474-68.647-12.486-8.176-39.985-35.284-29.089-1.8952-0.37988,14.982,4.2616,31.316-6.6121,43.853,4.3284,8.9433,7.676,28.179,11.76,7.091,11.814-13.662-9.6482-73.146,18.584-48.243,12.233,22.36-3.3507,54.838-9.9473,66.829-0.95619-0.88171,5.6983,4.1364,5.756,1.0118zm-113.09-1.7276zm18.89-6.3zm19.262-1.8625zm19.44-2.94zm14.5-2.5314zm-2.819-14.569zm4.2631-8.8188zm0.43881-60.174zm260.57-60.87c-33.977-6.9238-28.252-62.376,2.9468-67.591,21.717-7.7149,26.606,21.521,2.1711,13.879-31.301,14.73-3.5137,57.441,23.911,35.348,16.683,14.902-19.198,21.951-29.029,18.364zm180.22-7.8587c-3.5022-13.747-14.404-58.458,6.8867-52.14-3.8392,11.709,16.772,60.155-6.8867,52.14zm-119.35-1.1875c-10.75-9.4247-4.125-69.208,11.353-46.186-6.9364,14.087,6.4668,37.899-7.6704,46.998l-3.683-0.81139zm68.146-4.9849c-24.425-5.4355-4.67-48.182-29.135-35.673-5.6715-16.994,22.989-19.194,23.595-37.614,15.131-2.7262,2.0611,23,23.159,13.548,20.607,19.224-32.777,7.0966-18.978,32.559-7.6539,25.48,52.004,5.8749,29.233,28.36-9.2403,0.51211-18.923,1.8348-27.875-1.1798zm-67.016-61.301c-7.733-23.797,23.774-47.61,47.666-50.941,29-5.9624,61.685,1.4595,76.688,29.464,19.073,27.608-19.133,18.53-25.79-0.14762-24.257-24.614-68.591-10.298-83.951,17.506-3.5576,3.509-9.5074,9.8083-14.612,4.1183z"/>
   <path id="path3020" fill="#5a878a" d="m428.69,639.75c-19.315-42.893-27.998-90.029-48.193-132.64-21.98-1.6225-26.183,48.009-43.481,64.097-19.144,18.609-31.047,62.002-55.935,65.654-5.3354-25.255,26.942-43.196,37.006-65.688,17.936-20.418,19.676-49.058,37.421-69.765,27.882-22.706-27.639-19.231-41.392-31.963-39.714-18.124-80.246-34.602-117.75-57.148-27.206-16.487-6.2833-51.784,14.206-65.374,20.88-20.009,52.122-9.9079,77.668-9.4135,30.255-15.895,4.912-51.889,5.4886-76.412,15.028-25.877,44.755,15.666,65.218,20.222,28.023,23.478,61.426,39.698,89.799,62.432,10.229,13.367-1.6426,32.332,8.2443,45.624,19.202,30.533-20.883,65.969-50.464,47.787-15.775,5.8191-15.044,27.522,5.3698,19.848,55.189,0.91267,110.5-1.7786,165.6-0.48601,20.297,19.502,28.382,49.417,44.05,72.911,16.688-13.486,20.962-57.566,41.381-77.141,4.4234-7.581,0.42836-19.921,1.6498-29.313-0.56595-31.893,0.28697-63.876-1.9477-95.688-24.9-2.4885-50.125-1.1638-75.168-1.7878-22.627,16.13-15.993-25.1,6.6517-15.6,22.936-5.6574,65.338,11.211,76.207-8.6591,6.139-21.415-15.14-54.401,3.6117-68.223,18.816,16.611,7.8956,51.518,13.356,75.366,27.259,4.2267,56.031-3.5855,83.923-2.4976,16.216-8.4717,38.184,12.373,12.821,16.58-34.02,1.221-68.194,1.8686-102.06,5.1519-2.4528,42.97-1.487,86.108-2.2438,129.15,22.663,38.804,31.528,83.843,51.21,124.15,5.3325,11.542,18.878,51.815-5.0503,35.468-13.831-40.668-31.038-80.311-44.908-121.08-3.942-14.006-13.891-32.184-19.89-8.8684-8.8943,22.974-19.699,45.127-29.119,67.896,13.56,23.218,26.788,46.828,39.024,70.602-19.114,21.454-31.085-30.803-42.812-44.429-12.378-13.622-19.488,30.096-29.253,39.653-12.865,26.532-21.665-9.1612-7.2952-19.982,7.4342-15.134,15.109-30.148,22.669-45.219-8.2299-20.19-18.332-40.554-30.628-57.868-11.396,43.414-32.621,83.416-49.237,124.97-29.677,9.1019-0.85213-39.788,5.1394-53.039,14.529-29.112,22.504-61.043,34.995-90.821-17.213-13.137-49.464-1.1781-72.593-4.7862-37.078,0.28401-74.176-0.10313-111.24,1.0493-2.8441,22.158,17.168,48.025,22.242,72.08,9.0747,28.659,19.872,56.819,28.495,85.567,2.0689,7.337-7.5196,10.938-12.797,7.6386zm-56.69-171.68c2.231-12.652,24.465-55.317,1.4488-25.689-7.3355,9.8973-33.128,34.816-1.4488,25.689zm-27.1-12.16c8.3278-14.808,46.253-45.739,8.827-36.292-24.609-1.1442-61.691,35.314-18.957,40.546,5.3149,6.4026,7.4716-2.1258,10.13-4.2544zm-45.48-13.16c5.4258-20.411,26.887-31.306,45.479-36.899,22.73,0.81146,46.79-8.2089,56.628-30.286,6.0534-14.115,25.015-43.657-1.1986-41.773-2.2344,30.886-33.052,46.971-50.808,67.995-25.413,6.0835-56.955,1.4808-77.995,21.185-25.553,2.1063,21.484,19.373,27.894,19.778zm133.88-19.359c24.864-3.9508,1.317-57.704-3.5128-22.569-3.9962,13.794-40.36,17.682-12.281,22.157,4.9017,2.1556,10.829,2.694,15.793,0.41189zm-168.52-5.2254zm-11.606-8.6557zm159.39-10.553c10.968-12.239,8.4702-33.74,24.239-38.726-13.786-26.331-18.153,27.333-31.378,35.307-11.751,12.482,0.65831,6.9162,7.1391,3.4185zm-180.56,2.13c14.003-7.7717,8.1831-18.078-2.3999-3.1889-2.3146,1.19,1.2688,6.0711,2.3999,3.1889zm29.149-14.741zm-58.304-1.7841zm26.15-1.12zm91-1.3176zm26.601-1.669zm-61.637-3.9096zm82.75-13.29c11.356-8.8983,26.838-30.627,13.671-43.014-14.31-11.12-33.47-30.7-48.99-32.49,5.0539,20.422,2.9305,46.113-4.7357,62.58,7.2212,9.0943,10.488,25.78,14.958,4.0044,14.048-12.247-11.796-64.608,14.311-48.316,12.619,22.594-2.1433,54.605-8.2216,67.359,6.8566,7.9612,13.476-7.0364,19.002-10.128zm-125.8,9.8557zm18.89-6.31zm19.262-1.8625zm19.44-2.94zm14.5-2.5314zm-0.94811-14.541c7.0999-11.234,9.6243-30.592,1.3278-9.7728-1.5257,1.1162-14.778,26.652-1.3278,9.7728zm4.0395-65.098zm259.36-64.79c-33.977-6.9238-28.252-62.376,2.9468-67.591,21.717-7.7149,26.606,21.521,2.1711,13.879-31.301,14.73-3.5137,57.441,23.911,35.348,16.683,14.902-19.198,21.951-29.029,18.364zm180.22-7.8587c-3.5022-13.747-14.404-58.458,6.8867-52.14-3.8392,11.709,16.772,60.155-6.8867,52.14zm-119.35-1.1875c-10.75-9.4247-4.125-69.208,11.353-46.186-6.9364,14.087,6.4668,37.899-7.6704,46.998l-3.683-0.81139zm68.146-4.9849c-24.425-5.4355-4.67-48.182-29.135-35.673-5.6715-16.994,22.989-19.194,23.595-37.614,15.131-2.7262,2.0611,23,23.159,13.548,20.607,19.224-32.777,7.0966-18.978,32.559-7.6539,25.48,52.004,5.8749,29.233,28.36-9.2403,0.51211-18.923,1.8348-27.875-1.1798zm-66.558-62.624c-7.1018-28.412,36.217-51.464,63.596-49.525,27.949-4.9269,61.366,17.736,63.083,45.263-22.856,3.4574-36.43-42.111-67.199-29.781-27.585-1.7615-39.547,32.702-59.48,34.043z"/>
   <path id="path3018" fill="#5e4a91" d="m428.25,638.75c-19.111-43.085-27.071-90.712-48.497-132.9-22.508,4.9045-26.544,49.856-45.011,68.209-17.292,19.737-29.774,53.541-51.627,63.828-12.235-22.582,24.894-42.287,32.749-63.184,19.24-20.665,21.21-50.088,38.734-71.941,31.076-24.424-23.127-20.157-38.198-32.592-40.41-18.165-81.464-35.075-119.59-57.799-27.284-16-6.9921-50.434,12.703-64.297,21.71-22.352,54.859-9.3458,81.511-11.243,30.645-21.137-6.6739-57.261,6.5893-82.79,24.121-2.4356,48.677,23.148,71.075,34.546,24.915,21.838,56.709,34.512,81.126,56.703-2.358,27.933,22.233,58.945,3.0821,83.808-15.904,28.345-57.23-10.837-59.898,27.842,60.958,1.2984,122.03,0.15803,182.94-0.56387,22.109,17.814,29.417,49.93,45.37,73.566,16.82-12.633,21.477-55.602,39.74-76.073,9.6813-20.71,0.70343-48.748,3.2445-72.235-2.6935-24.463,12.33-68.399-28.342-55.728-16.549,0.611-34.071-1.7007-50.093,0.57355-23.549,11.621-10.957-25.754,8.295-15.988,25.446-0.52757,50.898-0.66978,76.348-0.99502,0.83389-23.684-1.8649-47.172-4.3011-70.613,24.076-16.403,17.123,37.567,19.822,53.087-1.0013,11.552-0.67681,21.771,13.745,17.815,31.279,0.15133,63.297-6.8803,94.177-2.341,1.9981,27.612-46.768,9.0977-65.442,16.728-20.194,4.6162-58.848-8.5727-48.334,26.096-0.25323,35.893-0.12119,71.788-0.17117,107.68,22.444,38.246,31.121,82.735,50.517,122.53,5.196,11.307,19.767,50.964-4.7284,35.737-14.269-43.145-32.122-85.114-47.541-127.88-14.064-37.164-24.597,24.931-34.504,38.074-20.948,25.268,0.0891,48.35,12.595,72.057,11.878,9.5146,21.159,47.587-2.1937,27.512-12.495-12.553-18.9-47.944-33.183-49.24-13.679,13.692-14.489,53.789-36.081,51.135-3.3096-27.298,26.829-50.271,28.002-76.779-7.4909-13.982-19.839-52.996-30.832-49.846-11.301,42.196-31.966,80.95-48.262,121.22-28.902,4.5321,1.0701-38.596,5.8579-53.059,13.814-30.09,24.82-62.18,34.929-93.139-22.03-8.8834-50.832-0.21133-75.467-2.4922-35.315,1.4829-70.692-2.8736-105.92-0.0729-11.87,16.37,15.944,47.872,18.601,69.944,9.0818,29.945,21.468,58.912,29.309,89.177,1.2134,7.0246-8.2486,11.101-12.844,5.9269zm-55.535-173.25c4.8634-14.568,21.501-50.959-0.45078-21.643-10.461,9.3293-27.009,32.91-0.62835,24.845l1.07-3.2zm-27.812-9.5903c8.3278-14.808,46.253-45.739,8.827-36.292-21.178-2.0613-62.041,32.781-22.728,39.265,5.7461,3.3667,11.022,4.4713,13.901-2.9729zm-45.49-13.16c5.4258-20.411,26.887-31.306,45.479-36.899,22.473,0.89204,45.682-8.1068,56.27-29.185,4.6514-14.524,26.158-41.914-0.44134-43.892-3.1643,31.953-33.906,50.131-54.303,70.75-26.685,0.9298-57.417,4.1504-78.423,20.476-19.628,0.11276,31.12,22.279,31.418,18.75zm136.76-20.866c21.224-6.0782-2.4971-55.642-6.3947-21.061-8.3276,14.947-40.041,18.961-7.6279,23.717,4.7786,0.99878,9.9642,0.0997,14.023-2.6557zm-171.63-2.9707zm-11.377-9.4028zm159.39-10.553c10.62-12.703,9.1869-33.527,24.235-39.204-13.571-25.584-18.34,27.829-31.374,35.786-11.751,12.482,0.65831,6.9162,7.1391,3.4185zm-179.65,0.79c18.526-7.8378-0.5425-17.098-3.5985,0.61944,0.20557,2.0131,3.7556,2.3201,3.5985-0.61944zm30.09-11.45zm-60-3.3zm133,0.44098zm-107.44-1.5363zm117.59-2.3409zm-25.762,0.0136zm-34.966-5.2445zm82.29-13.08c26.232-16.107,21.093-48.805-6.326-59.662-12.308-10.326-36.294-27.783-27.012,0.35089,9.5644,21.329-15.693,41.252-1.0331,56.371,8.945,17.087,16.832-28.961,12.764-38.861-12.758-22.128,15.874-27.108,13.971-3.4319,4.0482,18.977-0.0885,42.592-14.307,53.588,9.1417,10.847,14.901-3.3619,21.943-8.3546zm-125.8,9.8557zm18.89-6.31zm18.977-1.3567zm43.22,1.12zm-23-4.0238zm14.325-2.1932zm-1.2728-15.415c7.3246-11.777,9.437-30.452,1.0419-9.4111-2.4456,1.4101-14.242,26.073-1.0419,9.4111zm4.046-65.11zm321.56-141.65c-4.2538-29.804,36.197-51.04,63.84-49.318,27.949-4.9269,61.366,17.736,63.083,45.263-22.856,3.4574-36.43-42.111-67.199-29.781-27.648-2.0485-39.742,33.49-59.723,33.836z"/>
   <path id="path3016" fill="#e51240" d="m428.25,638.75c-19.111-43.085-27.071-90.712-48.497-132.9-22.508,4.9045-26.544,49.856-45.011,68.209-17.292,19.737-29.774,53.541-51.627,63.828-12.235-22.582,24.894-42.287,32.749-63.184,19.24-20.665,21.21-50.088,38.734-71.941,31.076-24.424-23.127-20.157-38.198-32.592-40.41-18.165-81.464-35.075-119.59-57.799-27.284-16-6.9921-50.434,12.703-64.297,21.71-22.352,54.859-9.3458,81.511-11.243,30.645-21.137-6.6739-57.261,6.5893-82.79,24.121-2.4356,48.677,23.148,71.075,34.546,24.915,21.838,56.709,34.512,81.126,56.703-2.358,27.933,22.233,58.945,3.0821,83.808-15.904,28.345-57.23-10.837-59.898,27.842,60.958,1.2984,122.03,0.15803,182.94-0.56387,22.109,17.814,29.417,49.93,45.37,73.566,16.82-12.633,21.477-55.602,39.74-76.073,9.6813-20.71,0.70343-48.748,3.2445-72.235-2.6935-24.463,12.33-68.399-28.342-55.728-16.549,0.611-34.071-1.7007-50.093,0.57355-23.549,11.621-10.957-25.754,8.295-15.988,25.446-0.52757,50.898-0.66978,76.348-0.99502,0.83389-23.684-1.8649-47.172-4.3011-70.613,24.076-16.403,17.123,37.567,19.822,53.087-1.0013,11.552-0.67681,21.771,13.745,17.815,31.279,0.15133,63.297-6.8803,94.177-2.341,1.9981,27.612-46.768,9.0977-65.442,16.728-20.194,4.6162-58.848-8.5727-48.334,26.096-0.25323,35.893-0.12119,71.788-0.17117,107.68,22.444,38.246,31.121,82.735,50.517,122.53,5.196,11.307,19.767,50.964-4.7284,35.737-14.269-43.145-32.122-85.114-47.541-127.88-14.064-37.164-24.597,24.931-34.504,38.074-20.948,25.268,0.0891,48.35,12.595,72.057,11.878,9.5146,21.159,47.587-2.1937,27.512-12.495-12.553-18.9-47.944-33.183-49.24-13.679,13.692-14.489,53.789-36.081,51.135-3.3096-27.298,26.829-50.271,28.002-76.779-7.4909-13.982-19.839-52.996-30.832-49.846-11.301,42.196-31.966,80.95-48.262,121.22-28.902,4.5321,1.0701-38.596,5.8579-53.059,13.814-30.09,24.82-62.18,34.929-93.139-22.03-8.8834-50.832-0.21133-75.467-2.4922-35.315,1.4829-70.692-2.8736-105.92-0.0729-11.87,16.37,15.944,47.872,18.601,69.944,9.0818,29.945,21.468,58.912,29.309,89.177,1.2134,7.0246-8.2486,11.101-12.844,5.9269zm-55.535-173.25c4.8634-14.568,21.501-50.959-0.45078-21.643-10.461,9.3293-27.009,32.91-0.62835,24.845l1.07-3.2zm-27.812-9.5903c8.3278-14.808,46.253-45.739,8.827-36.292-21.178-2.0613-62.041,32.781-22.728,39.265,5.7461,3.3667,11.022,4.4713,13.901-2.9729zm-45.49-13.16c5.4258-20.411,26.887-31.306,45.479-36.899,22.473,0.89204,45.682-8.1068,56.27-29.185,4.6514-14.524,26.158-41.914-0.44134-43.892-1.838,24.05-26.756,52.609-46.082,55.728-3.9718-25.216,48.808-40.961,26.159-68.988-13.27-9.47-38.87-37.13-47.74-28.51,2.6269,19.154,6.7446,65.311-18.705,64.457-5.2448-9.6148,14.027-46.891-0.4906-19.666-11.329,26.076-40.924,16.916-64.376,16.365-22.693-3.9076-52.229,22.424-48.524,43.096,31.395,17.963,63.296,34.917,96.805,48.684l1.6398-1.1872zm41.58-74.75c3.7611-19.608,7.8386-43.296,3.7804-64.742,24.584-3.2872,23.136,59.571-1.4671,66.593l-2.31-1.85zm95.181,53.884c21.224-6.0782-2.4971-55.642-6.3947-21.061-8.3276,14.947-40.041,18.961-7.6279,23.717,4.7786,0.99878,9.9642,0.0997,14.023-2.6557zm-23.612-22.926c10.62-12.703,9.1869-33.527,24.235-39.204-13.571-25.584-18.34,27.829-31.374,35.786-11.751,12.482,0.65831,6.9162,7.1391,3.4185zm-95.47-119.13zm321.56-141.64c-4.2538-29.804,36.197-51.04,63.84-49.318,27.949-4.9269,61.366,17.736,63.083,45.263-22.856,3.4574-36.43-42.111-67.199-29.781-27.648-2.0485-39.742,33.49-59.723,33.836z"/>
   <path id="path3014" fill="#5f5e5d" d="m428.25,638.75c-19.111-43.085-27.071-90.712-48.497-132.9-22.508,4.9045-26.544,49.856-45.011,68.209-17.292,19.737-29.774,53.541-51.627,63.828-12.235-22.582,24.894-42.287,32.749-63.184,19.24-20.665,21.21-50.088,38.734-71.941,31.076-24.424-23.127-20.157-38.198-32.592-40.41-18.165-81.464-35.075-119.59-57.799-27.284-16-6.9921-50.434,12.703-64.297,21.71-22.352,54.859-9.3458,81.511-11.243,30.645-21.137-6.6739-57.261,6.5893-82.79,24.121-2.4356,48.677,23.148,71.075,34.546,24.915,21.838,56.709,34.512,81.126,56.703-2.358,27.933,22.233,58.945,3.0821,83.808-15.904,28.345-57.23-10.837-59.898,27.842,60.958,1.2984,122.03,0.15803,182.94-0.56387,22.109,17.814,29.417,49.93,45.37,73.566,16.82-12.633,21.477-55.602,39.74-76.073,9.6813-20.71,0.70343-48.748,3.2445-72.235-2.6935-24.463,12.33-68.399-28.342-55.728-16.549,0.611-34.071-1.7007-50.093,0.57355-23.549,11.621-10.957-25.754,8.295-15.988,25.446-0.52757,50.898-0.66978,76.348-0.99502,0.83389-23.684-1.8649-47.172-4.3011-70.613,24.076-16.403,17.123,37.567,19.822,53.087-1.0013,11.552-0.67681,21.771,13.745,17.815,31.279,0.15133,63.297-6.8803,94.177-2.341,1.9981,27.612-46.768,9.0977-65.442,16.728-20.194,4.6162-58.848-8.5727-48.334,26.096-0.25323,35.893-0.12119,71.788-0.17117,107.68,22.444,38.246,31.121,82.735,50.517,122.53,5.196,11.307,19.767,50.964-4.7284,35.737-14.269-43.145-32.122-85.114-47.541-127.88-14.064-37.164-24.597,24.931-34.504,38.074-20.948,25.268,0.0891,48.35,12.595,72.057,11.878,9.5146,21.159,47.587-2.1937,27.512-12.495-12.553-18.9-47.944-33.183-49.24-13.679,13.692-14.489,53.789-36.081,51.135-3.3096-27.298,26.829-50.271,28.002-76.779-7.4909-13.982-19.839-52.996-30.832-49.846-11.301,42.196-31.966,80.95-48.262,121.22-28.902,4.5321,1.0701-38.596,5.8579-53.059,13.814-30.09,24.82-62.18,34.929-93.139-22.03-8.8834-50.832-0.21133-75.467-2.4922-35.315,1.4829-70.692-2.8736-105.92-0.0729-11.87,16.37,15.944,47.872,18.601,69.944,9.0818,29.945,21.468,58.912,29.309,89.177,1.2134,7.0246-8.2486,11.101-12.844,5.9269zm-55.535-173.25c5.2451-26.893,23.469-58.03,54.779-40.544,29.648-4.1167,10.343-29.927,8.7827-46.542-1.6001-9.4994,6.1256-23.514-5.402-28.415-27.937-17.784-56.129-35.297-82.286-55.741-12.501-5.0295-49.248-35.897-30.819-2.8555,2.1314,16.147,4.5689,34.123-5.9469,48.043-13.786,24.251-44.16,10.74-67.763,12.829-19.535-1.4662-50.859,26.416-41.606,43.733,38.761,23.066,79.893,41.608,121.04,59.992,14.127,1.1585,39.55,23.513,49.225,9.5zm-17.475-76.261zm-0.67423-11.532zm-40.11-22.161c-10.51-15.811,28.086,0.25959,2.3671,1.7937l-2.3671-1.7937zm440.17-220.62zm-116.88-1.01c-8.3146-21.648,23.768-9.9433,4.5351,0.92166l-4.5351-0.92166z"/>
   <path id="path3012" fill="#050505" d="m429.03,638.03c-19.942-44.405-26.872-94.473-51.455-136.84-21.759,18.837-25.775,51.181-44.286,73.265-17.256,18.045-29.794,56.918-51.842,61.254-0.53661-27.287,30.949-46.303,42.457-70.997,14.889-21.056,18.277-48.287,36.294-67.835,22.592-18.782-29.166-14.446-38.949-25.864-41.551-18.455-83.836-35.598-122.89-59.065-29.872-16.91-4.4274-54.253,16.977-67.391,13.226-12.697,32.148-7.0984,48.456-8.3415,36.441,17.225,50.542-28.233,34.294-54.01-15.375-31.486,16.287-34.731,33.861-14.983,30.198,15.16,54.918,38.597,84.324,55.138,26.804,11.241,41.503,32.988,36.74,62.318,24.08,27.746-12.734,69.949-43.576,51.781-18.374-1.1083-23.33,31.52,0.65589,21.823,55.622,0.83159,111.42-0.2249,166.92-0.59722,20.386,19.707,28.284,50.187,44.352,73.768,16.799-12.939,21.948-53.133,38.045-74.662,15.815-22.283,1.6459-57.536,5.8131-84.975-0.33769-23.572,6.7387-58.061-29.102-46.885-16.849,0.68972-35.032-1.9055-51.154,0.70617-23.04,10.029-5.1902-25.011,12.175-14.139,25.022-0.75416,50.231,0.58666,75.137-1.603,0.14444-23.362-2.5291-46.544-4.9519-69.669,19.899-16.982,15.277,32.23,17.634,46.075-10.906,38.105,32.786,21.801,54.754,22.235,14.211,4.0613,59.66-14.313,52.836,10.247-28.281,4.5452-57.873,2.5268-86.583,5.8811-41.231-9.5914-23.207,38.729-26.97,62.966,0.59641,23.764-1.1723,48.185,0.85516,71.552,20.852,37.765,30.473,80.516,48.746,119.55,7.8541,10.901,16.917,57.762-3.6745,32.9-13.764-43.275-31.891-85.09-47.435-127.77-14.66-31.445-24.165,28.035-33.395,39.356-25.644,28.989,2.4342,55.382,15.162,82.598,19.264,14.694,2.9365,38.952-8.8606,12.806-10.25-13.077-25.573-69.366-37.173-29.274-6.7997,9.1893-19.558,56.171-28.802,30.391,5.2119-27.657,39.762-52.375,24.467-80.489-7.716-11.972-26.119-65.477-31.001-27.048-11.833,38.125-30.033,73.835-45.318,110.48-25.788-0.35369,5.0551-40.562,9.0658-55.294,14.619-28.13,20.675-59.837,34.813-88.011-17.551-18.04-54.895-1.6146-79.95-6.691-36.079,1.3777-72.769-4.1952-108.47,1.3057-0.36959,22.024,16.832,45.561,22.35,68.52,9.4276,29.457,20.194,58.521,29.447,87.989,2.8402,6.9249-5.6802,12.613-10.805,7.5262zm-57.44-166.8c7.0146-28.033,20.835-64.47,56.338-45.409,36.758-9.1189,0.0539-47.267,8.8821-71.759-23.25-18.4-51.13-30.8-73.81-50.51-13.3-8.9034-43.358-32.049-51.595-25.844,12.465,18.934,11.944,63.105-12.214,67.387-8.3813,21.535-51.601-4.3788-71.691,9.3163-20.33,11.812-45.374,43.917-8.4176,51.6,23.735,12.879,42.041,25.725,65.278,33.268,27.92,11.957,55.296,26.495,85.246,32.542l1.9809-0.58459h0.00002zm-56.09-118.23zm439.67-220.31zm-114.92,0.65z"/>
  </g>
  <g id="text3033" style="letter-spacing:0px;word-spacing:0px;" font-weight="normal" font-size="44px" font-style="normal" font-stretch="normal" line-height="125%" font-variant="normal" font-family="FreeSans" fill="#000">
   <path id="path3038" style="" d="m45.308,696.36-12.364,0-3.388,9.636-4.356,0,11.44-32.076,5.28,0,11.264,32.076-4.576,0-3.3-9.636m-1.144-3.432-4.928-14.608-5.28,14.608,10.208,0"/>
   <path id="path3040" style="" d="m56.484,682.94,3.388,0,0,3.256c0.99733-1.3786,2.0387-2.376,3.124-2.992,1.1147-0.61598,2.4347-0.92398,3.96-0.924,2.8453,0.00002,4.9133,1.1734,6.204,3.52,1.0853-1.2906,2.156-2.2,3.212-2.728,1.056-0.52798,2.3466-0.79198,3.872-0.792,2.1413,0.00002,3.784,0.55736,4.928,1.672,1.1733,1.0854,1.76,2.6694,1.76,4.752v17.292h-3.696v-15.884c-0.00003-1.4666-0.38136-2.596-1.144-3.388-0.73336-0.82131-1.7747-1.232-3.124-1.232-1.496,0.00002-2.772,0.58669-3.828,1.76-1.056,1.1734-1.584,2.596-1.584,4.268v14.476h-3.696v-15.884c-0.000016-1.4666-0.38135-2.596-1.144-3.388-0.73335-0.82131-1.7747-1.232-3.124-1.232-1.496,0.00002-2.772,0.58669-3.828,1.76-1.056,1.1734-1.584,2.596-1.584,4.268v14.476h-3.696v-23.056"/>
   <path id="path3042" style="" d="m111.73,695.7-16.984,0c0.05866,2.4053,0.67466,4.3267,1.848,5.764,1.2027,1.4373,2.8453,2.156,4.928,2.156,2.992,0,5.0013-1.54,6.028-4.62h3.696c-0.46935,2.5227-1.5694,4.488-3.3,5.896-1.7307,1.408-3.916,2.112-6.556,2.112-3.2267,0-5.7787-1.0853-7.656-3.256-1.8773-2.2-2.816-5.192-2.816-8.976-0.000002-3.784,0.95333-6.8053,2.86-9.064,1.936-2.288,4.5027-3.432,7.7-3.432,6.8346,0.00002,10.252,4.4734,10.252,13.42m-16.896-2.992,12.98,0c-0.00002-1.9946-0.60135-3.6666-1.804-5.016-1.2027-1.3493-2.728-2.024-4.576-2.024-1.848,0.00002-3.3733,0.64535-4.576,1.936-1.2027,1.2614-1.8773,2.9627-2.024,5.104"/>
   <path id="path3044" style="" d="m126.78,686.16c-2.464,0.0587-4.312,0.63069-5.544,1.716-1.232,1.0854-1.848,3.1387-1.848,6.16v11.968h-3.696v-23.056h3.388v4.18c1.056-1.7306,2.068-2.9626,3.036-3.696,0.99732-0.76264,2.0826-1.144,3.256-1.144,0.32265,0.00002,0.79198,0.044,1.408,0.132v3.74"/>
   <path id="path3046" style="" d="m134.26,682.94,0,23.056-3.652,0,0-23.056,3.652,0m0-9.02,0,4.62-3.696,0,0-4.62,3.696,0"/>
   <path id="path3048" style="" d="m158.14,690.69-3.696,0c-0.23469-1.6133-0.82135-2.8453-1.76-3.696-0.93868-0.87998-2.1707-1.32-3.696-1.32-1.9947,0.00002-3.564,0.82135-4.708,2.464-1.1147,1.6134-1.672,3.8574-1.672,6.732-0.00001,2.728,0.57199,4.8693,1.716,6.424s2.728,2.332,4.752,2.332c3.1386,0,5.016-1.848,5.632-5.544h3.696c-0.23469,2.816-1.1734,5.016-2.816,6.6-1.6427,1.5547-3.8427,2.332-6.6,2.332-3.1387,0-5.632-1.0853-7.48-3.256-1.8187-2.2-2.728-5.1627-2.728-8.888,0-3.8133,0.92399-6.864,2.772-9.152,1.8773-2.288,4.3707-3.432,7.48-3.432,2.6693,0.00002,4.796,0.71869,6.38,2.156,1.6133,1.4374,2.5226,3.52,2.728,6.248"/>
   <path id="path3050" style="" d="m162.05,689.76c0.176-4.9866,3.256-7.48,9.24-7.48,2.8453,0.00002,5.0013,0.54269,6.468,1.628,1.4666,1.056,2.2,2.6107,2.2,4.664v13.552c-0.00002,1.2027,0.65998,1.804,1.98,1.804,0.26398,0,0.52798-0.0293,0.792-0.088v2.772c-1.0267,0.264-1.8627,0.396-2.508,0.396-1.1734,0-2.068-0.27867-2.684-0.836-0.58668-0.528-0.95335-1.3787-1.1-2.552-2.464,2.2587-5.0747,3.388-7.832,3.388-2.3173,0-4.1653-0.616-5.544-1.848-1.3493-1.232-2.024-2.8893-2.024-4.972,0-0.67466,0.0587-1.2907,0.176-1.848,0.14666-0.55733,0.29333-1.0413,0.44-1.452,0.176-0.43999,0.46933-0.83599,0.88-1.188,0.41066-0.38132,0.748-0.68932,1.012-0.924,0.29333-0.23466,0.76266-0.45465,1.408-0.66,0.67466-0.23465,1.188-0.39599,1.54-0.484,0.35199-0.11732,0.96799-0.24932,1.848-0.396,0.87999-0.14665,1.5253-0.24932,1.936-0.308,0.41066-0.0587,1.144-0.16132,2.2-0.308,1.4373-0.17599,2.4346-0.45465,2.992-0.836,0.55732-0.38132,0.83598-0.95332,0.836-1.716v-0.968c-0.00002-1.1146-0.45468-1.9653-1.364-2.552-0.88001-0.58665-2.1414-0.87998-3.784-0.88-1.7013,0.00002-2.992,0.33735-3.872,1.012-0.88001,0.64535-1.3933,1.672-1.54,3.08h-3.696m7.348,14.036c2.024,0,3.6813-0.528,4.972-1.584,1.2906-1.0853,1.936-2.244,1.936-3.476v-4.136c-0.73335,0.35201-1.848,0.64534-3.344,0.88-1.4667,0.23468-2.7427,0.44001-3.828,0.616-1.0853,0.17601-2.068,0.60134-2.948,1.276-0.88001,0.64534-1.32,1.5547-1.32,2.728-0.00001,1.1733,0.39599,2.0827,1.188,2.728,0.79199,0.64534,1.9067,0.968,3.344,0.968"/>
   <path id="path3052" style="" d="m185.94,674.8,4.136,0,0,4.884-1.188,5.896-1.76,0-1.188-5.896,0-4.884"/>
   <path id="path3054" style="" d="m197.74,699.14c0.17599,1.3787,0.64533,2.4787,1.408,3.3,0.79199,0.792,2.2,1.188,4.224,1.188,1.6133,0,2.904-0.32266,3.872-0.968,0.99732-0.67466,1.496-1.5547,1.496-2.64-0.00002-0.85066-0.27868-1.5253-0.836-2.024-0.55735-0.49866-1.4667-0.89466-2.728-1.188l-3.432-0.836c-2.728-0.64532-4.6347-1.452-5.72-2.42-1.056-0.99732-1.584-2.4053-1.584-4.224,0-2.1413,0.80666-3.8426,2.42-5.104,1.6133-1.2906,3.7547-1.936,6.424-1.936,2.6693,0.00002,4.7226,0.61602,6.16,1.848,1.4373,1.232,2.1706,2.9774,2.2,5.236h-3.872c-0.088-2.464-1.628-3.696-4.62-3.696-1.496,0.00002-2.684,0.32269-3.564,0.968-0.88001,0.61602-1.32,1.452-1.32,2.508-0.00001,0.82135,0.33733,1.496,1.012,2.024,0.67466,0.49868,1.76,0.92401,3.256,1.276l3.52,0.836c2.288,0.55735,3.9453,1.3493,4.972,2.376,1.0266,0.99734,1.54,2.3467,1.54,4.048-0.00002,2.2293-0.86535,4.004-2.596,5.324-1.7014,1.32-4.004,1.98-6.908,1.98-5.9547,0-9.02-2.6253-9.196-7.876h3.872"/>
   <path id="path3056" style="" d="m232.64,673.92,0,28.468,15.84,0,0,3.608-19.932,0,0-32.076,4.092,0"/>
   <path id="path3058" style="" d="m252.11,689.76c0.176-4.9866,3.256-7.48,9.24-7.48,2.8453,0.00002,5.0013,0.54269,6.468,1.628,1.4666,1.056,2.2,2.6107,2.2,4.664v13.552c-0.00002,1.2027,0.65998,1.804,1.98,1.804,0.26398,0,0.52798-0.0293,0.792-0.088v2.772c-1.0267,0.264-1.8627,0.396-2.508,0.396-1.1734,0-2.068-0.27867-2.684-0.836-0.58668-0.528-0.95335-1.3787-1.1-2.552-2.464,2.2587-5.0747,3.388-7.832,3.388-2.3173,0-4.1653-0.616-5.544-1.848-1.3493-1.232-2.024-2.8893-2.024-4.972,0-0.67466,0.0587-1.2907,0.176-1.848,0.14666-0.55733,0.29333-1.0413,0.44-1.452,0.176-0.43999,0.46933-0.83599,0.88-1.188,0.41066-0.38132,0.748-0.68932,1.012-0.924,0.29333-0.23466,0.76266-0.45465,1.408-0.66,0.67466-0.23465,1.188-0.39599,1.54-0.484,0.35199-0.11732,0.96799-0.24932,1.848-0.396,0.87999-0.14665,1.5253-0.24932,1.936-0.308,0.41066-0.0587,1.144-0.16132,2.2-0.308,1.4373-0.17599,2.4346-0.45465,2.992-0.836,0.55732-0.38132,0.83598-0.95332,0.836-1.716v-0.968c-0.00002-1.1146-0.45468-1.9653-1.364-2.552-0.88001-0.58665-2.1414-0.87998-3.784-0.88-1.7013,0.00002-2.992,0.33735-3.872,1.012-0.88001,0.64535-1.3933,1.672-1.54,3.08h-3.696m7.348,14.036c2.024,0,3.6813-0.528,4.972-1.584,1.2906-1.0853,1.936-2.244,1.936-3.476v-4.136c-0.73335,0.35201-1.848,0.64534-3.344,0.88-1.4667,0.23468-2.7427,0.44001-3.828,0.616-1.0853,0.17601-2.068,0.60134-2.948,1.276-0.88001,0.64534-1.32,1.5547-1.32,2.728-0.00001,1.1733,0.39599,2.0827,1.188,2.728,0.79199,0.64534,1.9067,0.968,3.344,0.968"/>
   <path id="path3060" style="" d="m285.11,682.94,0,2.992-3.784,0,0,15.796c0,0.82134,0.132,1.3787,0.396,1.672,0.29333,0.264,0.836,0.396,1.628,0.396,0.73333,0,1.32-0.0587,1.76-0.176v3.08c-1.144,0.20533-2.1413,0.308-2.992,0.308-1.4373,0-2.5373-0.32267-3.3-0.968-0.76267-0.616-1.144-1.5107-1.144-2.684v-17.424h-3.124v-2.992h3.124v-6.336h3.652v6.336h3.784"/>
   <path id="path3062" style="" d="m308.09,695.7-16.984,0c0.0587,2.4053,0.67466,4.3267,1.848,5.764,1.2027,1.4373,2.8453,2.156,4.928,2.156,2.992,0,5.0013-1.54,6.028-4.62h3.696c-0.46936,2.5227-1.5694,4.488-3.3,5.896-1.7307,1.408-3.916,2.112-6.556,2.112-3.2267,0-5.7787-1.0853-7.656-3.256-1.8773-2.2-2.816-5.192-2.816-8.976s0.95333-6.8053,2.86-9.064c1.936-2.288,4.5027-3.432,7.7-3.432,6.8346,0.00002,10.252,4.4734,10.252,13.42m-16.896-2.992,12.98,0c-0.00002-1.9946-0.60135-3.6666-1.804-5.016-1.2027-1.3493-2.728-2.024-4.576-2.024-1.848,0.00002-3.3733,0.64535-4.576,1.936-1.2027,1.2614-1.8773,2.9627-2.024,5.104"/>
   <path id="path3064" style="" d="m314.79,699.14c0.176,1.3787,0.64533,2.4787,1.408,3.3,0.792,0.792,2.2,1.188,4.224,1.188,1.6133,0,2.904-0.32266,3.872-0.968,0.99732-0.67466,1.496-1.5547,1.496-2.64-0.00001-0.85066-0.27868-1.5253-0.836-2.024-0.55734-0.49866-1.4667-0.89466-2.728-1.188l-3.432-0.836c-2.728-0.64532-4.6347-1.452-5.72-2.42-1.056-0.99732-1.584-2.4053-1.584-4.224,0-2.1413,0.80667-3.8426,2.42-5.104,1.6133-1.2906,3.7547-1.936,6.424-1.936,2.6693,0.00002,4.7227,0.61602,6.16,1.848s2.1706,2.9774,2.2,5.236h-3.872c-0.088-2.464-1.628-3.696-4.62-3.696-1.496,0.00002-2.684,0.32269-3.564,0.968-0.88,0.61602-1.32,1.452-1.32,2.508,0,0.82135,0.33733,1.496,1.012,2.024,0.67466,0.49868,1.76,0.92401,3.256,1.276l3.52,0.836c2.288,0.55735,3.9453,1.3493,4.972,2.376,1.0266,0.99734,1.54,2.3467,1.54,4.048-0.00002,2.2293-0.86535,4.004-2.596,5.324-1.7013,1.32-4.004,1.98-6.908,1.98-5.9547,0-9.02-2.6253-9.196-7.876h3.872"/>
   <path id="path3066" style="" d="m342.52,682.94,0,2.992-3.784,0,0,15.796c0,0.82134,0.132,1.3787,0.396,1.672,0.29333,0.264,0.836,0.396,1.628,0.396,0.73333,0,1.32-0.0587,1.76-0.176v3.08c-1.144,0.20533-2.1413,0.308-2.992,0.308-1.4373,0-2.5373-0.32267-3.3-0.968-0.76267-0.616-1.144-1.5107-1.144-2.684v-17.424h-3.124v-2.992h3.124v-6.336h3.652v6.336h3.784"/>
   <path id="path3068" style="" d="m381.03,683.34c-0.00003,2.728-0.83603,4.928-2.508,6.6-1.6427,1.6427-3.7987,2.464-6.468,2.464h-10.076v13.596h-4.092v-32.076h13.244c3.168,0.00003,5.6026,0.82136,7.304,2.464,1.7306,1.6134,2.596,3.9307,2.596,6.952m-19.052,5.456,8.536,0c1.9653,0.00002,3.4906-0.49865,4.576-1.496,1.1146-0.99731,1.672-2.376,1.672-4.136-0.00003-1.76-0.55736-3.1386-1.672-4.136-1.0854-0.99731-2.6107-1.496-4.576-1.496h-8.536v11.264"/>
   <path id="path3070" style="" d="m396.97,686.16c-2.464,0.0587-4.312,0.63069-5.544,1.716-1.232,1.0854-1.848,3.1387-1.848,6.16v11.968h-3.696v-23.056h3.388v4.18c1.056-1.7306,2.068-2.9626,3.036-3.696,0.99732-0.76264,2.0826-1.144,3.256-1.144,0.32265,0.00002,0.79198,0.044,1.408,0.132v3.74"/>
   <path id="path3072" style="" d="m404.45,682.94,0,23.056-3.652,0,0-23.056,3.652,0m0-9.02,0,4.62-3.696,0,0-4.62,3.696,0"/>
   <path id="path3074" style="" d="m420.19,706-4.004,0-8.096-23.056,4.136,0,6.16,18.7,6.512-18.7,4.136,0-8.844,23.056"/>
   <path id="path3076" style="" d="m431.81,689.76c0.176-4.9866,3.256-7.48,9.24-7.48,2.8453,0.00002,5.0013,0.54269,6.468,1.628,1.4666,1.056,2.2,2.6107,2.2,4.664v13.552c-0.00002,1.2027,0.65998,1.804,1.98,1.804,0.26398,0,0.52798-0.0293,0.792-0.088v2.772c-1.0267,0.264-1.8627,0.396-2.508,0.396-1.1734,0-2.068-0.27867-2.684-0.836-0.58668-0.528-0.95335-1.3787-1.1-2.552-2.464,2.2587-5.0747,3.388-7.832,3.388-2.3173,0-4.1653-0.616-5.544-1.848-1.3493-1.232-2.024-2.8893-2.024-4.972,0-0.67466,0.0587-1.2907,0.176-1.848,0.14667-0.55733,0.29333-1.0413,0.44-1.452,0.176-0.43999,0.46933-0.83599,0.88-1.188,0.41067-0.38132,0.748-0.68932,1.012-0.924,0.29333-0.23466,0.76266-0.45465,1.408-0.66,0.67466-0.23465,1.188-0.39599,1.54-0.484,0.35199-0.11732,0.96799-0.24932,1.848-0.396,0.87999-0.14665,1.5253-0.24932,1.936-0.308,0.41066-0.0587,1.144-0.16132,2.2-0.308,1.4373-0.17599,2.4346-0.45465,2.992-0.836,0.55732-0.38132,0.83599-0.95332,0.836-1.716v-0.968c-0.00001-1.1146-0.45468-1.9653-1.364-2.552-0.88001-0.58665-2.1413-0.87998-3.784-0.88-1.7013,0.00002-2.992,0.33735-3.872,1.012-0.88,0.64535-1.3933,1.672-1.54,3.08h-3.696m7.348,14.036c2.024,0,3.6813-0.528,4.972-1.584,1.2906-1.0853,1.936-2.244,1.936-3.476v-4.136c-0.73335,0.35201-1.848,0.64534-3.344,0.88-1.4667,0.23468-2.7427,0.44001-3.828,0.616-1.0853,0.17601-2.068,0.60134-2.948,1.276-0.88,0.64534-1.32,1.5547-1.32,2.728s0.396,2.0827,1.188,2.728c0.79199,0.64534,1.9067,0.968,3.344,0.968"/>
   <path id="path3078" style="" d="m464.81,682.94,0,2.992-3.784,0,0,15.796c-0.00001,0.82134,0.13199,1.3787,0.396,1.672,0.29332,0.264,0.83599,0.396,1.628,0.396,0.73332,0,1.32-0.0587,1.76-0.176v3.08c-1.144,0.20533-2.1414,0.308-2.992,0.308-1.4373,0-2.5373-0.32267-3.3-0.968-0.76267-0.616-1.144-1.5107-1.144-2.684v-17.424h-3.124v-2.992h3.124v-6.336h3.652v6.336h3.784"/>
   <path id="path3080" style="" d="m487.79,695.7-16.984,0c0.0587,2.4053,0.67466,4.3267,1.848,5.764,1.2027,1.4373,2.8453,2.156,4.928,2.156,2.992,0,5.0013-1.54,6.028-4.62h3.696c-0.46935,2.5227-1.5694,4.488-3.3,5.896-1.7307,1.408-3.916,2.112-6.556,2.112-3.2267,0-5.7787-1.0853-7.656-3.256-1.8773-2.2-2.816-5.192-2.816-8.976s0.95333-6.8053,2.86-9.064c1.936-2.288,4.5027-3.432,7.7-3.432,6.8346,0.00002,10.252,4.4734,10.252,13.42m-16.896-2.992,12.98,0c-0.00002-1.9946-0.60135-3.6666-1.804-5.016-1.2027-1.3493-2.728-2.024-4.576-2.024-1.848,0.00002-3.3733,0.64535-4.576,1.936-1.2027,1.2614-1.8773,2.9627-2.024,5.104"/>
   <path id="path3082" style="" d="m526.78,683.34c-0.00003,2.728-0.83603,4.928-2.508,6.6-1.6427,1.6427-3.7987,2.464-6.468,2.464h-10.076v13.596h-4.092v-32.076h13.244c3.168,0.00003,5.6026,0.82136,7.304,2.464,1.7306,1.6134,2.596,3.9307,2.596,6.952m-19.052,5.456,8.536,0c1.9653,0.00002,3.4906-0.49865,4.576-1.496,1.1146-0.99731,1.672-2.376,1.672-4.136-0.00003-1.76-0.55736-3.1386-1.672-4.136-1.0854-0.99731-2.6107-1.496-4.576-1.496h-8.536v11.264"/>
   <path id="path3084" style="" d="m549.98,706-3.3,0,0-3.212c-1.0854,1.5253-2.2147,2.6107-3.388,3.256-1.1734,0.64533-2.6107,0.968-4.312,0.968-2.2293,0-4.0187-0.572-5.368-1.716-1.32-1.144-1.98-2.6693-1.98-4.576v-17.776h3.652v16.324c-0.00001,1.3787,0.42532,2.4787,1.276,3.3,0.85066,0.82134,2.0093,1.232,3.476,1.232,1.9066,0,3.432-0.704,4.576-2.112,1.144-1.4373,1.716-3.3293,1.716-5.676v-13.068h3.652v23.056"/>
   <path id="path3086" style="" d="m555.27,673.92,3.652,0,0,12.144c1.672-2.5226,4.048-3.784,7.128-3.784,3.0506,0.00002,5.456,1.0854,7.216,3.256,1.76,2.1707,2.64,5.1187,2.64,8.844-0.00002,3.8133-0.90936,6.8787-2.728,9.196-1.8187,2.288-4.2534,3.432-7.304,3.432-3.1387,0-5.5733-1.32-7.304-3.96v2.948h-3.3v-32.076m10.076,11.792c-1.936,0.00002-3.4907,0.82135-4.664,2.464-1.1733,1.6134-1.76,3.7694-1.76,6.468-0.00001,2.6987,0.58666,4.8693,1.76,6.512,1.1733,1.6133,2.728,2.42,4.664,2.42,1.9946,0,3.608-0.80666,4.84-2.42,1.2613-1.6427,1.892-3.7693,1.892-6.38-0.00002-2.7573-0.61602-4.9573-1.848-6.6-1.2027-1.6426-2.8307-2.464-4.884-2.464"/>
   <path id="path3088" style="" d="m583.54,673.92,0,32.076-3.696,0,0-32.076,3.696,0"/>
   <path id="path3090" style="" d="m593.26,682.94,0,23.056-3.652,0,0-23.056,3.652,0m0-9.02,0,4.62-3.696,0,0-4.62,3.696,0"/>
   <path id="path3092" style="" d="m617.13,690.69-3.696,0c-0.23468-1.6133-0.82134-2.8453-1.76-3.696-0.93868-0.87998-2.1707-1.32-3.696-1.32-1.9947,0.00002-3.564,0.82135-4.708,2.464-1.1147,1.6134-1.672,3.8574-1.672,6.732,0,2.728,0.572,4.8693,1.716,6.424s2.728,2.332,4.752,2.332c3.1387,0,5.016-1.848,5.632-5.544h3.696c-0.23468,2.816-1.1734,5.016-2.816,6.6-1.6427,1.5547-3.8427,2.332-6.6,2.332-3.1387,0-5.632-1.0853-7.48-3.256-1.8187-2.2-2.728-5.1627-2.728-8.888,0-3.8133,0.924-6.864,2.772-9.152,1.8773-2.288,4.3707-3.432,7.48-3.432,2.6693,0.00002,4.796,0.71869,6.38,2.156,1.6133,1.4374,2.5226,3.52,2.728,6.248"/>
   <path id="path3094" style="" d="m631.34,692.27,0,3.168-10.604,0,0-3.168,10.604,0"/>
   <path id="path3096" style="" d="m660.07,683.34c-0.00003,2.728-0.83603,4.928-2.508,6.6-1.6427,1.6427-3.7987,2.464-6.468,2.464h-10.076v13.596h-4.092v-32.076h13.244c3.168,0.00003,5.6026,0.82136,7.304,2.464,1.7306,1.6134,2.596,3.9307,2.596,6.952m-19.052,5.456,8.536,0c1.9653,0.00002,3.4906-0.49865,4.576-1.496,1.1146-0.99731,1.672-2.376,1.672-4.136-0.00002-1.76-0.55736-3.1386-1.672-4.136-1.0854-0.99731-2.6107-1.496-4.576-1.496h-8.536v11.264"/>
   <path id="path3098" style="" d="m676.01,686.16c-2.464,0.0587-4.312,0.63069-5.544,1.716-1.232,1.0854-1.848,3.1387-1.848,6.16v11.968h-3.696v-23.056h3.388v4.18c1.056-1.7306,2.068-2.9626,3.036-3.696,0.99732-0.76264,2.0827-1.144,3.256-1.144,0.32265,0.00002,0.79199,0.044,1.408,0.132v3.74"/>
   <path id="path3100" style="" d="m683.49,682.94,0,23.056-3.652,0,0-23.056,3.652,0m0-9.02,0,4.62-3.696,0,0-4.62,3.696,0"/>
   <path id="path3102" style="" d="m699.23,706-4.004,0-8.096-23.056,4.136,0,6.16,18.7,6.512-18.7,4.136,0-8.844,23.056"/>
   <path id="path3104" style="" d="m710.85,689.76c0.176-4.9866,3.256-7.48,9.24-7.48,2.8453,0.00002,5.0013,0.54269,6.468,1.628,1.4666,1.056,2.2,2.6107,2.2,4.664v13.552c-0.00002,1.2027,0.65998,1.804,1.98,1.804,0.26398,0,0.52798-0.0293,0.792-0.088v2.772c-1.0267,0.264-1.8627,0.396-2.508,0.396-1.1734,0-2.068-0.27867-2.684-0.836-0.58668-0.528-0.95335-1.3787-1.1-2.552-2.464,2.2587-5.0747,3.388-7.832,3.388-2.3173,0-4.1653-0.616-5.544-1.848-1.3493-1.232-2.024-2.8893-2.024-4.972,0-0.67466,0.0587-1.2907,0.176-1.848,0.14667-0.55733,0.29334-1.0413,0.44-1.452,0.176-0.43999,0.46934-0.83599,0.88-1.188,0.41067-0.38132,0.748-0.68932,1.012-0.924,0.29333-0.23466,0.76267-0.45465,1.408-0.66,0.67467-0.23465,1.188-0.39599,1.54-0.484,0.352-0.11732,0.968-0.24932,1.848-0.396,0.88-0.14665,1.5253-0.24932,1.936-0.308,0.41066-0.0587,1.144-0.16132,2.2-0.308,1.4373-0.17599,2.4347-0.45465,2.992-0.836,0.55732-0.38132,0.83599-0.95332,0.836-1.716v-0.968c-0.00001-1.1146-0.45468-1.9653-1.364-2.552-0.88001-0.58665-2.1413-0.87998-3.784-0.88-1.7013,0.00002-2.992,0.33735-3.872,1.012-0.88,0.64535-1.3933,1.672-1.54,3.08h-3.696m7.348,14.036c2.024,0,3.6813-0.528,4.972-1.584,1.2907-1.0853,1.936-2.244,1.936-3.476v-4.136c-0.73334,0.35201-1.848,0.64534-3.344,0.88-1.4667,0.23468-2.7427,0.44001-3.828,0.616-1.0853,0.17601-2.068,0.60134-2.948,1.276-0.88,0.64534-1.32,1.5547-1.32,2.728s0.396,2.0827,1.188,2.728c0.792,0.64534,1.9067,0.968,3.344,0.968"/>
   <path id="path3106" style="" d="m743.85,682.94,0,2.992-3.784,0,0,15.796c-0.00001,0.82134,0.13199,1.3787,0.396,1.672,0.29332,0.264,0.83599,0.396,1.628,0.396,0.73332,0,1.32-0.0587,1.76-0.176v3.08c-1.144,0.20533-2.1413,0.308-2.992,0.308-1.4373,0-2.5373-0.32267-3.3-0.968-0.76267-0.616-1.144-1.5107-1.144-2.684v-17.424h-3.124v-2.992h3.124v-6.336h3.652v6.336h3.784"/>
   <path id="path3108" style="" d="m766.83,695.7-16.984,0c0.0587,2.4053,0.67466,4.3267,1.848,5.764,1.2027,1.4373,2.8453,2.156,4.928,2.156,2.992,0,5.0013-1.54,6.028-4.62h3.696c-0.46935,2.5227-1.5694,4.488-3.3,5.896-1.7307,1.408-3.916,2.112-6.556,2.112-3.2267,0-5.7787-1.0853-7.656-3.256-1.8773-2.2-2.816-5.192-2.816-8.976s0.95333-6.8053,2.86-9.064c1.936-2.288,4.5027-3.432,7.7-3.432,6.8346,0.00002,10.252,4.4734,10.252,13.42m-16.896-2.992,12.98,0c-0.00002-1.9946-0.60135-3.6666-1.804-5.016-1.2027-1.3493-2.728-2.024-4.576-2.024-1.848,0.00002-3.3733,0.64535-4.576,1.936-1.2027,1.2614-1.8773,2.9627-2.024,5.104"/>
   <path id="path3110" style="" d="m805.82,683.34c-0.00003,2.728-0.83603,4.928-2.508,6.6-1.6427,1.6427-3.7987,2.464-6.468,2.464h-10.076v13.596h-4.092v-32.076h13.244c3.168,0.00003,5.6026,0.82136,7.304,2.464,1.7306,1.6134,2.596,3.9307,2.596,6.952m-19.052,5.456,8.536,0c1.9653,0.00002,3.4906-0.49865,4.576-1.496,1.1146-0.99731,1.672-2.376,1.672-4.136-0.00002-1.76-0.55736-3.1386-1.672-4.136-1.0854-0.99731-2.6107-1.496-4.576-1.496h-8.536v11.264"/>
   <path id="path3112" style="" d="m810.36,689.76c0.176-4.9866,3.256-7.48,9.24-7.48,2.8453,0.00002,5.0013,0.54269,6.468,1.628,1.4666,1.056,2.2,2.6107,2.2,4.664v13.552c-0.00002,1.2027,0.65998,1.804,1.98,1.804,0.26398,0,0.52798-0.0293,0.792-0.088v2.772c-1.0267,0.264-1.8627,0.396-2.508,0.396-1.1734,0-2.068-0.27867-2.684-0.836-0.58668-0.528-0.95335-1.3787-1.1-2.552-2.464,2.2587-5.0747,3.388-7.832,3.388-2.3173,0-4.1653-0.616-5.544-1.848-1.3493-1.232-2.024-2.8893-2.024-4.972,0-0.67466,0.0587-1.2907,0.176-1.848,0.14666-0.55733,0.29333-1.0413,0.44-1.452,0.176-0.43999,0.46933-0.83599,0.88-1.188,0.41066-0.38132,0.748-0.68932,1.012-0.924,0.29333-0.23466,0.76266-0.45465,1.408-0.66,0.67466-0.23465,1.188-0.39599,1.54-0.484,0.35199-0.11732,0.96799-0.24932,1.848-0.396,0.87999-0.14665,1.5253-0.24932,1.936-0.308,0.41066-0.0587,1.144-0.16132,2.2-0.308,1.4373-0.17599,2.4346-0.45465,2.992-0.836,0.55732-0.38132,0.83598-0.95332,0.836-1.716v-0.968c-0.00002-1.1146-0.45468-1.9653-1.364-2.552-0.88001-0.58665-2.1414-0.87998-3.784-0.88-1.7013,0.00002-2.992,0.33735-3.872,1.012-0.88001,0.64535-1.3933,1.672-1.54,3.08h-3.696m7.348,14.036c2.024,0,3.6813-0.528,4.972-1.584,1.2906-1.0853,1.936-2.244,1.936-3.476v-4.136c-0.73335,0.35201-1.848,0.64534-3.344,0.88-1.4667,0.23468-2.7427,0.44001-3.828,0.616-1.0853,0.17601-2.068,0.60134-2.948,1.276-0.88001,0.64534-1.32,1.5547-1.32,2.728-0.00001,1.1733,0.39599,2.0827,1.188,2.728,0.79199,0.64534,1.9067,0.968,3.344,0.968"/>
   <path id="path3114" style="" d="m845.65,686.16c-2.464,0.0587-4.312,0.63069-5.544,1.716-1.232,1.0854-1.848,3.1387-1.848,6.16v11.968h-3.696v-23.056h3.388v4.18c1.056-1.7306,2.068-2.9626,3.036-3.696,0.99733-0.76264,2.0827-1.144,3.256-1.144,0.32266,0.00002,0.79199,0.044,1.408,0.132v3.74"/>
   <path id="path3116" style="" d="m857.97,682.94,0,2.992-3.784,0,0,15.796c-0.00001,0.82134,0.13199,1.3787,0.396,1.672,0.29332,0.264,0.83599,0.396,1.628,0.396,0.73332,0,1.32-0.0587,1.76-0.176v3.08c-1.144,0.20533-2.1413,0.308-2.992,0.308-1.4373,0-2.5373-0.32267-3.3-0.968-0.76267-0.616-1.144-1.5107-1.144-2.684v-17.424h-3.124v-2.992h3.124v-6.336h3.652v6.336h3.784"/>
   <path id="path3118" style="" d="m861.46,682.94,3.388,0,0,3.872c1.0267-1.6133,2.1267-2.772,3.3-3.476,1.2027-0.70398,2.6547-1.056,4.356-1.056,2.2293,0.00002,4.004,0.57202,5.324,1.716s1.98,2.6694,1.98,4.576v17.424h-3.652v-15.972c-0.00002-1.3786-0.42535-2.4786-1.276-3.3-0.85068-0.82131-2.0094-1.232-3.476-1.232-1.8773,0.00002-3.388,0.71869-4.532,2.156-1.144,1.408-1.716,3.2854-1.716,5.632v12.716h-3.696v-23.056"/>
   <path id="path3120" style="" d="m904.59,695.7-16.984,0c0.0587,2.4053,0.67467,4.3267,1.848,5.764,1.2027,1.4373,2.8453,2.156,4.928,2.156,2.992,0,5.0013-1.54,6.028-4.62h3.696c-0.46935,2.5227-1.5694,4.488-3.3,5.896-1.7307,1.408-3.916,2.112-6.556,2.112-3.2267,0-5.7787-1.0853-7.656-3.256-1.8773-2.2-2.816-5.192-2.816-8.976s0.95334-6.8053,2.86-9.064c1.936-2.288,4.5027-3.432,7.7-3.432,6.8346,0.00002,10.252,4.4734,10.252,13.42m-16.896-2.992,12.98,0c-0.00001-1.9946-0.60135-3.6666-1.804-5.016-1.2027-1.3493-2.728-2.024-4.576-2.024-1.848,0.00002-3.3733,0.64535-4.576,1.936-1.2027,1.2614-1.8773,2.9627-2.024,5.104"/>
   <path id="path3122" style="" d="m919.64,686.16c-2.464,0.0587-4.312,0.63069-5.544,1.716-1.232,1.0854-1.848,3.1387-1.848,6.16v11.968h-3.696v-23.056h3.388v4.18c1.056-1.7306,2.068-2.9626,3.036-3.696,0.99733-0.76264,2.0827-1.144,3.256-1.144,0.32266,0.00002,0.79199,0.044,1.408,0.132v3.74"/>
   <path id="path3124" style="" d="m925.89,699.14c0.17599,1.3787,0.64532,2.4787,1.408,3.3,0.79199,0.792,2.2,1.188,4.224,1.188,1.6133,0,2.904-0.32266,3.872-0.968,0.99731-0.67466,1.496-1.5547,1.496-2.64-0.00002-0.85066-0.27869-1.5253-0.836-2.024-0.55735-0.49866-1.4667-0.89466-2.728-1.188l-3.432-0.836c-2.728-0.64532-4.6347-1.452-5.72-2.42-1.056-0.99732-1.584-2.4053-1.584-4.224,0-2.1413,0.80666-3.8426,2.42-5.104,1.6133-1.2906,3.7547-1.936,6.424-1.936,2.6693,0.00002,4.7226,0.61602,6.16,1.848,1.4373,1.232,2.1706,2.9774,2.2,5.236h-3.872c-0.088-2.464-1.628-3.696-4.62-3.696-1.496,0.00002-2.684,0.32269-3.564,0.968-0.88001,0.61602-1.32,1.452-1.32,2.508-0.00001,0.82135,0.33732,1.496,1.012,2.024,0.67466,0.49868,1.76,0.92401,3.256,1.276l3.52,0.836c2.288,0.55735,3.9453,1.3493,4.972,2.376,1.0266,0.99734,1.54,2.3467,1.54,4.048-0.00002,2.2293-0.86536,4.004-2.596,5.324-1.7014,1.32-4.004,1.98-6.908,1.98-5.9547,0-9.02-2.6253-9.196-7.876h3.872"/>
   <path id="path3126" style="" d="m959.47,690.03c-0.00002-1.6133-0.49869-2.772-1.496-3.476-0.96802-0.70398-2.0534-1.056-3.256-1.056-1.8774,0.00002-3.388,0.71869-4.532,2.156-1.144,1.408-1.716,3.2854-1.716,5.632v12.716h-3.652v-32.076h3.652v12.188c1.0853-1.408,2.1707-2.3906,3.256-2.948,1.1146-0.58664,2.4933-0.87998,4.136-0.88,2.2293,0.00002,3.9893,0.57202,5.28,1.716,1.32,1.1147,1.98,2.64,1.98,4.576v17.424h-3.652v-15.972"/>
   <path id="path3128" style="" d="m972.33,682.94,0,23.056-3.652,0,0-23.056,3.652,0m0-9.02,0,4.62-3.696,0,0-4.62,3.696,0"/>
   <path id="path3130" style="" d="m978.16,715.59,0-32.648,3.388,0,0,3.476c1.7307-2.7573,4.18-4.136,7.348-4.136,3.0506,0.00002,5.456,1.1294,7.216,3.388,1.7893,2.2587,2.684,5.324,2.684,9.196-0.00003,3.6667-0.90936,6.6147-2.728,8.844-1.7894,2.2-4.1654,3.3-7.128,3.3-2.8454,0-5.2067-1.144-7.084-3.432v12.012h-3.696m10.12-29.876c-1.936,0.00002-3.4907,0.82135-4.664,2.464-1.1733,1.6134-1.76,3.7694-1.76,6.468-0.00001,2.6987,0.58666,4.8693,1.76,6.512,1.1733,1.6133,2.728,2.42,4.664,2.42,1.9946,0,3.608-0.80666,4.84-2.42,1.232-1.6427,1.848-3.7693,1.848-6.38-0.00002-2.7573-0.61602-4.9573-1.848-6.6-1.2027-1.6426-2.816-2.464-4.84-2.464"/>
  </g>
 </g>
</svg>
